<svg width="28" height="32" viewBox="0 0 28 32" fill="none" xmlns="http://www.w3.org/2000/svg">
<path d="M3 1.5H19.5C23.0898 1.5 26 4.41015 26 8V20.3333C26 23.9232 23.0898 26.8333 19.5 26.8333H3C2.17157 26.8333 1.5 26.1618 1.5 25.3333V3C1.5 2.17157 2.17157 1.5 3 1.5Z" stroke="#012B36" stroke-width="3"/>
<path d="M6.83333 30C6.83333 30.8284 7.50491 31.5 8.33333 31.5C9.16176 31.5 9.83333 30.8284 9.83333 30L6.83333 30ZM6.83334 2.5L6.83333 30L9.83333 30L9.83334 2.5L6.83334 2.5Z" fill="#012B36"/>
<line x1="19.3333" y1="9" x2="14" y2="9" stroke="#012B36" stroke-width="3" stroke-linecap="round"/>
</svg>
