<svg width="28" height="30" viewBox="0 0 28 30" fill="none" xmlns="http://www.w3.org/2000/svg">
<path d="M3 1.25H15.8333C19.5613 1.25 22.5833 4.27208 22.5833 8V16.5556C22.5833 20.2835 19.5613 23.3056 15.8333 23.3056H3C2.0335 23.3056 1.25 22.5221 1.25 21.5556V3C1.25 2.0335 2.0335 1.25 3 1.25Z" stroke="#012B36" stroke-width="2.5"/>
<path d="M5.97223 26.0001C5.97223 26.6904 6.53187 27.2501 7.22223 27.2501C7.91258 27.2501 8.47223 26.6904 8.47223 26.0001L5.97223 26.0001ZM5.97223 2.16675L5.97223 26.0001L8.47223 26.0001L8.47223 2.16675L5.97223 2.16675Z" fill="#012B36"/>
<line x1="16.8056" y1="7.75" x2="12.0834" y2="7.75" stroke="#012B36" stroke-width="2.5" stroke-linecap="round"/>
</svg>
