<svg width="176" height="159" viewBox="0 0 176 159" fill="none" xmlns="http://www.w3.org/2000/svg">
<path fill-rule="evenodd" clip-rule="evenodd" d="M8.2957 82.4874C1.94845 62.7683 12.2637 39.6316 27.8584 25.9996C41.8889 13.7351 62.786 21.967 81.1496 18.8029C101.605 15.2784 121.542 -3.13854 139.815 6.70898C158.833 16.9579 166.879 42.3554 164.752 63.8566C162.877 82.8067 141.814 91.4865 129.953 106.382C118.228 121.106 115.432 147.583 96.6924 149.327C77.9221 151.074 70.9872 124.64 55.9491 113.269C40.2684 101.412 14.3197 101.202 8.2957 82.4874Z" fill="#71C67D"/>
<path d="M129.133 32.5801L94.2495 22.0514C93.8589 21.9338 93.4463 21.9097 93.0447 21.981C92.6432 22.0523 92.2637 22.2171 91.9367 22.4621C91.6097 22.7072 91.3441 23.0257 91.1612 23.3924C90.9783 23.759 90.8831 24.1636 90.8832 24.5739V74.1684C87.7302 70.6874 83.4663 68.4256 78.8301 67.7746C74.1939 67.1236 69.4774 68.1246 65.4976 70.604C61.5177 73.0835 58.5252 76.8853 57.0383 81.351C55.5514 85.8167 55.6638 90.6649 57.356 95.056C59.0482 99.447 62.2137 103.104 66.3042 105.394C70.3946 107.685 75.1523 108.463 79.7533 107.595C84.3543 106.728 88.5087 104.268 91.497 100.643C94.4853 97.0181 96.1192 92.4556 96.1158 87.746V49.1672L127.633 58.6825C128.024 58.8001 128.436 58.8242 128.838 58.7529C129.24 58.6815 129.619 58.5168 129.946 58.2717C130.273 58.0267 130.539 57.7081 130.722 57.3415C130.904 56.9748 131 56.5702 131 56.16V35.1026C131 34.536 130.818 33.9846 130.482 33.5301C130.146 33.0757 129.673 32.7425 129.133 32.5801ZM76.0576 102.662C73.1254 102.662 70.259 101.787 67.821 100.148C65.3829 98.509 63.4827 96.1795 62.3606 93.454C61.2385 90.7285 60.9449 87.7295 61.5169 84.8361C62.089 81.9428 63.501 79.2851 65.5744 77.1991C67.6478 75.1131 70.2894 73.6925 73.1653 73.117C76.0412 72.5415 79.0221 72.8368 81.7312 73.9658C84.4402 75.0947 86.7556 77.0065 88.3847 79.4593C90.0137 81.9122 90.8832 84.796 90.8832 87.746C90.8832 91.7019 89.3213 95.4958 86.5409 98.293C83.7606 101.09 79.9896 102.662 76.0576 102.662ZM125.767 52.6241L96.1158 43.6747V28.1098L125.767 37.0592V52.6241Z" fill="#012B36"/>
</svg>
