<svg width="59" height="59" viewBox="0 0 59 59" fill="none" xmlns="http://www.w3.org/2000/svg">
<path d="M22.3475 19.4166C22.3642 19.5508 22.166 19.9147 22.166 19.7795" stroke="#012B36" stroke-width="4" stroke-linecap="round"/>
<path d="M36.834 19.4166C37.2412 19.8747 37.3021 19.5981 36.834 19.5981" stroke="#012B36" stroke-width="4" stroke-linecap="round"/>
<path d="M19.5583 28.555C23.8621 28.6235 29.0866 28.6701 33.8083 28.6808C35.9115 28.6855 37.7596 28.6796 39.563 28.6703C39.7588 28.6693 40.9279 28.661 40.6745 28.6593" stroke="#012B36" stroke-width="4" stroke-linecap="round"/>
<path fill-rule="evenodd" clip-rule="evenodd" d="M30.3888 2C45.3048 2 57 14.526 57 29.4937C57 44.2102 45.0545 56.0833 30.3888 56.0833C15.2233 56.0833 2 44.7118 2 29.4937C2 14.0326 14.9811 2 30.3888 2Z" stroke="#012B36" stroke-width="4"/>
</svg>
