<svg width="239" height="235" viewBox="0 0 239 235" fill="none" xmlns="http://www.w3.org/2000/svg">
<path fill-rule="evenodd" clip-rule="evenodd" d="M39.9961 72.4756C51.2231 59.6841 66.4224 53.1628 82.7136 48.2332C104.23 41.7225 127.625 28.7943 147.073 40.0748C167.506 51.9268 169.947 79.0763 175.477 102.04C182.165 129.818 202.144 164.204 181.789 184.251C161.08 204.646 126.796 182.975 98.1158 178.227C80.99 175.393 64.5521 172.78 50.5442 162.527C35.8996 151.807 21.3831 138.539 19.2719 120.516C17.1625 102.507 28.0369 86.1013 39.9961 72.4756Z" fill="#71C67D"/>
<path d="M158.444 115.956C158.444 116.746 158.13 117.504 157.572 118.063C157.013 118.621 156.255 118.935 155.465 118.935H111.775C110.985 118.935 110.227 118.621 109.669 118.063C109.11 117.504 108.796 116.746 108.796 115.956C108.796 115.166 109.11 114.409 109.669 113.85C110.227 113.291 110.985 112.977 111.775 112.977H155.465C156.255 112.977 157.013 113.291 157.572 113.85C158.13 114.409 158.444 115.166 158.444 115.956ZM111.775 87.1605H155.465C156.255 87.1605 157.013 86.8466 157.572 86.288C158.13 85.7293 158.444 84.9717 158.444 84.1816C158.444 83.3916 158.13 82.6339 157.572 82.0752C157.013 81.5166 156.255 81.2027 155.465 81.2027H111.775C110.985 81.2027 110.227 81.5166 109.669 82.0752C109.11 82.6339 108.796 83.3916 108.796 84.1816C108.796 84.9717 109.11 85.7293 109.669 86.288C110.227 86.8466 110.985 87.1605 111.775 87.1605ZM155.465 144.752H111.775C110.985 144.752 110.227 145.066 109.669 145.625C109.11 146.183 108.796 146.941 108.796 147.731C108.796 148.521 109.11 149.279 109.669 149.837C110.227 150.396 110.985 150.71 111.775 150.71H155.465C156.255 150.71 157.013 150.396 157.572 149.837C158.13 149.279 158.444 148.521 158.444 147.731C158.444 146.941 158.13 146.183 157.572 145.625C157.013 145.066 156.255 144.752 155.465 144.752ZM89.8109 74.1329L76.0286 87.9102L70.19 82.0765C69.6253 81.5504 68.8784 81.2639 68.1067 81.2775C67.3349 81.2911 66.5986 81.6038 66.0528 82.1495C65.5071 82.6953 65.1944 83.4316 65.1808 84.2034C65.1672 84.9751 65.4537 85.722 65.9798 86.2867L73.9235 94.2304C74.4821 94.7882 75.2392 95.1015 76.0286 95.1015C76.818 95.1015 77.5751 94.7882 78.1337 94.2304L94.021 78.343C94.5472 77.7783 94.8337 77.0314 94.82 76.2597C94.8064 75.488 94.4938 74.7516 93.948 74.2059C93.4022 73.6601 92.6659 73.3475 91.8942 73.3338C91.1224 73.3202 90.3756 73.6067 89.8109 74.1329ZM89.8109 105.908L76.0286 119.685L70.19 113.851C69.9173 113.559 69.5884 113.324 69.223 113.161C68.8576 112.998 68.4631 112.911 68.0632 112.904C67.6632 112.897 67.2659 112.97 66.895 113.12C66.524 113.27 66.1871 113.493 65.9042 113.776C65.6214 114.058 65.3984 114.395 65.2485 114.766C65.0987 115.137 65.0251 115.535 65.0322 115.935C65.0393 116.335 65.1268 116.729 65.2896 117.094C65.4524 117.46 65.6872 117.789 65.9798 118.061L73.9235 126.005C74.4821 126.563 75.2392 126.876 76.0286 126.876C76.818 126.876 77.5751 126.563 78.1337 126.005L94.021 110.118C94.5472 109.553 94.8337 108.806 94.82 108.034C94.8064 107.263 94.4938 106.526 93.948 105.981C93.4022 105.435 92.6659 105.122 91.8942 105.109C91.1224 105.095 90.3756 105.381 89.8109 105.908ZM89.8109 137.682L76.0286 151.46L70.19 145.626C69.6253 145.1 68.8784 144.813 68.1067 144.827C67.3349 144.84 66.5986 145.153 66.0528 145.699C65.5071 146.245 65.1944 146.981 65.1808 147.753C65.1672 148.524 65.4537 149.271 65.9798 149.836L73.9235 157.78C74.4821 158.338 75.2392 158.651 76.0286 158.651C76.818 158.651 77.5751 158.338 78.1337 157.78L94.021 141.892C94.5472 141.328 94.8337 140.581 94.82 139.809C94.8064 139.037 94.4938 138.301 93.948 137.755C93.4022 137.209 92.6659 136.897 91.8942 136.883C91.1224 136.87 90.3756 137.156 89.8109 137.682Z" fill="black"/>
</svg>
