<svg width="164" height="144" viewBox="0 0 164 144" fill="none" xmlns="http://www.w3.org/2000/svg">
<path fill-rule="evenodd" clip-rule="evenodd" d="M159.45 65.0198C157.732 79.4737 150.176 91.4317 141.08 102.797C129.067 117.806 118.837 138.25 99.6647 139.717C79.5217 141.259 64.652 123.304 49.633 109.795C31.4645 93.4532 0.728143 78.8909 5.36765 54.902C10.0878 30.4961 44.7502 29.1676 67.2656 18.6239C80.7103 12.3278 93.5625 6.20821 108.402 6.65164C123.917 7.11523 140.575 9.43753 150.793 21.1197C161.001 32.7921 161.281 49.6231 159.45 65.0198Z" fill="#71C67D"/>
<path d="M119.869 97.7435C119.861 101.629 118.301 105.353 115.534 108.094C112.766 110.836 109.017 112.372 105.111 112.364C98.778 112.35 92.6699 108.245 90.5856 102.605C90.3163 101.875 90.3495 101.069 90.6778 100.363C91.0061 99.6576 91.6027 99.1108 92.3363 98.843C93.0698 98.5751 93.8803 98.6081 94.5895 98.9347C95.2986 99.2614 95.8482 99.8549 96.1175 100.585C97.3378 103.894 101.294 106.495 105.123 106.503C107.467 106.508 109.716 105.587 111.377 103.942C113.037 102.296 113.973 100.063 113.978 97.7311C113.983 95.3996 113.057 93.1617 111.403 91.5097C109.749 89.8576 107.504 88.9267 105.16 88.9218L50.1784 88.8061C49.3972 88.8044 48.6487 88.4941 48.0974 87.9435C47.5462 87.3928 47.2375 86.6468 47.2391 85.8697C47.2407 85.0925 47.5526 84.3478 48.1062 83.7995C48.6597 83.2511 49.4095 82.944 50.1907 82.9456L105.172 83.0613C109.078 83.0696 112.821 84.621 115.577 87.3745C118.333 90.1279 119.877 93.8577 119.869 97.7435ZM104.275 43.0129C104.283 39.1271 102.739 35.3973 99.9832 32.6439C97.2271 29.8904 93.4844 28.3389 89.5785 28.3307C83.2458 28.3174 77.1204 32.3971 75.0124 38.0285C74.7401 38.7571 74.7698 39.5636 75.0952 40.2704C75.4205 40.9772 76.0148 41.5265 76.7472 41.7975C77.4796 42.0684 78.2903 42.0388 79.0008 41.7152C79.7113 41.3915 80.2634 40.8004 80.5357 40.0717C81.77 36.768 85.7371 34.1831 89.5661 34.1912C91.9097 34.1961 94.1553 35.127 95.809 36.7791C97.4626 38.4311 98.3889 40.669 98.384 43.0005C98.3791 45.3319 97.4434 47.5659 95.7828 49.211C94.1222 50.856 91.8727 51.7775 89.5291 51.7725L42.402 51.6733C41.6208 51.6717 40.871 51.9788 40.3174 52.5272C39.7639 53.0756 39.452 53.8202 39.4504 54.5974C39.4487 55.3745 39.7575 56.1205 40.3087 56.6712C40.8599 57.2219 41.6085 57.5322 42.3896 57.5338L89.5168 57.633C93.4227 57.6412 97.1719 56.1055 99.9396 53.3637C102.707 50.6219 104.267 46.8986 104.275 43.0129ZM132.745 44.0495C126.413 44.0362 120.287 48.1159 118.179 53.7473C118.045 54.108 117.982 54.4917 117.997 54.8764C118.011 55.2611 118.101 55.6392 118.262 55.9892C118.423 56.3392 118.652 56.6542 118.936 56.9162C119.219 57.1782 119.552 57.3821 119.914 57.5163C120.277 57.6504 120.663 57.7122 121.049 57.6981C121.436 57.684 121.816 57.5942 122.168 57.434C122.52 57.2737 122.836 57.0461 123.1 56.7641C123.363 56.4821 123.568 56.1513 123.703 55.7905C124.937 52.4868 128.904 49.9019 132.733 49.91C135.077 49.9149 137.322 50.8458 138.976 52.4979C140.63 54.1499 141.556 56.3878 141.551 58.7192C141.546 61.0507 140.61 63.2847 138.95 64.9298C137.289 66.5748 135.04 67.4963 132.696 67.4913L46.2963 67.3095C45.5152 67.3078 44.7653 67.615 44.2118 68.1633C43.6583 68.7117 43.3464 69.4564 43.3447 70.2335C43.3431 71.0107 43.6518 71.7566 44.2031 72.3073C44.7543 72.858 45.5028 73.1683 46.284 73.1699L132.684 73.3518C136.59 73.36 140.339 71.8243 143.107 69.0825C145.874 66.3407 147.434 62.6174 147.442 58.7316C147.45 54.8459 145.906 51.1161 143.15 48.3627C140.394 45.6092 136.651 44.0577 132.745 44.0495Z" fill="#012B36"/>
</svg>
