<svg width="448" height="825" viewBox="0 0 448 825" fill="none" xmlns="http://www.w3.org/2000/svg">
<path d="M445.839 574.549C441.964 542.608 431.125 512.435 413.955 486.684C382.08 438.896 329.908 407.815 267.028 399.168C255.499 397.581 243.876 396.806 232.271 396.806C174.022 396.806 116.501 416.32 76.2539 450.888C41.261 480.957 22.9188 518.53 13.3461 550.943C1.90228 589.612 2.93228 620.891 3.02677 623.234C3.24412 628.3 3.73549 634.858 4.77498 642.531C7.43039 662.225 13.7524 689.204 28.447 716.798C37.7646 734.289 50.4274 752.017 67.6545 768.3C67.7112 768.347 67.7584 768.403 67.8151 768.451C85.4675 785.101 105.397 798.076 127.491 807.309C141.108 813.035 155.557 817.335 170.809 820.189C186.128 823.08 202.24 824.536 219.127 824.536C220.582 824.536 222.028 824.536 223.483 824.507C237.45 824.3 260.829 822.617 287.506 815.19C299.592 811.816 312.359 807.271 325.249 801.128C340.491 793.89 355.885 784.431 370.504 772.089C377.828 765.928 384.944 759.029 391.738 751.337C397.928 744.325 403.664 736.888 408.909 729.045C422.762 708.397 433.204 685.131 439.706 660.533C442.947 648.352 445.196 635.841 446.425 623.159C448.012 606.726 447.785 590.406 445.848 574.53L445.839 574.549ZM373.027 734.828C322.461 792.038 251.341 799.172 223.114 799.569C166.897 800.391 120.328 783.778 84.7777 750.175C42.3572 710.098 31.3953 659.768 28.6832 632.316C28.3052 628.47 28.0784 625.068 27.965 622.204C27.9367 621.694 27.0295 594.044 36.9613 559.58C45.3528 530.437 61.512 496.436 92.5171 469.825C135.523 432.895 201.096 415.28 263.654 423.88C319.352 431.544 365.354 458.759 393.203 500.518C409.447 524.88 418.84 553.258 421.637 582.619C423.716 604.287 422.214 626.495 417.224 648.031C409.901 679.697 395.064 709.909 373.046 734.828H373.027Z" fill="#282633"/>
<path d="M109.357 548.675C119.431 560.487 143.055 584.943 181.922 598.296C196.721 603.38 230.722 614.541 271.772 602.946C318.473 589.753 343.572 555.791 350.886 545.018" stroke="#282633" stroke-width="25" stroke-miterlimit="10" stroke-linecap="round"/>
<path d="M248.525 531.996C249.499 528.887 253.345 517.982 264.6 511.234C267.104 509.732 275.334 504.79 285.295 506.406C297.135 508.324 307.039 518.794 310.583 532.761" stroke="#282633" stroke-width="25" stroke-miterlimit="10" stroke-linecap="round"/>
<path d="M148.536 531.514C151.702 517.982 164.147 508.541 178.001 509.137C191.788 509.732 203.345 520.117 205.406 533.791" stroke="#282633" stroke-width="25" stroke-miterlimit="10" stroke-linecap="round"/>
<path d="M442.9 574.549C439.025 542.608 428.186 512.435 411.016 486.684C379.141 438.896 326.969 407.815 264.089 399.168C252.56 397.581 240.937 396.806 229.333 396.806C171.083 396.806 113.562 416.32 73.315 450.888C38.3221 480.957 19.9799 518.53 10.4071 550.943C-1.03667 589.612 -0.00655738 620.891 0.0879414 623.234C0.305289 628.3 0.796659 634.858 1.83615 642.531C4.49156 662.225 10.8136 689.204 25.5081 716.798C34.8257 734.289 47.4885 752.017 64.7157 768.3C64.7724 768.347 64.8196 768.403 64.8762 768.451C82.5286 785.101 102.458 798.076 124.552 807.309C138.17 813.035 152.618 817.335 167.87 820.189C183.189 823.08 199.301 824.536 216.188 824.536C217.643 824.536 219.089 824.536 220.544 824.507C234.511 824.3 257.89 822.617 284.567 815.19C296.653 811.816 309.42 807.271 322.31 801.128C337.553 793.89 352.946 784.431 367.565 772.089C374.889 765.928 382.005 759.029 388.799 751.337C394.989 744.325 400.725 736.888 405.97 729.045C419.823 708.397 430.265 685.131 436.767 660.533C440.008 648.352 442.257 635.841 443.486 623.159C445.073 606.726 444.846 590.406 442.909 574.53L442.9 574.549ZM370.088 734.828C319.522 792.038 248.402 799.172 220.176 799.569C163.958 800.391 117.389 783.778 81.8389 750.175C39.4183 710.098 28.4565 659.768 25.7444 632.316C25.3664 628.47 25.1396 625.068 25.0262 622.204C24.9978 621.694 24.0907 594.044 34.0225 559.58C42.414 530.437 58.5732 496.436 89.5782 469.825C132.585 432.895 198.157 415.28 260.716 423.88C316.413 431.544 362.415 458.759 390.264 500.518C406.508 524.88 415.901 553.258 418.699 582.619C420.778 604.287 419.275 626.495 414.286 648.031C406.962 679.697 392.126 709.909 370.107 734.828H370.088Z" fill="#282633"/>
<path d="M106.456 548.193C116.529 560.005 140.154 584.462 179.021 597.814C193.82 602.898 227.821 614.059 268.871 602.464C315.572 589.272 340.671 555.309 347.985 544.536" stroke="#282633" stroke-width="25" stroke-miterlimit="10" stroke-linecap="round"/>
<path d="M245.634 531.514C246.607 528.405 250.453 517.5 261.708 510.752C264.212 509.25 272.443 504.308 282.403 505.924C294.244 507.842 304.147 518.312 307.691 532.279" stroke="#282633" stroke-width="25" stroke-miterlimit="10" stroke-linecap="round"/>
<path d="M145.635 531.032C148.801 517.5 161.246 508.059 175.1 508.655C188.887 509.25 200.444 519.635 202.504 533.309" stroke="#282633" stroke-width="25" stroke-miterlimit="10" stroke-linecap="round"/>
<path d="M278.132 331.583C274.739 308.298 256.227 280.676 227.641 279.382C201.966 278.219 181.734 298.896 174.571 319.298C166.481 342.327 171.925 373.88 196.664 388.745C217.048 400.983 244.122 398.053 261.5 382.262C282.28 363.372 278.718 335.58 278.132 331.583Z" fill="#4AA16E"/>
<path d="M201.144 167.779L182.669 245.353C181.318 251.023 184.861 256.711 190.541 258.006L272.698 276.679C278.425 277.983 284.095 274.326 285.285 268.58L302.031 187.68C303.221 181.944 299.479 176.359 293.734 175.263L213.315 159.916C207.806 158.867 202.448 162.335 201.153 167.788L201.144 167.779Z" stroke="#282633" stroke-width="17" stroke-miterlimit="10" stroke-linecap="round"/>
<path d="M271.101 0.23225L153.053 29.8387C148.035 31.0956 145.966 37.0962 149.131 41.1786L232.413 148.652C236.07 153.377 243.555 151.808 245.029 146.025L279.804 8.93559C281.137 3.68146 276.374 -1.10018 271.11 0.2228L271.101 0.23225Z" fill="#4AA16E"/>
</svg>
