<svg width="559" height="583" viewBox="0 0 559 583" fill="none" xmlns="http://www.w3.org/2000/svg">
<path d="M129.27 374.16C125.4 370.51 121.79 366.77 118.4 362.98C107.45 350.74 98.91 337.89 92.26 325.19C90.04 329.33 87.3601 333.22 84.8601 337.21C82.3601 341.4 79.9099 345.72 77.7399 350.16C85.6899 363.01 95.49 375.8 107.58 387.91C111 388.36 114.44 388.72 117.9 388.99C127.89 389.8 138 389.98 148.13 389.78C141.55 385.03 135.26 379.82 129.27 374.16ZM477.17 95.49C443.59 45.13 388.6 12.38 322.33 3.26997C249.14 -6.80003 172.06 14.09 121.17 57.79C88.1299 86.16 64.33 125.92 52.34 172.79C42.88 209.75 43.9499 238.26 43.9999 239.46C44.3099 246.94 45.1899 257.53 47.4599 270.08C51.5199 292.65 60.0399 321.56 77.7399 350.16C85.6899 363.01 95.49 375.8 107.58 387.91C109.05 389.41 110.56 390.87 112.1 392.33C113.95 394.08 115.83 395.79 117.73 397.47C137.29 414.7 159.37 427.85 183.83 436.87C210.39 446.67 239.76 451.6 271.78 451.6C273.3 451.6 274.83 451.59 276.37 451.57C277.59 451.55 278.88 451.52 280.24 451.48C297.51 450.95 325.31 448.24 355.97 438.03C381.04 429.7 408.03 416.36 432.77 395.11C437.2 391.3 441.56 387.25 445.82 382.92C448.49 380.2 451.13 377.38 453.73 374.44C462.03 365.06 469.55 354.91 476.21 344.16C490.2 321.64 500.47 296.46 506.46 269.99C508.73 259.93 510.38 249.68 511.38 239.33C516.41 187.2 504.26 136.12 477.17 95.49ZM458.98 324.24C452.11 336.32 444.07 347.61 435 357.88C434.99 357.89 434.98 357.91 434.96 357.92C423.62 370.75 411.3 381.2 398.64 389.7C370.89 408.39 341.53 417.73 317.24 422.32C300.24 425.54 285.73 426.43 276.01 426.57C274.61 426.59 273.22 426.6 271.83 426.6C256.81 426.6 242.44 425.41 228.77 423.03C198.42 417.75 171.47 406.65 148.14 389.78C141.56 385.03 135.27 379.82 129.28 374.16C125.41 370.51 121.8 366.77 118.41 362.98C107.46 350.74 98.92 337.89 92.27 325.19C81.81 305.27 75.99 285.7 72.76 269.39C70.23 256.59 69.2999 245.8 68.9899 238.41C68.9499 237.42 65.6599 138.41 137.47 76.75C183.09 37.58 252.62 18.92 318.94 28.03C378.02 36.16 426.83 65.04 456.38 109.35C480.28 145.21 490.98 190.52 486.5 236.93C485.58 246.5 484.03 255.97 481.9 265.25C477.12 286.12 469.36 306.06 458.99 324.24H458.98ZM129.27 374.16C125.4 370.51 121.79 366.77 118.4 362.98C107.45 350.74 98.91 337.89 92.26 325.19C90.04 329.33 87.3601 333.22 84.8601 337.21C82.3601 341.4 79.9099 345.72 77.7399 350.16C85.6899 363.01 95.49 375.8 107.58 387.91C111 388.36 114.44 388.72 117.9 388.99C127.89 389.8 138 389.98 148.13 389.78C141.55 385.03 135.26 379.82 129.27 374.16Z" fill="#282633"/>
<path d="M131 279.45C158.82 289.29 235.45 316.7 269.95 332.21C277.12 335.43 285.27 335.66 292.59 332.79C319.25 322.33 385.49 297.13 430.71 286.43C435.88 285.21 440.77 289.3 440.46 294.61L427.13 520.43C426.92 523.98 424.38 526.96 420.9 527.71C402.29 531.71 342.08 546.44 277.73 581.12C273.39 583.46 268.18 583.52 263.8 581.26C240.96 569.45 167.53 532.56 122.28 522.45C118.59 521.63 115.98 518.34 116.05 514.56L120.43 286.8C120.53 281.39 125.89 277.67 130.99 279.48L131 279.45Z" fill="#4AA16E"/>
<path d="M279.38 349.17C278.5 367.94 277.63 386.71 276.75 405.47C276.5 410.84 276.25 416.22 276 421.59C275.89 423.94 278.15 426.2 280.5 426.09C283.03 425.98 284.88 424.11 285 421.59C285.88 402.82 286.75 384.05 287.63 365.29C287.88 359.92 288.13 354.54 288.38 349.17C288.49 346.82 286.23 344.56 283.88 344.67C281.35 344.78 279.5 346.65 279.38 349.17Z" fill="#292633"/>
<path d="M275.3 474.81C276.12 485.45 276.38 496.12 276.05 506.78C275.89 512.11 275.58 517.44 275.13 522.75C274.91 525.33 274.66 527.9 274.38 530.47C274.24 531.75 274.09 533.04 273.93 534.32C273.85 534.96 273.77 535.6 273.69 536.24C273.57 537.18 273.63 536.69 273.66 536.49C273.6 536.97 273.53 537.45 273.46 537.93C272.63 543.85 271.61 549.75 270.43 555.61C269.96 557.91 271.09 560.58 273.57 561.15C275.81 561.66 278.61 560.47 279.11 558.01C283.42 536.71 285.5 514.95 285.16 493.22C285.07 487.08 284.78 480.94 284.31 474.82C284.13 472.48 282.37 470.21 279.81 470.32C277.53 470.42 275.12 472.31 275.31 474.82L275.3 474.81Z" fill="#292633"/>
<path d="M143.65 276.62C144.84 276.56 146.04 276.62 147.22 276.74C147.55 276.77 147.88 276.82 148.21 276.86C146.4 276.68 147.8 276.81 148.23 276.87C149.04 277 149.85 277.14 150.66 277.3C154.39 278.04 158.07 279.05 161.71 280.14C170.82 282.87 179.76 286.18 188.62 289.63C193.29 291.45 197.94 293.33 202.57 295.26C203.68 295.72 204.79 296.19 205.9 296.65C206.17 296.77 206.45 296.87 206.72 297C205.55 296.48 206.5 296.91 206.74 297C207.37 297.27 208 297.54 208.63 297.8C210.81 298.73 212.99 299.67 215.16 300.61C221.96 303.57 228.74 306.6 235.45 309.78C241.3 312.55 247.14 315.33 253.1 317.88C261.61 321.52 270.22 324.92 278.83 328.3C281.03 329.16 283.86 327.36 284.37 325.16C284.96 322.57 283.58 320.55 281.23 319.62C277.48 318.15 273.73 316.68 269.98 315.18C268.18 314.46 266.39 313.74 264.6 313.01C263.7 312.64 262.81 312.28 261.92 311.91C261.47 311.73 261.03 311.54 260.58 311.35C260.28 311.23 259.99 311.1 259.69 310.98C259.18 310.77 259.1 310.73 259.43 310.87C253.29 308.28 247.25 305.49 241.24 302.61C234.87 299.56 228.42 296.67 221.96 293.83C203.85 285.88 185.48 278.14 166.59 272.22C162.39 270.9 158.15 269.68 153.84 268.78C150.53 268.09 147.05 267.43 143.65 267.62C141.3 267.75 139.04 269.6 139.15 272.12C139.25 274.45 141.13 276.76 143.65 276.62Z" fill="#292633"/>
<path d="M282.67 328.5C301.68 323.1 320.71 317.69 339.27 310.88C348.46 307.51 357.48 303.71 366.41 299.69C370.63 297.79 374.85 295.86 379.09 294.01C380.12 293.56 381.14 293.12 382.17 292.68C382.17 292.68 382.86 292.39 382.46 292.56C382.01 292.75 382.86 292.39 382.95 292.35C383.57 292.09 384.19 291.84 384.81 291.58C386.87 290.74 388.95 289.93 391.04 289.16C395.87 287.38 400.79 285.82 405.81 284.65C408.23 284.08 410.68 283.61 413.14 283.24C413.43 283.2 413.72 283.15 414.01 283.12C413.35 283.21 414.05 283.12 414.34 283.09C415 283.01 415.65 282.94 416.31 282.88C417.63 282.76 418.96 282.67 420.29 282.61C422.64 282.51 424.9 280.61 424.79 278.11C424.68 275.76 422.81 273.5 420.29 273.61C401.17 274.44 383.54 282.11 366.35 289.88C362.14 291.78 357.94 293.7 353.7 295.53C353.14 295.77 352.58 296.01 352.02 296.25C351.54 296.45 351.9 296.3 351.99 296.26C351.7 296.38 351.4 296.51 351.11 296.63C349.93 297.12 348.75 297.6 347.57 298.08C345.28 299 342.98 299.9 340.67 300.78C331.36 304.31 321.91 307.46 312.4 310.41C301.74 313.72 291 316.77 280.27 319.82C278.01 320.46 276.37 323.03 277.13 325.36C277.89 327.69 280.24 329.19 282.67 328.5Z" fill="#292633"/>
<path d="M228.76 423.03C227.57 423.73 226.27 424.35 224.85 424.88C213.1 428.87 199.07 433.12 183.83 436.87C162.84 442.02 139.56 446.2 116.77 447.38C77.66 449.4 40.0099 442.58 17.9199 416.64C-3.84013 390.39 -1.93997 357.4 8.58003 327.51C12.39 317.04 17.22 306.44 22.53 296.67C27.34 287.15 33.6201 278.11 42.8701 272.45C44.3601 271.53 45.8899 270.74 47.4599 270.08C55.6399 266.6 64.6599 266.6 72.7499 269.39C75.9799 285.7 81.8 305.27 92.26 325.19C90.04 329.33 87.3601 333.22 84.8601 337.21C82.3601 341.4 79.9099 345.72 77.7399 350.16C75.7699 354.17 74.0299 358.28 72.6699 362.48C71.5499 365.88 70.81 369.58 70.58 373.11C70.61 373.49 70.4599 373.87 70.4199 374.13C70.4799 374.21 70.4699 374.35 70.4499 374.46C70.5499 374.59 70.6001 374.73 70.6201 374.91C70.6701 375.04 70.8098 375.15 70.8798 375.29C70.9898 375.44 70.9999 375.61 71.1699 375.73C71.5199 376.05 71.7699 376.49 72.1799 376.75C77.1899 381.09 86.0398 383.89 93.6298 385.57C98.2298 386.54 102.89 387.31 107.58 387.91C111 388.36 114.44 388.72 117.9 388.99C127.89 389.8 138 389.98 148.13 389.78C158.44 389.59 168.76 389.02 178.96 388.36C190.91 387.55 203.8 386.14 215.73 384.74C238.87 382.64 246.97 412.3 228.76 423.03Z" fill="#282633"/>
<path d="M529.91 418.75C504.95 436.72 467.49 442.77 429.93 443.17C403.95 443.46 377.93 441.05 355.97 438.03C351.24 437.38 346.69 436.7 342.38 436.02C339.95 435.6 334.8 434.71 332.35 434.22C324.59 432.53 319.61 427.9 317.23 422.32C312 410.11 319.15 393.39 336.45 393.14C351.76 392.73 374.76 391.94 398.63 389.7C410.26 388.62 422.09 387.19 433.34 385.28C437.59 384.56 441.76 383.78 445.81 382.92C463.13 379.24 478.14 374.22 487.51 367.32C488.22 366.82 488.71 366.23 489.34 365.67C489.6 365.26 490.03 364.88 490.19 364.44C490.43 364.19 490.31 364.03 490.37 363.93C490.45 363.88 490.28 363.86 490.27 363.86C490.2 363.86 490.26 363.86 490.15 363.9C489.94 363.95 489.97 364.1 489.74 364.23C489.66 364.3 489.66 364.41 489.6 364.47C489.46 364.54 489.4 364.65 489.38 364.77C489.31 364.78 489.19 364.8 489.19 364.86C488.93 364.85 488.54 363.04 487.19 360.31C485.95 357.59 483.62 354.01 481 350.35C479.55 348.3 477.9 346.2 476.2 344.16C474.69 342.34 473.14 340.56 471.65 338.88C468.02 334.82 463.94 331.21 460.72 326.75C460.12 325.94 459.54 325.11 458.97 324.25C469.34 306.06 477.1 286.12 481.88 265.25C485.89 264.55 490.14 264.53 494.5 265.32C498.75 266.22 502.75 267.84 506.45 269.99C510.67 272.42 514.53 275.53 517.96 278.99C521.84 282.92 525.16 287.28 528.65 291.58C540.74 307.15 551.45 324.4 556.4 343.66C563.83 372.86 554.53 401.03 529.9 418.75H529.91Z" fill="#282633"/>
<path d="M329.84 202.11C336.48 201.24 342.97 195.53 342.77 188.87C342.54 181.1 333.28 175.06 325.22 176.63C318.68 177.9 312.37 184.29 313.43 191.46C314.53 198.89 322.95 203.02 329.84 202.12V202.11Z" fill="#282633"/>
<path d="M236.26 176.98C229.37 178.16 222.9 184.4 223.45 191.35C224.09 199.47 234.06 205.43 242.39 203.47C249.15 201.88 255.41 194.93 253.93 187.48C252.4 179.75 243.41 175.76 236.26 176.98Z" fill="#282633"/>
<path d="M110.31 22.79C103.39 50 71.1199 74.31 78.6999 104.56C82.4699 119.59 97.4299 132.37 113.2 125.45C128.91 118.55 135.67 98.41 135.69 82.52C135.72 60.23 123.23 40.47 111.25 22.6" fill="white"/>
<path d="M103.08 20.8C102.38 23.5 101.46 26.13 100.39 28.7L101.15 26.91C95.0299 41.35 84.77 53.54 77.72 67.49C73.84 75.18 71 83.16 70.22 91.77C69.44 100.38 71.44 109.79 75.98 117.35C80.52 124.91 88.4601 132.01 97.6101 134.08C102.56 135.2 107.81 135.14 112.67 133.62C117.53 132.1 121.63 129.61 125.45 126.41C132.09 120.87 136.47 112.97 139.36 104.94C142.08 97.36 143.37 89.04 143.17 80.99C142.67 60.34 132.71 41.69 121.69 24.79C120.38 22.78 119.05 20.79 117.72 18.8C115.54 15.55 111.01 13.82 107.46 16.11C104.22 18.2 102.43 22.89 104.77 26.37C111.58 36.54 118.27 46.88 123.05 58.19L122.29 56.4C124.97 62.81 126.98 69.47 127.92 76.37L127.65 74.38C128.34 79.75 128.34 85.15 127.63 90.52L127.9 88.53C127.18 93.78 125.83 98.93 123.78 103.82L124.54 102.03C123.65 104.1 122.65 106.11 121.49 108.04C120.92 108.99 120.31 109.92 119.66 110.83C119.57 110.96 119.22 111.57 119.07 111.63C119.11 111.61 120.28 110.12 119.63 110.9C119.25 111.37 118.87 111.83 118.47 112.29C117.75 113.11 116.99 113.89 116.19 114.64C115.79 115.01 115.39 115.37 114.97 115.72C114.76 115.9 114.55 116.07 114.34 116.24C113.44 116.98 115.68 115.28 114.95 115.76C113.04 117.04 111.17 118.23 109.05 119.14L110.84 118.38C109 119.14 107.1 119.68 105.13 119.96L107.12 119.69C105.28 119.93 103.44 119.94 101.6 119.71L103.59 119.98C101.57 119.7 99.63 119.16 97.75 118.38L99.54 119.14C97.87 118.42 96.2901 117.53 94.8101 116.48C93.3301 115.43 95.92 117.42 94.96 116.61C94.61 116.31 94.2499 116.02 93.8999 115.72C93.1999 115.1 92.5399 114.45 91.8999 113.77C91.2599 113.09 90.6801 112.35 90.0701 111.63C91.6901 113.55 90.53 112.22 90.19 111.73C89.92 111.34 89.6599 110.95 89.3999 110.55C88.3799 108.95 87.5 107.26 86.75 105.51L87.51 107.3C86.34 104.48 85.5699 101.54 85.1399 98.52L85.4099 100.51C84.9399 97.02 84.9599 93.5 85.4099 90.01L85.1399 92C85.7799 87.33 87.18 82.82 89 78.48L88.24 80.27C94.56 65.37 105.24 52.89 112.31 38.39C114.44 34.03 116.32 29.49 117.54 24.79C118.52 21 116.3 16.47 112.3 15.56C108.3 14.65 104.12 16.73 103.07 20.8H103.08Z" fill="#282633"/>
<path d="M387.93 248.14C362.47 248.14 362.47 238.14 337 238.14C311.53 238.14 311.54 248.14 286.07 248.14C260.6 248.14 260.6 238.14 235.14 238.14C209.68 238.14 209.67 248.14 184.21 248.14" stroke="#282633" stroke-width="25" stroke-miterlimit="10" stroke-linecap="round"/>
</svg>
