<svg width="837" height="452" viewBox="0 0 837 452" fill="none" xmlns="http://www.w3.org/2000/svg">
<path d="M629.12 94.9501C595.54 44.59 540.55 11.8401 474.28 2.73005C401.09 -7.33995 324.01 13.55 273.12 57.25C240.08 85.62 216.28 125.38 204.29 172.25C194.83 209.21 195.9 237.72 195.95 238.92C196.31 247.57 197.43 260.38 200.57 275.57C205.7 300.41 216.21 331.62 237.58 361.46C245.01 371.84 253.76 382.06 264.05 391.79C305.68 431.14 359.38 451.06 423.73 451.06C425.25 451.06 426.78 451.05 428.32 451.03C461.57 450.55 545.43 442.06 605.68 373.9C610.73 368.18 615.5 362.19 619.96 355.94C636.71 332.49 649.18 305.56 656.59 276.93C659.82 264.49 662.08 251.72 663.33 238.79C668.36 186.66 656.21 135.58 629.12 94.9501ZM605.8 332.22C600.16 341.12 593.86 349.53 586.95 357.34C533.3 418.03 457.89 425.6 427.95 426.03C426.55 426.05 425.16 426.06 423.77 426.06C366 426.06 318.05 408.43 281.22 373.62C268.02 361.15 257.69 347.74 249.62 334.28C236.05 311.7 228.83 288.99 225 270.33C222.24 256.88 221.25 245.54 220.93 237.87C220.89 236.88 217.6 137.87 289.41 76.21C335.03 37.04 404.56 18.38 470.88 27.49C529.96 35.62 578.77 64.5 608.32 108.81C632.22 144.67 642.92 189.98 638.44 236.39C637.37 247.46 635.47 258.39 632.8 269.06C627.14 291.64 617.99 313.06 605.8 332.22Z" fill="#282633"/>
<path d="M225 270.32C216.82 269.1 208.17 270.62 200.57 275.56C199.29 276.39 198.04 277.31 196.83 278.34C191.02 282.81 186.88 289.22 184.04 295.75C181.67 301.14 180.5 306.87 178.7 312.36C177.01 317.77 175.17 322.96 173.21 327.67C171.04 332.93 168.42 338.52 165.31 342.94C162.7 341.06 160.19 338.54 157.35 335.74C153.86 332.13 150.33 327.9 146.9 323.37C135.98 308.98 126.78 293.45 117.82 277.27C107.09 257.72 97.0303 237.2 87.5903 216.76C86.4003 214.18 85.2202 211.6 84.0502 209.03C79.9102 199.83 71.9902 196.03 64.3002 196.38C63.9002 196.4 63.5003 196.43 63.1003 196.47C59.9603 196.79 56.9001 197.79 54.1801 199.4C51.8501 200.77 49.7801 202.59 48.1401 204.79C45.7701 207.97 44.3002 211.97 44.2602 216.61C44.2402 218.22 44.3902 219.89 44.7402 221.64C56.8202 273.22 80.4203 346.76 116.37 386.53C144.85 418.24 185.3 423.38 216.13 391.96C224.95 382.87 231.84 372.44 237.58 361.45C241.69 353.59 245.21 345.45 248.44 337.29C248.83 336.29 249.23 335.28 249.62 334.27C236.05 311.69 228.83 288.98 225 270.32ZM170.13 345.55C169.51 345.33 168.91 345.08 168.33 344.78C169.21 344.85 170 345.06 170.54 345.49C170.55 345.53 170.44 345.65 170.13 345.55Z" fill="#282633"/>
<path d="M785.49 216.63C785.32 212.1 783.97 208.29 781.86 205.25C780.23 202.89 778.13 200.99 775.77 199.56C772.82 197.79 769.45 196.77 766.02 196.56C765.76 196.54 765.5 196.53 765.23 196.52C756.44 196.28 747.49 201.33 744.62 212.48C744.42 213.37 744.18 214.4 743.92 215.53C742.78 220.5 741.18 227.3 740.23 231.17C735.91 249.1 730.96 267.26 725.39 284.64C719.89 301.39 714.1 317.52 705.81 332.36C703.6 336.3 701.25 339.88 699.03 342.6C698.95 342.51 698.86 342.42 698.77 342.32C689.27 332.02 681.5 317.33 675.01 304.22C674.05 302.26 672.2 298.31 671.28 296.33C668.02 288.82 663.03 281.9 656.59 276.93C651.87 273.27 646.36 270.66 640.17 269.64C637.7 269.18 635.23 268.99 632.8 269.06C627.14 291.64 617.99 313.06 605.8 332.22C606.24 333.02 606.68 333.81 607.1 334.59C611.23 341.89 615.37 348.93 619.96 355.94C624.29 362.56 629.02 369.15 634.51 375.89C647.45 391.43 662.25 405.3 683.08 410.8C704.45 416.53 726.64 408.52 741.14 392.55C776.28 354.72 784.48 267.55 785.52 217.47C785.52 217.19 785.52 216.9 785.49 216.63ZM694.06 347.19C693.95 347.26 693.91 347.18 693.86 347.2C693.86 347.12 693.85 347.13 693.93 347.01C694.42 346.49 695.19 346.11 696.04 345.82C695.41 346.4 694.79 346.86 694.06 347.19Z" fill="#282633"/>
<path d="M351.56 177.23C443.75 207.97 508.78 177.23 508.78 177.23" stroke="#282633" stroke-width="25" stroke-miterlimit="10" stroke-linecap="round"/>
<path d="M411.97 123.44C403.82 132.55 391.28 139.68 379.17 139.54C367.06 139.4 349.21 129.15 346.37 122.85" stroke="#282633" stroke-width="25" stroke-miterlimit="10" stroke-linecap="round"/>
<path d="M517.68 123.59C515.44 129.25 501 137.48 486.35 136.9C471.77 136.32 460.52 129.25 457.55 121.38" stroke="#282633" stroke-width="25" stroke-miterlimit="10" stroke-linecap="round"/>
<path d="M82.6699 154.92C75.2199 158.11 66.7499 158.64 59.1699 160.45C53.2899 161.98 44.4801 162.38 43.5801 169.18C42.6801 180.79 51.99 195.23 57.73 205.74C59.41 208.71 55.6101 211.77 53.0701 209.5C41.9601 199.25 28.8301 185.19 27.8001 168.89C26.9501 152.65 42.63 142.92 56.95 142.28C64.11 142.07 70.8799 142.82 77.4099 145.45C79.6399 146.39 81.6599 147.48 83.6499 149C85.7899 150.57 85.1699 154.1 82.6799 154.92H82.6699Z" fill="#282633"/>
<path d="M85.1203 149.68C91.2103 149.03 94.6603 151.75 98.5703 155.35C102 158.47 105.2 161.96 107.96 166.06C117.41 179.67 119.54 197.25 105.03 208.41C91.2202 218.69 71.6602 220.39 55.2602 221.75L50.4101 222.08C49.0201 220.89 45.1503 217.41 43.8703 216.26C20.1903 193.28 3.9802 162.03 0.740199 128.98C0.190199 123.32 0.140141 117.62 0.430141 111.97C0.530141 107.5 1.87021 103.17 4.75021 99.6C10.0902 93.16 13.5902 93.97 17.7902 100.7C19.9202 104 21.1501 107.81 21.4101 111.48C21.9301 116.11 22.8702 120.69 23.9602 125.21C30.8502 152.26 46.6501 176.28 64.9201 197.09C64.9801 197.16 65.1003 197.29 65.0603 197.27L55.5102 193.44C63.4702 194.16 71.4402 194.53 78.7602 193.89C83.7902 193.42 93.7001 192.04 95.4001 187.83C96.5701 181.49 87.7603 170.03 84.0603 164.2C81.9703 161.18 81.0401 158.67 81.1901 154.23C81.1301 151.92 82.8403 149.9 85.1103 149.69L85.1203 149.68Z" fill="#282633"/>
<path d="M750.54 147.2C754.58 144.66 759.12 143.35 763.78 142.76C776.2 141.26 790.05 143.67 799.01 153.81C815.72 174.37 791.59 198.27 775.72 210.14C772.99 212.18 769.47 208.77 771.4 205.99C778.03 196.03 788.56 182.46 788.69 170.81C788.4 163.96 779.64 162.78 773.92 160.75C766.52 158.28 758.14 157.02 750.99 153.19C748.56 152.15 748.28 148.58 750.54 147.21V147.2Z" fill="#282633"/>
<path d="M752.52 152.63C752.37 158.18 750.01 160.96 746.92 164.62C743.6 169.1 732.35 181.64 736.21 186.37C739.24 189.51 746.26 191.49 751.48 192.35C758.72 193.63 766.69 193.95 774.68 193.93L764.83 196.91C764.83 196.91 765.19 196.56 765.26 196.49C785.16 177.41 802.89 154.93 812.07 128.71C813.55 124.3 814.88 119.82 815.81 115.25C816.69 109.84 819.5 104.89 823.86 101.09C826.03 99.16 829.19 99.81 830.96 101.86L831.9 102.85C835.51 106.91 837.05 112.28 836.68 117.58C836.48 123.24 835.93 128.91 834.89 134.5C828.35 169.68 806.42 202.42 777.28 222.91C771.23 221.95 765.02 221.02 758.99 219.66C744.26 216.23 725.61 211.17 717.87 196.37C709.38 178.51 723.73 159.77 737.95 150.21C741.36 147.22 752.89 145.01 752.53 152.63H752.52Z" fill="#282633"/>
</svg>
