<svg width="760" height="493" viewBox="0 0 760 493" fill="none" xmlns="http://www.w3.org/2000/svg">
<path d="M383.68 263.55C379.3 240.53 370.63 218.86 358.02 199.94C330.46 158.61 285.32 131.72 230.93 124.24C170.85 115.98 107.58 133.13 65.8099 168.99C32.9999 197.16 17.1099 232.98 9.43989 262.46C1.59989 292.67 2.37989 316.23 2.45989 318.12C2.71989 324.48 3.48989 333.59 5.50989 344.39C10.6699 372.19 24.0899 411.21 58.3599 443.6C72.7899 457.24 88.9999 468.04 106.88 475.95C117.52 480.67 128.75 484.37 140.55 487.02C155.88 490.5 172.19 492.24 189.42 492.24C190.67 492.24 191.93 492.24 193.19 492.22C205.16 492.05 225.14 490.61 247.98 484.32C259.69 481.09 272.14 476.59 284.66 470.33C295.77 464.77 306.92 457.83 317.63 449.16C324.93 443.25 332.03 436.54 338.76 428.91C339.49 428.08 340.22 427.24 340.95 426.4C340.95 426.4 340.95 426.39 340.96 426.39C363.45 399.94 378.62 366.59 384.39 331.03C385.1 326.72 385.66 322.37 386.08 318C387.87 299.47 387.02 281.11 383.65 263.53L383.68 263.55ZM323.48 415.4C279.42 465.25 217.47 471.45 192.89 471.81C143.92 472.51 103.35 458.04 72.3699 428.76C38.2699 396.53 27.4799 356.7 24.1599 331.95C23.3799 326.11 23.0199 321.12 22.8499 317.25C22.8399 316.82 22.0899 294.34 29.8399 265.75C36.8899 239.72 50.9899 208.62 79.1099 184.48C116.58 152.31 173.69 136.98 228.15 144.46C276.67 151.14 316.77 174.86 341.04 211.26C354.21 231.03 362.22 253.84 365.24 277.56C366.86 290.22 367.05 303.14 365.83 316C362.46 352.02 348.14 387.52 323.49 415.4H323.48Z" fill="#282633"/>
<path d="M219.94 236.21C220.34 233.41 222.09 223.53 230.76 216.16C232.69 214.52 239.04 209.12 247.8 209.09C258.21 209.06 268.18 216.62 273.19 228.07" stroke="#282633" stroke-width="19" stroke-miterlimit="10" stroke-linecap="round"/>
<path d="M134.24 249.97C135.03 237.94 144.36 228.08 156.3 226.63C168.19 225.19 179.56 232.44 183.26 243.86" stroke="#282633" stroke-width="19" stroke-miterlimit="10" stroke-linecap="round"/>
<path d="M758.13 146.27C754.96 120.13 746.09 95.4401 732.04 74.3701C705.96 35.2601 663.26 9.83006 611.8 2.75006C602.36 1.45006 592.85 0.820068 583.35 0.820068C535.68 0.820068 488.61 16.79 455.67 45.08C427.03 69.68 412.02 100.44 404.19 126.96C394.82 158.6 395.66 184.2 395.75 186.12C395.93 190.26 396.33 195.63 397.18 201.91C399.35 218.02 404.53 240.11 416.55 262.68C424.18 276.99 434.54 291.5 448.64 304.83C448.69 304.87 448.72 304.91 448.77 304.95C463.22 318.58 479.52 329.19 497.61 336.75C508.75 341.43 520.58 344.95 533.06 347.29C545.6 349.66 558.78 350.84 572.6 350.84C573.79 350.84 574.98 350.84 576.17 350.82C587.6 350.65 606.73 349.27 628.56 343.19C638.45 340.43 648.9 336.71 659.44 331.69C671.92 325.77 684.51 318.02 696.47 307.93C702.46 302.89 708.29 297.24 713.85 290.95C718.92 285.21 723.61 279.12 727.9 272.71C739.24 255.81 747.79 236.77 753.1 216.64C755.75 206.67 757.59 196.43 758.6 186.06C759.9 172.61 759.72 159.26 758.13 146.27ZM698.55 277.43C657.17 324.25 598.97 330.09 575.86 330.41C529.86 331.08 491.74 317.49 462.65 289.99C427.93 257.2 418.96 216.01 416.74 193.54C416.43 190.39 416.25 187.61 416.15 185.27C416.13 184.85 415.38 162.23 423.51 134.02C430.38 110.17 443.6 82.3501 468.97 60.5701C504.17 30.3501 557.83 15.9401 609.02 22.9701C654.6 29.2401 692.25 51.5101 715.04 85.6901C728.33 105.62 736.02 128.85 738.31 152.88C740.02 170.62 738.78 188.78 734.7 206.41C728.71 232.32 716.57 257.05 698.54 277.44L698.55 277.43Z" fill="#282633"/>
<path d="M467.9 140.94C477.61 149.13 499.95 165.72 533.11 171.3C545.73 173.43 574.68 177.89 606.27 163.05C642.22 146.16 657.94 115.38 662.41 105.71" stroke="#282633" stroke-width="19" stroke-miterlimit="10" stroke-linecap="round"/>
<path d="M578.04 108.88C578.41 106.24 580.06 96.9202 588.24 89.9702C590.06 88.4202 596.05 83.3402 604.3 83.3102C614.12 83.2802 623.51 90.4101 628.24 101.21" stroke="#282633" stroke-width="19" stroke-miterlimit="10" stroke-linecap="round"/>
<path d="M497.24 121.85C497.99 110.51 506.78 101.22 518.04 99.8502C529.25 98.4902 539.97 105.33 543.46 116.09" stroke="#282633" stroke-width="19" stroke-miterlimit="10" stroke-linecap="round"/>
<path d="M273.2 258.3C240.41 258.27 126.77 278.95 123.88 303.86C120.18 335.7 155.55 370.59 227.37 354.37C299.19 338.15 306 258.33 273.21 258.3H273.2Z" stroke="#282633" stroke-width="19" stroke-miterlimit="10" stroke-linecap="round"/>
<path d="M381.28 263.55C376.9 240.53 368.23 218.86 355.62 199.94C328.06 158.61 282.92 131.72 228.53 124.24C168.45 115.98 105.18 133.13 63.4099 168.99C30.5999 197.16 14.7099 232.98 7.03993 262.46C-0.81007 292.68 -0.0200697 316.24 0.0599303 318.12C0.31993 324.48 1.08993 333.59 3.10993 344.39C8.26993 372.19 21.6899 411.21 55.9599 443.6C70.3899 457.24 86.5999 468.04 104.48 475.95C115.12 480.67 126.35 484.37 138.15 487.02C153.48 490.5 169.79 492.24 187.02 492.24C188.27 492.24 189.53 492.24 190.79 492.22C202.76 492.05 222.74 490.61 245.58 484.32C257.29 481.09 269.74 476.59 282.26 470.33C293.37 464.77 304.52 457.83 315.23 449.16C322.53 443.25 329.63 436.54 336.36 428.91C337.09 428.08 337.82 427.24 338.55 426.4C338.55 426.4 338.55 426.39 338.56 426.39C361.05 399.94 376.22 366.59 381.99 331.03C382.7 326.72 383.26 322.37 383.68 318C385.47 299.47 384.62 281.11 381.25 263.53L381.28 263.55ZM321.08 415.4C277.02 465.25 215.07 471.45 190.49 471.81C141.52 472.51 100.95 458.04 69.9699 428.76C35.8699 396.53 25.0799 356.7 21.7599 331.95C20.9799 326.11 20.6199 321.12 20.4499 317.25C20.4399 316.82 19.6899 294.34 27.4399 265.75C34.4899 239.72 48.5899 208.62 76.7099 184.48C114.18 152.31 171.29 136.98 225.75 144.46C274.27 151.14 314.37 174.86 338.64 211.26C351.81 231.03 359.82 253.84 362.84 277.56C364.46 290.22 364.65 303.14 363.43 316C360.06 352.02 345.74 387.52 321.09 415.4H321.08Z" fill="#282633"/>
<path d="M217.54 236.21C217.94 233.41 219.69 223.53 228.36 216.16C230.29 214.52 236.64 209.12 245.4 209.09C255.81 209.06 265.78 216.62 270.79 228.07" stroke="#282633" stroke-width="19" stroke-miterlimit="10" stroke-linecap="round"/>
<path d="M131.84 249.97C132.63 237.94 141.96 228.08 153.9 226.63C165.79 225.19 177.16 232.44 180.86 243.86" stroke="#282633" stroke-width="19" stroke-miterlimit="10" stroke-linecap="round"/>
<path d="M755.72 146.27C752.55 120.13 743.68 95.4401 729.63 74.3701C703.55 35.2601 660.85 9.83006 609.39 2.75006C599.95 1.45006 590.44 0.820068 580.94 0.820068C533.27 0.820068 486.2 16.79 453.26 45.08C424.62 69.68 409.61 100.44 401.78 126.96C392.41 158.6 393.25 184.2 393.34 186.12C393.52 190.26 393.92 195.63 394.77 201.91C396.94 218.02 402.12 240.11 414.14 262.68C421.77 276.99 432.13 291.5 446.23 304.83C446.28 304.87 446.31 304.91 446.36 304.95C460.81 318.58 477.11 329.19 495.2 336.75C506.34 341.43 518.17 344.95 530.65 347.29C543.19 349.66 556.37 350.84 570.19 350.84C571.38 350.84 572.57 350.84 573.76 350.82C585.19 350.65 604.32 349.27 626.15 343.19C636.04 340.43 646.49 336.71 657.03 331.69C669.51 325.77 682.1 318.02 694.06 307.93C700.05 302.89 705.88 297.24 711.44 290.95C716.51 285.21 721.2 279.12 725.49 272.71C736.83 255.81 745.38 236.77 750.69 216.64C753.34 206.67 755.18 196.43 756.19 186.06C757.49 172.61 757.31 159.26 755.72 146.27ZM696.14 277.43C654.76 324.25 596.56 330.09 573.45 330.41C527.45 331.08 489.33 317.49 460.24 289.99C425.52 257.2 416.55 216.01 414.33 193.54C414.02 190.39 413.84 187.61 413.74 185.27C413.72 184.85 412.97 162.23 421.1 134.02C427.97 110.17 441.19 82.3501 466.56 60.5701C501.76 30.3501 555.42 15.9401 606.61 22.9701C652.19 29.2401 689.84 51.5101 712.63 85.6901C725.92 105.62 733.61 128.85 735.9 152.88C737.61 170.62 736.37 188.78 732.29 206.41C726.3 232.32 714.16 257.05 696.13 277.44L696.14 277.43Z" fill="#282633"/>
<path d="M465.5 140.94C475.21 149.13 497.55 165.72 530.71 171.3C543.33 173.43 572.28 177.89 603.87 163.05C639.82 146.16 655.54 115.38 660.01 105.71" stroke="#282633" stroke-width="19" stroke-miterlimit="10" stroke-linecap="round"/>
<path d="M575.64 108.88C576.01 106.24 577.66 96.9202 585.84 89.9702C587.66 88.4202 593.65 83.3402 601.9 83.3102C611.72 83.2802 621.11 90.4101 625.84 101.21" stroke="#282633" stroke-width="19" stroke-miterlimit="10" stroke-linecap="round"/>
<path d="M494.84 121.85C495.59 110.51 504.38 101.22 515.64 99.8502C526.85 98.4902 537.57 105.33 541.06 116.09" stroke="#282633" stroke-width="19" stroke-miterlimit="10" stroke-linecap="round"/>
<path d="M270.8 258.3C238.01 258.27 124.37 278.95 121.48 303.86C117.78 335.7 153.15 370.59 224.97 354.37C296.79 338.15 303.6 258.33 270.81 258.3H270.8Z" stroke="#282633" stroke-width="19" stroke-miterlimit="10" stroke-linecap="round"/>
</svg>
