<svg width="298" height="280" viewBox="0 0 298 280" fill="none" xmlns="http://www.w3.org/2000/svg">
<path fill-rule="evenodd" clip-rule="evenodd" d="M250.453 87.9806C265.672 114.076 269.271 147.191 256.5 174.395C245.253 198.352 215.494 204.348 190.863 214.913C171.47 223.231 152.427 229.057 131.243 228.121C103.498 226.896 70.6988 230.289 53.4654 208.846C35.6357 186.66 42.0675 154.475 50.4076 127.538C58.0985 102.698 75.7921 83.764 96.9901 68.2714C120.703 50.9411 146.347 32.1576 175.748 35.9336C207.176 39.97 234.687 60.9471 250.453 87.9806Z" fill="#71C67D"/>
<path d="M161.244 27.8065C155.943 30.3346 150.607 32.802 145.357 35.4165C143.402 36.3892 141.193 36.95 139.545 38.7492C138.725 39.6424 136.341 39.5855 134.537 40.4937C129.653 42.9557 124.622 45.1769 119.732 47.6251C114.971 50.007 110.348 52.6333 105.589 55.0197C100.871 57.3852 95.7344 59.2805 91.3908 61.9575C87.6259 64.2767 83.6672 65.2252 79.9483 67.2182C76.0138 69.3322 71.8992 71.4417 67.7693 72.9672C66.2648 73.52 64.7594 74.0573 63.2791 74.6433C62.5389 74.9362 61.809 75.2412 61.0885 75.5691C60.7291 75.7354 60.3698 75.9016 60.016 76.0816L59.4877 76.3508L59.2254 76.4899L59.0928 76.5627C59.0527 76.5836 58.9911 76.6182 58.9957 76.6164C58.88 76.7039 58.7922 76.8071 58.7314 76.9105C58.6744 77.023 58.665 77.1596 58.6882 77.2835C58.7114 77.4074 58.7645 77.5249 58.8223 77.6141C58.8456 77.6582 58.867 77.6977 58.8837 77.7657C58.8949 77.7932 58.8968 77.8244 58.8986 77.8556C58.9041 77.9757 58.9096 78.0958 58.917 78.2206C58.975 80.149 58.628 82.3838 59.7826 83.9923C59.8702 84.1284 59.7547 85.0026 59.6508 85.4523C59.148 87.5828 59.4407 90.1431 60.0812 91.8292C60.746 93.4687 60.9229 94.9575 61.1521 96.5217L61.6411 99.7393L62.2486 102.943C62.6499 105.078 62.9803 107.225 63.4413 109.348C63.76 110.946 63.9965 112.555 64.2284 114.166C64.5014 115.772 64.8154 117.372 65.1752 118.966C65.3658 119.795 65.6011 120.629 65.843 121.465C66.1036 122.294 66.4052 123.118 66.6732 123.939C67.2251 125.58 67.7061 127.205 67.925 128.784C68.1915 130.361 68.5858 131.866 69.0324 133.34C69.2557 134.078 69.4949 134.814 69.7415 135.542C70.0181 136.264 70.2946 136.986 70.5683 137.714C71.2079 139.358 71.4683 141.479 73.0313 142.429C73.1795 142.515 73.4244 143.132 73.4633 143.441C73.6237 144.729 73.9772 145.947 74.4343 147.115C74.6708 147.698 74.9148 148.273 75.2026 148.836C75.4933 149.393 75.8073 149.941 76.1259 150.487C77.4023 152.675 78.7712 154.812 79.7769 157.159C80.2816 158.377 80.8208 159.587 81.3964 160.793C82.0028 161.982 82.6279 163.164 83.2735 164.343C84.5273 166.716 85.967 169 87.2946 171.328C87.998 172.57 88.5482 174.02 89.8902 174.759C90.3686 175.019 91.1672 176.282 91.3672 177.002C91.9534 178.954 92.9679 180.723 94.0721 182.447C95.2025 184.155 96.4626 185.797 97.5136 187.537C98.7603 189.492 100.141 191.364 101.506 193.252C102.888 195.128 104.179 197.072 105.289 199.171C105.752 200.06 106.355 201.08 107.133 202.027C107.924 202.963 108.879 203.841 110.017 204.462C111.047 205.045 112.149 207.068 113.32 208.319C114.274 209.352 115.532 210.07 116.437 211.116C117.209 212.007 117.684 213.151 118.339 214.167C118.532 214.47 118.822 214.798 119.098 215.026C120.432 216.118 121.689 217.272 122.839 218.51C124.018 219.727 125.114 221.018 126.227 222.297C128.434 224.874 130.638 227.472 133.226 229.699L134.72 230.984C135.058 231.283 134.994 231.207 135.056 231.252L135.18 231.332C135.347 231.437 135.569 231.372 135.699 231.252L136.507 230.741L137.882 229.883L140.651 228.184C142.51 227.068 144.368 225.948 146.223 224.833C149.551 222.849 153.098 220.992 156.391 221.227C157.876 221.33 158.395 222.117 157.301 223.457C156.502 224.443 155.538 225.503 154.421 226.32C152.654 227.65 150.882 228.982 149.165 230.276C147.501 231.503 145.913 232.822 144.27 234.098C143.448 234.736 142.615 235.358 141.747 235.95C141.316 236.246 140.876 236.534 140.428 236.814L139.748 237.227C139.365 237.456 138.98 237.68 138.598 237.908C138.079 238.2 137.535 238.433 136.982 238.573C135.874 238.866 134.549 238.955 133.383 238.558C132.21 238.222 131.378 237.158 130.909 236.266C130.883 236.202 130.814 236.112 130.732 236.016C130.691 235.968 130.643 235.918 130.594 235.862C130.561 235.822 130.524 235.783 130.489 235.738C130.354 235.578 130.191 235.429 130.064 235.356C124.517 232.068 120.573 226.791 116.222 222.188C112.513 218.265 108.248 214.995 105.155 210.472C102.422 208.807 100.356 205.91 98.7889 203.298L96.6588 199.883C95.9413 198.753 95.1931 197.641 94.4513 196.531C92.9948 194.285 91.4376 192.11 89.955 189.879L87.6923 186.564L85.4923 183.203L84.3955 181.524L83.351 179.815C82.655 178.671 81.973 177.522 81.3003 176.369C75.9451 166.947 70.9204 157.3 66.788 147.269C66.4323 146.419 65.959 145.678 65.5239 144.884C65.1103 144.078 64.7425 143.21 64.5764 142.121C64.2692 140.072 62.9659 137.75 62.2251 135.497C61.8686 134.471 61.4496 133.438 61.0707 132.411C60.8827 131.894 60.6965 131.381 60.5439 130.872C60.4053 130.357 60.2826 129.841 60.2 129.331C59.8574 127.22 59.3759 125.154 58.8849 123.09C58.4314 121.013 57.9106 118.956 57.3581 116.9C56.8261 114.843 56.366 112.762 55.8574 110.695C55.3282 108.631 54.9689 106.532 54.6114 104.438C53.2459 96.1019 52.3237 87.6728 51.7606 79.2636L51.5611 76.8798C51.4911 75.8013 51.6599 74.7522 52.1328 73.7869C52.5983 72.8299 53.3389 72.0051 54.2444 71.4139C54.6991 71.1096 55.2162 70.8661 55.7193 70.6014L56.0264 70.4396L56.2392 70.3249L56.6583 70.0929C58.9061 68.8684 61.18 67.6816 63.5582 66.6722C65.5855 65.8099 67.4201 64.2994 69.8302 64.2611C70.5123 64.2512 72.0251 62.6797 73.2871 62.035C76.4234 60.4439 79.6324 58.9787 82.8144 57.4602C87.2331 55.3547 91.6873 53.3099 96.0501 51.1198C98.7113 49.7825 101.189 48.139 103.84 46.7631C106.607 45.3263 109.454 43.9696 112.313 42.7202C115.941 41.1294 119.654 39.7608 123.273 38.147C127.02 36.4778 130.674 34.2177 134.417 32.9492C141.393 30.5832 147.77 27.0576 154.385 24.0135L158.239 22.2338C159.867 21.4678 161.498 20.7065 163.127 19.9405C163.965 19.5562 164.781 19.3562 165.531 19.2347C166.252 19.1351 167.052 19.1752 167.821 19.4077C169.368 19.8379 170.725 21.054 171.306 22.4446C171.381 22.6173 171.452 22.7918 171.5 22.9644C171.562 23.1315 171.601 23.3187 171.631 23.5142L171.738 24.084L171.79 24.3721C171.807 24.4666 171.796 24.5876 171.801 24.6921C171.802 25.1332 171.819 25.5623 171.812 26.0116L171.729 27.3783L171.693 28.0621L171.673 28.6121L171.654 29.4061C171.641 29.9323 171.64 30.4641 171.638 30.9913C171.646 34.9275 170.848 38.5549 171.083 42.4507C171.188 44.2437 168.869 46.9046 167.946 46.2268C167.768 46.094 167.574 45.8025 167.485 45.5023C166.388 41.6651 164.976 38.0621 165.088 33.4893C165.124 32.1517 165.173 30.8087 165.239 29.4648L165.289 28.4565L165.324 27.89L165.368 27.2933C165.385 27.0953 165.416 26.8919 165.324 26.7045C165.25 26.5208 165.091 26.3698 164.904 26.2938C164.719 26.2114 164.498 26.2123 164.311 26.2848C164.126 26.362 163.951 26.4621 163.77 26.5484L161.201 27.7807L161.244 27.8065Z" fill="#231F20"/>
<path d="M241.368 138.463C234.884 130.999 229.031 123.009 223.715 114.709C222.725 113.163 221.889 111.503 220.92 109.901C220.428 109.103 219.953 108.293 219.418 107.506C218.882 106.72 218.299 105.951 217.634 105.22C216.957 104.499 216.48 103.203 215.97 101.73C215.459 100.256 214.893 98.6081 214.178 97.0713L212.691 93.9664C212.219 92.9223 211.773 91.8628 211.318 90.8069C210.38 88.706 209.591 86.5469 208.75 84.4078C207.177 80.0878 205.695 75.7377 204.422 71.3277C203.171 67.0411 201.995 62.7363 201.033 58.3743C200.077 54.0105 199.301 49.5977 198.805 45.1287C198.703 44.3008 198.641 43.4675 198.568 42.6333C198.496 41.7991 198.442 40.9577 198.401 40.1217C198.353 39.283 198.315 38.4406 198.302 37.5937L198.27 36.3256L198.27 35.7227L198.276 35.6039L198.305 35.1536C198.323 34.9983 198.272 34.8329 198.155 34.7304C198.042 34.626 197.872 34.581 197.721 34.6237C197.572 34.6709 197.448 34.7776 197.316 34.8551C197.232 34.9143 197.148 34.9736 197.068 35.031C196.621 35.3052 196.174 35.5795 195.732 35.8519C194.811 36.4269 193.898 37.0092 193.009 37.5979C186.865 41.6634 180.673 44.2341 174.663 47.9088C168.292 51.803 161.655 55.7635 155.105 59.0554C150.328 61.4567 145.561 63.7594 141.058 66.5522C138.247 68.2952 135.846 70.2975 132.695 72.0565C129.775 73.6889 126.238 75.1905 124.255 77.5434C124.086 77.7414 122.685 78.3229 121.953 78.5756C118.458 79.7804 114.65 82.0171 112.27 83.9262C109.952 85.7852 107.665 87.0285 105.298 88.4087C102.512 90.0258 99.7241 91.6492 96.9339 93.2681C96.9246 93.2717 96.9207 93.2891 96.9198 93.3C96.9216 93.3046 96.9198 93.3 96.9215 93.3311L96.9506 93.5632L97.1159 94.9064C97.3414 96.6919 97.5275 98.4873 97.7623 100.269C97.9735 101.605 98.1669 102.937 98.3463 104.275L98.6065 106.28C98.6938 106.95 98.7653 107.62 98.8919 108.28C99.1218 109.609 99.3517 110.938 99.5834 112.271C99.8292 113.599 100.033 114.943 100.38 116.252C100.714 117.625 101.088 119.014 101.477 120.403C101.673 121.099 101.862 121.793 102.072 122.484C102.296 123.169 102.52 123.855 102.748 124.539C103.194 125.905 103.618 127.259 103.999 128.598C104.178 129.269 104.38 129.926 104.573 130.576C104.761 131.227 104.935 131.869 105.091 132.507C105.399 133.789 105.741 135.048 106.101 136.294C106.488 137.53 106.928 138.735 107.368 139.94C107.812 141.143 108.259 142.339 108.732 143.531C109.242 144.709 109.756 145.884 110.27 147.071C111.395 149.777 112.475 153.082 114.498 154.798C114.692 154.956 115.138 155.962 115.301 156.444C115.945 158.459 116.773 160.38 117.709 162.249C118.686 164.097 119.796 165.872 120.918 167.637C122.055 169.397 123.298 171.099 124.459 172.854C125.041 173.728 125.63 174.605 126.219 175.482C126.8 176.367 127.364 177.265 127.899 178.184C132.367 185.739 137.911 192.917 143.58 199.826C144.346 200.74 145.071 201.738 145.859 202.654C146.252 203.115 146.663 203.553 147.095 203.952C147.537 204.346 148.014 204.695 148.522 204.984C149.245 205.391 150.89 207.27 151.545 208.296C155.102 213.941 160.431 218.568 165.167 223.405C170.593 228.942 176.709 233.761 182.269 239.24C182.569 239.526 182.88 239.823 183.205 240.13C183.284 240.205 183.37 240.283 183.455 240.361C183.508 240.41 183.518 240.421 183.528 240.433L183.562 240.478C183.614 240.538 183.67 240.595 183.721 240.655C183.833 240.77 183.952 240.904 184.116 240.961C184.278 241.026 184.458 241.03 184.63 240.973C184.804 240.921 184.939 240.785 185.061 240.658C185.121 240.592 185.181 240.526 185.234 240.458C185.231 240.449 185.358 240.336 185.454 240.251L185.747 239.984C186.522 239.264 187.256 238.508 187.919 237.711C189.132 236.25 192.526 234.317 194.79 232.511C196.654 231.025 198.224 229.298 200.109 227.893C201.71 226.695 203.577 225.821 205.33 224.758C205.849 224.446 206.45 224.005 206.895 223.605C215.496 215.855 225.651 210.241 234.81 203.104C244.014 195.934 253.611 189.008 263.145 182.17C268.405 178.396 273.956 174.698 278.68 173.624C280.809 173.141 281.389 173.878 279.515 175.951C278.139 177.475 276.509 179.151 274.713 180.6C271.856 182.938 268.997 185.282 266.221 187.552C260.409 192.25 254.994 197.365 248.459 201.588C246.428 202.901 244.469 204.98 242.336 205.481C242.039 205.549 241.205 206.085 240.861 206.414C233.394 213.592 224.221 219.263 215.832 225.571C208.69 230.945 202.389 236.923 194.847 241.912C194.017 242.859 193.088 243.776 192.103 244.662C191.61 245.102 191.104 245.537 190.584 245.966L190.192 246.283L189.995 246.439L189.653 246.704C189.118 247.108 188.589 247.541 188.021 247.878C185.819 249.184 182.823 249.226 180.728 247.776C180.202 247.398 179.675 247.021 179.154 246.647L178.765 246.369C178.689 246.314 178.657 246.29 178.63 246.263L178.536 246.178L178.159 245.848C177.662 245.412 177.167 244.98 176.697 244.543C173.367 241.504 170.083 238.468 166.825 235.406C163.572 232.342 160.331 229.269 157.167 226.117C150.807 219.854 144.695 213.335 139.073 206.434C127.692 192.439 117.405 177.469 109.269 161.36C108.916 160.677 108.541 160.034 108.161 159.404C107.798 158.762 107.437 158.125 107.063 157.471C106.337 156.161 105.629 154.764 105.073 153.044C104.132 149.774 102.003 145.929 100.621 142.239C99.2425 138.907 97.8481 135.375 96.9652 132.088C96.5618 130.372 96.166 128.647 95.7346 126.942L95.0715 124.385L94.4759 121.807C94.0725 120.09 93.6533 118.375 93.2247 116.663C92.8541 114.934 92.4807 113.211 92.1102 111.482L91.5332 108.897L91.0602 106.287L90.1094 101.069L89.4037 95.8139L89.2336 94.499L89.12 93.6172C89.0717 93.2709 89.0308 92.9163 89.0116 92.5482C88.9363 91.1329 89.4286 89.6876 90.3824 88.6184C90.8528 88.0811 91.4219 87.6535 92.0674 87.2809L93.6095 86.4064L95.9096 85.1156L100.511 82.5231L109.695 77.3079C115.806 73.8161 121.885 70.2841 127.896 66.6779C135.234 62.281 142.319 57.5428 149.92 53.446C153.157 51.7008 156.224 49.2812 159.893 48.3316C160.934 48.0647 163.519 45.7 165.554 44.491C170.609 41.4945 175.753 38.6114 180.863 35.6835C185.894 32.813 190.927 29.9362 195.952 27.0675L196.801 26.6477L197.634 26.3503L198.428 26.1689C198.688 26.1154 198.936 26.0985 199.197 26.0761C200.245 26.0129 201.388 26.2249 202.394 26.728C203.401 27.2203 204.26 28.0027 204.839 28.8834C204.983 29.1029 205.112 29.3279 205.22 29.5555L205.375 29.8975C205.408 30.0327 205.429 30.178 205.453 30.3169L205.766 32.0102L205.903 32.7504C205.932 33.009 205.917 33.3059 205.927 33.5827C205.928 34.1482 205.95 34.6955 205.968 35.2491L205.994 35.8211L206.021 36.2605L206.091 37.1432C206.177 38.3163 206.319 39.4941 206.452 40.6646C206.752 43.0084 207.098 45.3449 207.449 47.6952C208.169 52.6113 209.061 57.5505 210.092 62.4306C211.395 68.6121 212.855 74.7645 214.956 80.7737C217.124 87.0159 220.34 93.1155 222.813 98.9325C223.098 99.6099 223.376 100.296 223.685 100.964L224.645 102.956C225.305 104.276 225.924 105.617 226.663 106.891C227.38 108.179 228.113 109.465 228.847 110.741C229.619 112.002 230.419 113.241 231.212 114.489C231.616 115.109 231.996 115.74 232.421 116.347L233.69 118.166C234.548 119.372 235.362 120.606 236.257 121.782L238.922 125.334L239.586 126.224L240.279 127.092L241.662 128.83L243.031 130.563L243.718 131.428L244.434 132.271L247.307 135.642C248.245 136.78 249.273 137.846 250.27 138.94C251.279 140.024 252.266 141.122 253.294 142.188C257.448 146.404 261.722 150.516 266.281 154.289C267.573 155.364 268.778 156.477 269.983 157.565C271.208 158.634 272.389 159.714 273.574 160.793L275.349 162.416C275.94 162.953 276.567 163.456 277.183 163.973C278.423 164.999 279.686 166.016 281.01 167.009C281.32 167.238 281.616 167.515 281.899 167.812L282.004 167.925L282.056 167.984L282.154 168.078C282.29 168.216 282.426 168.348 282.543 168.504C282.778 168.804 282.977 169.134 283.114 169.472C283.395 170.151 283.456 170.863 283.352 171.475C283.248 172.087 282.987 172.606 282.672 172.978C282.026 173.737 281.251 173.884 280.832 173.788C280.398 173.692 280.243 173.403 280.257 173.117C280.273 172.889 280.317 172.57 280.335 172.32C280.385 171.909 280.186 171.526 279.926 171.352C279.86 171.309 279.791 171.272 279.725 171.245C279.681 171.23 279.659 171.228 279.609 171.2L279.343 171.049L278.272 170.455C276.846 169.665 275.414 168.872 273.976 168.04C273.259 167.62 272.527 167.206 271.818 166.741C271.109 166.275 270.4 165.795 269.685 165.289C268.258 164.283 266.811 163.2 265.349 161.985C256.847 154.691 248.726 146.905 241.384 138.436L241.368 138.463Z" fill="#231F20"/>
<path d="M208.434 129.008C207.356 129.591 206.25 130.13 205.214 130.79C204.826 131.033 204.249 130.957 204.181 131.803C204.145 132.221 203.351 131.705 202.998 131.94C202.041 132.569 200.98 133.019 200.017 133.645C199.085 134.253 198.257 135.039 197.328 135.656C196.407 136.266 195.225 136.485 194.509 137.374C193.889 138.14 192.842 137.984 192.16 138.555C191.432 139.16 190.643 139.723 189.697 139.911C189.006 140.048 188.288 140.131 187.789 140.581C187.478 140.866 187.355 141.417 186.949 141.618C186.575 141.801 185.981 141.737 186.085 142.62C186.093 142.693 185.857 142.659 185.718 142.609C185.056 142.376 184.597 142.685 184.455 143.188C184.318 143.678 184.016 143.801 183.73 143.988C182.943 144.502 182.144 144.998 181.297 145.403C180.657 145.707 179.9 145.799 179.254 146.088C178.583 146.393 178.098 147.105 177.313 147.116C176.521 147.123 175.976 147.472 175.406 147.813C175.078 148.006 174.505 147.912 174.673 148.781C174.69 148.861 174.56 148.928 174.473 148.902C172.98 148.527 172.815 150.294 171.74 150.63C170.632 150.979 169.74 151.741 168.782 152.364C168.524 152.53 168.121 152.496 168.198 153.153C168.227 153.383 167.967 153.571 167.753 153.523C166.6 153.267 166.105 154.153 165.29 154.491C164.366 154.878 163.728 155.721 162.542 155.701C162.041 155.694 161.47 155.872 161.453 156.791C161.446 157.214 160.844 157.169 160.582 157.43C160.366 157.645 160.311 158.097 160.07 158.262C159.862 158.403 159.486 158.276 159.188 158.288C159.102 158.289 159.019 158.337 158.981 158.417C158.225 159.913 156.386 159.699 155.285 160.679C154.177 161.655 152.876 162.368 151.577 163.059C150.859 163.436 150.024 163.684 148.738 162.726C148.158 162.296 147.762 161.692 147.821 161.144C147.864 160.745 147.943 160.338 148.145 160.117C148.467 159.763 148.758 159.361 149.072 159.015C149.727 158.296 150.129 157.206 151.158 156.997C151.478 156.933 151.563 156.409 152.136 156.836C152.214 156.893 152.349 156.867 152.37 156.799C152.905 155.237 154.411 155.083 155.491 154.319C156.411 153.667 156.89 152.394 158.044 152.093C158.131 151.066 158.835 150.803 159.505 150.679C161.861 150.249 163.452 148.583 165.418 147.524C167.411 146.449 169.282 145.181 171.25 144.061C171.584 143.871 171.623 143.3 172.202 143.38C172.74 143.455 173.074 142.943 173.496 142.691C173.883 142.459 174.199 142.063 174.676 142.026C176.645 141.866 177.908 140.513 179.491 139.696C181.066 138.887 182.634 138.059 184.05 137.001C184.912 136.354 185.613 135.427 186.64 135.039C187.074 134.87 187.275 134.246 188.063 134.693C188.287 134.819 188.359 134.092 188.606 133.925C189.213 133.503 189.88 133.173 190.522 132.809C191.413 132.299 192.345 131.85 193.195 131.279C193.718 130.928 194.099 130.349 194.606 129.971C195.139 129.579 195.719 129.261 196.33 129.007C197.104 128.689 197.964 128.53 198.731 128.193C199.524 127.842 200.138 127.101 201.035 127.02C202.709 126.866 203.88 125.832 205.263 125.174C206.636 124.52 208.003 123.836 209.264 122.986C209.981 122.5 210.988 122.703 211.724 122.303C212.069 122.114 213.461 123.56 213.634 124.214C213.668 124.337 213.675 124.487 213.638 124.556C213.206 125.478 212.996 126.668 212.137 127.056C210.865 127.627 209.675 128.346 208.452 129.012L208.434 129.008Z" fill="#231F20"/>
<path d="M215.516 145.016C214.526 145.632 213.505 146.213 212.556 146.891C212.2 147.145 211.643 147.105 211.635 147.906C211.628 148.307 210.828 147.857 210.505 148.098C209.632 148.747 208.636 149.228 207.753 149.866C206.896 150.487 206.153 151.28 205.298 151.907C204.45 152.525 203.323 152.79 202.688 153.661C202.138 154.421 201.12 154.307 200.488 154.878C199.82 155.479 199.095 156.05 198.193 156.264C197.535 156.42 196.849 156.519 196.39 156.964C196.105 157.243 196.015 157.777 195.633 157.978C195.278 158.168 194.708 158.122 194.848 158.966C194.859 159.035 194.632 159.013 194.493 158.967C193.842 158.763 193.415 159.071 193.306 159.555C193.197 160.027 192.91 160.155 192.64 160.338C191.907 160.849 191.16 161.349 190.358 161.755C189.756 162.063 189.026 162.163 188.412 162.454C187.776 162.759 187.342 163.452 186.581 163.475C185.82 163.498 185.303 163.841 184.769 164.18C184.464 164.371 183.907 164.289 184.094 165.114C184.114 165.19 183.992 165.253 183.903 165.236C182.453 164.907 182.347 166.586 181.32 166.922C180.262 167.265 179.428 168.009 178.519 168.609C178.276 168.766 177.884 168.74 177.978 169.365C178.012 169.583 177.763 169.764 177.56 169.722C176.443 169.484 175.984 170.334 175.21 170.661C174.327 171.031 173.726 171.837 172.586 171.828C172.103 171.822 171.556 171.997 171.555 172.869C171.553 173.269 170.973 173.227 170.725 173.476C170.519 173.682 170.473 174.109 170.242 174.267C170.046 174.401 169.678 174.276 169.395 174.292C169.308 174.294 169.234 174.339 169.199 174.415C168.49 175.845 166.709 175.63 165.657 176.553C164.601 177.478 163.349 178.148 162.095 178.788C161.403 179.141 160.599 179.369 159.359 178.439C158.802 178.02 158.414 177.441 158.466 176.923C158.502 176.541 158.582 176.158 158.77 175.949C159.077 175.614 159.356 175.238 159.655 174.912C160.276 174.235 160.658 173.209 161.64 173.017C161.943 172.957 162.02 172.46 162.576 172.874C162.653 172.928 162.782 172.909 162.802 172.838C163.293 171.356 164.744 171.228 165.767 170.505C166.637 169.888 167.075 168.679 168.179 168.397C168.242 167.422 168.91 167.168 169.552 167.054C171.806 166.646 173.29 165.051 175.143 164.031C177.024 162.996 178.781 161.767 180.628 160.676C180.941 160.491 180.961 159.948 181.516 160.011C182.038 160.071 182.336 159.582 182.735 159.338C183.097 159.113 183.385 158.733 183.84 158.682C185.719 158.493 186.88 157.18 188.357 156.365C189.825 155.553 191.296 154.734 192.601 153.681C193.394 153.037 194.018 152.138 194.979 151.733C195.391 151.563 195.544 150.957 196.322 151.353C196.543 151.467 196.573 150.773 196.798 150.601C197.359 150.179 197.977 149.844 198.569 149.472C199.398 148.956 200.251 148.487 201.038 147.909C201.517 147.554 201.844 146.986 202.304 146.613C202.79 146.22 203.321 145.887 203.892 145.624C204.612 145.286 205.426 145.096 206.134 144.742C206.871 144.376 207.403 143.64 208.253 143.514C209.843 143.284 210.891 142.247 212.163 141.543C213.425 140.842 214.686 140.126 215.816 139.236C216.457 138.729 217.441 138.866 218.114 138.437C218.426 138.237 219.878 139.526 220.097 140.134C220.143 140.247 220.156 140.389 220.131 140.461C219.793 141.365 219.683 142.51 218.892 142.928C217.719 143.551 216.631 144.305 215.508 145.009L215.516 145.016Z" fill="#231F20"/>
<path d="M238.958 170.491C238.03 171.174 237.071 171.823 236.189 172.567C235.859 172.847 235.306 172.843 235.361 173.645C235.386 174.041 234.561 173.659 234.262 173.921C233.452 174.632 232.51 175.175 231.693 175.878C230.897 176.557 230.229 177.401 229.435 178.085C228.65 178.76 227.557 179.106 227.001 180.016C226.522 180.806 225.504 180.775 224.934 181.382C224.324 182.026 223.656 182.645 222.779 182.923C222.142 183.124 221.473 183.274 221.057 183.754C220.799 184.052 220.751 184.587 220.394 184.814C220.059 185.028 219.49 185.025 219.701 185.85C219.719 185.921 219.488 185.912 219.351 185.881C218.695 185.73 218.297 186.067 218.228 186.552C218.161 187.027 217.886 187.175 217.64 187.38C216.954 187.944 216.262 188.489 215.503 188.951C214.935 189.297 214.22 189.455 213.642 189.789C213.038 190.138 212.664 190.857 211.919 190.938C211.167 191.017 210.688 191.396 210.185 191.768C209.897 191.979 209.341 191.94 209.596 192.742C209.62 192.816 209.503 192.888 209.417 192.874C207.957 192.66 207.995 194.329 207.01 194.738C205.991 195.16 205.232 195.955 204.383 196.619C204.157 196.795 203.767 196.795 203.908 197.408C203.957 197.623 203.729 197.821 203.523 197.792C202.397 197.641 202.019 198.522 201.279 198.898C200.438 199.33 199.915 200.174 198.783 200.249C198.303 200.279 197.784 200.491 197.853 201.356C197.883 201.75 197.312 201.754 197.084 202.019C196.897 202.238 196.891 202.662 196.67 202.837C196.485 202.982 196.113 202.892 195.834 202.922C195.752 202.933 195.68 202.982 195.65 203.056C195.071 204.521 193.294 204.446 192.333 205.435C191.364 206.431 190.188 207.185 189.002 207.912C188.347 208.313 187.571 208.599 186.27 207.775C185.682 207.405 185.254 206.857 185.262 206.343C185.266 205.966 185.314 205.578 185.485 205.36C185.764 205.007 186.003 204.612 186.274 204.267C186.832 203.549 187.124 202.508 188.078 202.247C188.373 202.163 188.406 201.671 188.991 202.033C189.071 202.085 189.194 202.053 189.214 201.983C189.576 200.476 191 200.241 191.95 199.45C192.758 198.776 193.092 197.547 194.156 197.185C194.137 196.218 194.777 195.917 195.398 195.754C197.592 195.178 198.925 193.492 200.671 192.345C202.443 191.182 204.075 189.833 205.807 188.613C206.101 188.405 206.073 187.868 206.629 187.892C207.151 187.913 207.406 187.408 207.776 187.134C208.117 186.881 208.367 186.487 208.811 186.408C210.651 186.079 211.69 184.695 213.08 183.775C214.461 182.862 215.849 181.937 217.047 180.799C217.781 180.102 218.315 179.165 219.237 178.692C219.626 178.494 219.731 177.885 220.535 178.214C220.762 178.308 220.737 177.619 220.943 177.435C221.459 176.974 222.046 176.595 222.6 176.187C223.373 175.615 224.181 175.087 224.909 174.455C225.353 174.069 225.628 173.483 226.053 173.078C226.498 172.655 226.997 172.284 227.538 171.98C228.225 171.593 229.009 171.34 229.679 170.939C230.375 170.523 230.841 169.752 231.673 169.565C233.225 169.217 234.172 168.114 235.37 167.32C236.559 166.535 237.742 165.731 238.787 164.762C239.381 164.213 240.363 164.275 240.992 163.801C241.287 163.582 242.827 164.739 243.093 165.329C243.144 165.44 243.173 165.579 243.153 165.65C242.893 166.569 242.883 167.704 242.132 168.184C241.022 168.886 240.012 169.716 238.96 170.495L238.958 170.491Z" fill="#231F20"/>
<path d="M226.57 160.71C225.651 161.335 224.7 161.919 223.826 162.602C223.498 162.858 222.957 162.816 222.998 163.626C223.022 164.029 222.218 163.58 221.923 163.824C221.119 164.479 220.187 164.965 219.375 165.613C218.587 166.241 217.918 167.042 217.132 167.674C216.348 168.3 215.278 168.566 214.722 169.446C214.237 170.208 213.25 170.105 212.677 170.676C212.069 171.282 211.407 171.86 210.542 172.073C209.915 172.231 209.261 172.336 208.844 172.787C208.586 173.07 208.533 173.605 208.177 173.807C207.85 173.999 207.291 173.953 207.483 174.8C207.5 174.869 207.276 174.849 207.14 174.805C206.501 174.603 206.103 174.913 206.029 175.397C205.952 175.872 205.686 176.003 205.438 176.19C204.761 176.705 204.069 177.21 203.323 177.623C202.762 177.932 202.06 178.039 201.489 178.336C200.895 178.642 200.514 179.342 199.785 179.368C199.049 179.391 198.575 179.742 198.075 180.081C197.791 180.271 197.246 180.194 197.48 181.024C197.501 181.102 197.392 181.166 197.303 181.147C195.882 180.826 195.89 182.511 194.915 182.852C193.913 183.204 193.158 183.953 192.317 184.558C192.092 184.721 191.712 184.692 191.837 185.318C191.882 185.537 191.655 185.722 191.453 185.677C190.359 185.443 189.972 186.301 189.242 186.632C188.412 187.009 187.882 187.82 186.778 187.815C186.313 187.814 185.795 187.988 185.847 188.863C185.87 189.267 185.309 189.228 185.08 189.477C184.894 189.684 184.874 190.115 184.664 190.277C184.481 190.412 184.119 190.29 183.849 190.304C183.77 190.308 183.696 190.353 183.667 190.428C183.072 191.865 181.341 191.659 180.384 192.589C179.419 193.526 178.254 194.199 177.085 194.846C176.442 195.203 175.675 195.432 174.424 194.503C173.86 194.085 173.451 193.504 173.472 192.982C173.485 192.601 173.537 192.211 173.708 192.006C173.982 191.669 174.228 191.289 174.499 190.959C175.059 190.275 175.365 189.245 176.301 189.047C176.59 188.988 176.636 188.488 177.196 188.898C177.273 188.954 177.394 188.933 177.414 188.861C177.796 187.367 179.19 187.233 180.131 186.503C180.932 185.881 181.28 184.663 182.327 184.379C182.329 183.398 182.955 183.144 183.566 183.024C185.719 182.606 187.05 181 188.777 179.97C190.53 178.924 192.15 177.684 193.862 176.579C194.153 176.391 194.137 175.845 194.676 175.909C195.182 175.97 195.442 175.477 195.81 175.227C196.149 174.999 196.4 174.617 196.833 174.567C198.638 174.369 199.673 173.045 201.051 172.22C202.42 171.399 203.791 170.571 204.981 169.508C205.707 168.862 206.252 167.953 207.155 167.543C207.544 167.371 207.655 166.765 208.429 167.155C208.648 167.269 208.635 166.571 208.842 166.4C209.353 165.971 209.93 165.634 210.485 165.258C211.253 164.74 212.048 164.264 212.774 163.682C213.214 163.329 213.494 162.754 213.918 162.375C214.362 161.977 214.855 161.646 215.387 161.375C216.064 161.032 216.834 160.839 217.498 160.479C218.186 160.11 218.652 159.367 219.469 159.237C220.988 159 221.935 157.951 223.12 157.239C224.297 156.53 225.467 155.807 226.501 154.906C227.095 154.397 228.05 154.529 228.673 154.094C228.965 153.895 230.452 155.177 230.704 155.786C230.751 155.902 230.781 156.041 230.756 156.114C230.485 157.018 230.461 158.169 229.716 158.598C228.621 159.227 227.618 159.992 226.577 160.702L226.57 160.71Z" fill="#231F20"/>
<path d="M113.173 120.178C119.315 116.726 125.458 113.274 131.6 109.822C131.703 110.01 131.813 110.2 131.916 110.388L123.034 115.382C126.679 121.916 130.322 128.445 133.967 134.979C133.739 135.11 133.504 135.239 133.276 135.37C129.631 128.836 125.988 122.306 122.342 115.772C119.396 117.431 116.442 119.088 113.495 120.747C113.392 120.559 113.283 120.369 113.179 120.181L113.173 120.178Z" fill="black"/>
<path d="M119.162 115.721C120.427 115.012 121.699 114.306 122.965 113.597C123.408 114.383 123.849 115.165 124.305 115.942C124.421 116.135 124.522 116.344 124.626 116.548L124.778 116.854L124.913 117.109C125.046 117.343 125.235 117.556 125.571 117.69C125.907 117.824 125.678 118.528 125.935 118.947C126.637 120.078 127.213 121.284 127.912 122.422C128.587 123.526 129.387 124.566 130.062 125.67C130.734 126.765 131.154 128.042 132.003 128.989C132.737 129.811 132.826 130.857 133.417 131.702C134.018 132.57 134.606 133.486 134.949 134.465L132.316 133.735C132.353 133.721 132.386 133.708 132.423 133.694C132.642 133.619 132.861 133.545 133.081 133.475L132.412 135.801C132.235 135.271 132.034 134.761 131.712 134.314C131.428 133.921 130.964 133.657 130.727 133.193C130.508 132.759 130.44 132.165 129.76 132.049C129.702 132.039 129.682 131.803 129.693 131.672C129.744 131.048 129.413 130.499 128.988 130.225C128.573 129.962 128.416 129.615 128.211 129.271C127.651 128.329 127.099 127.383 126.615 126.401C126.252 125.668 126.034 124.862 125.679 124.121C125.312 123.348 124.651 122.667 124.497 121.858C124.34 121.045 123.96 120.388 123.583 119.713C123.369 119.33 123.337 118.76 122.681 118.702C122.619 118.695 122.543 118.549 122.546 118.463C122.549 118.404 122.548 118.346 122.541 118.29C122.531 118.225 122.542 118.2 122.504 118.093C122.448 117.914 122.384 117.742 122.317 117.578C122.184 117.248 122.014 116.938 121.823 116.626C121.446 116.004 120.965 115.365 120.481 114.663C121.034 114.252 121.679 113.816 122.433 113.459C123 113.191 123.579 112.897 124.072 112.632C124.372 112.478 124.662 112.312 124.956 112.145C125.535 111.798 126.114 111.451 126.693 111.104C127.005 110.925 127.416 110.871 127.511 110.373C127.543 110.197 127.864 110.003 128.073 109.996C129.208 109.968 129.957 109.173 130.895 108.751L130.947 108.731L130.21 111.29C130.119 111.092 130.02 110.902 129.917 110.715L132.555 111.443C131.743 111.896 130.981 112.431 130.002 112.605C129.481 112.696 128.841 112.944 128.572 113.669C128.446 113.999 127.836 114.082 127.491 114.338C127.208 114.548 127.025 114.911 126.729 115.089C126.477 115.241 126.114 115.212 125.805 115.279C125.716 115.298 125.618 115.352 125.554 115.419C124.357 116.737 122.499 116.919 121.085 117.887C119.663 118.864 118.109 119.663 116.563 120.439C115.71 120.871 114.773 121.215 113.719 120.697C113.245 120.463 113.005 120.058 113.217 119.621C113.374 119.3 113.575 118.968 113.846 118.757C114.274 118.41 114.702 118.064 115.117 117.728C115.994 117.048 116.716 116.121 117.84 115.769C118.185 115.661 118.419 115.237 118.896 115.464C118.963 115.497 119.107 115.451 119.148 115.393C120.131 114.068 121.736 113.677 123.057 112.878C124.182 112.197 125.025 111.112 126.301 110.658C126.667 109.838 127.466 109.501 128.188 109.279C129.058 109.009 129.875 108.649 130.665 108.236L132.385 107.34L133.241 108.946L133.548 109.515L134.399 111.107L132.84 111.973C131.523 112.702 130.27 113.533 128.94 114.23C128.1 114.668 127.27 115.128 126.446 115.591L125.8 115.959L125.578 116.093C125.649 116.214 125.709 116.323 125.772 116.452C125.986 116.846 126.441 117.034 126.488 117.604C126.532 118.138 126.994 118.61 127.271 119.106C127.526 119.563 127.893 119.987 128.014 120.486C128.511 122.538 129.822 124.185 130.766 126.005C131.708 127.822 132.662 129.639 133.778 131.35C134.379 132.271 135.122 133.116 135.641 134.09L136.525 135.749L134.916 136.613C134.788 136.684 134.652 136.747 134.515 136.811C134.409 136.857 134.314 136.916 134.218 136.985L132.755 137.967L131.615 136.264C131.378 135.906 131.074 135.569 131.223 135.018C131.277 134.817 130.694 134.567 130.51 134.273C130.054 133.55 129.663 132.785 129.246 132.036C128.667 130.995 128.121 129.942 127.497 128.923C127.116 128.304 126.584 127.779 126.184 127.167C125.768 126.528 125.394 125.858 125.072 125.173C124.659 124.3 124.356 123.38 123.931 122.518C123.492 121.623 122.779 120.825 122.521 119.882C122.44 119.575 122.337 119.281 122.225 118.991L122.052 118.565C122.035 118.524 122.022 118.477 122.008 118.429C121.936 118.24 121.834 118.067 121.734 117.915C121.584 118.011 121.443 118.103 121.29 118.167L121.098 118.253L120.541 118.549L119.368 119.19C118.591 119.624 117.823 120.077 117.076 120.558C116.227 121.105 115.211 121.187 114.353 121.674C114.279 121.719 114.173 121.723 114.057 121.705L112.482 121.437L112.514 121.276C112.612 120.783 113.217 120.034 113.604 120C113.693 119.992 113.805 120.017 113.869 120.067C113.991 120.168 114.12 120.26 114.248 120.348L113.078 120.024C113.593 119.305 114.052 118.544 114.891 118.117C116.347 117.371 117.753 116.528 119.175 115.727L119.162 115.721Z" fill="black"/>
<path d="M162.988 117.926L163.304 118.492C157.796 121.586 152.288 124.68 146.781 127.779C143.033 121.058 139.285 114.336 135.532 107.616C140.995 104.544 146.456 101.479 151.919 98.4075L152.235 98.9733C147.005 101.912 141.769 104.853 136.541 107.796C138.181 110.734 139.815 113.669 141.455 116.607C146.377 113.841 151.295 111.077 156.217 108.311C156.32 108.499 156.43 108.689 156.533 108.877C151.611 111.643 146.693 114.407 141.771 117.173C143.57 120.393 145.362 123.611 147.16 126.832C152.438 123.864 157.714 120.903 162.992 117.935L162.988 117.926Z" fill="black"/>
<path d="M151.557 126.188C149.881 127.125 148.205 128.063 146.534 128.998L145.139 126.505L144.504 125.38L144.08 124.655C143.616 123.856 143.354 122.93 142.481 122.311C142.047 122.002 142.093 120.967 141.659 120.23L141.243 119.513L140.688 118.531L139.586 116.56L142.81 114.756L143.805 114.195L144.742 113.65C146.697 112.493 148.578 111.222 150.531 110.06C152.188 109.077 154 108.262 155.582 107.239L154.856 109.772C154.737 109.585 154.615 109.405 154.49 109.231L157.208 109.981C157.119 110.042 157.041 110.104 156.957 110.163C155.438 111.289 153.743 111.752 152.227 112.722C150.62 113.749 148.932 114.776 147.203 115.517C146.572 115.789 145.942 116.05 145.321 116.333C145.011 116.475 144.709 116.624 144.41 116.783L143.724 117.171L142.974 117.616C142.26 118.058 141.544 118.574 140.738 119.121C140.407 118.651 140.051 118.106 139.707 117.472C139.518 117.127 139.336 116.758 139.151 116.395L138.872 115.852C138.786 115.695 138.702 115.542 138.619 115.389C138.399 115.008 138.124 114.676 137.71 114.482C137.643 114.45 137.543 114.07 137.511 113.871C137.374 112.907 136.811 111.944 136.23 111.392C136.088 111.256 135.962 111.119 135.851 110.977C135.792 110.9 135.749 110.847 135.683 110.751C135.592 110.607 135.505 110.46 135.414 110.315C135.064 109.731 134.742 109.152 134.402 108.553L133.491 106.947L137.513 104.669C138.213 104.275 138.922 103.888 139.632 103.517C140.907 102.846 142.251 102.319 143.531 101.657C144.864 100.97 146.139 99.9763 147.474 99.5207C148.819 99.0615 149.968 98.398 151.153 97.7308C151.24 97.6808 151.33 97.6353 151.425 97.588L150.807 99.7349C150.718 99.5417 150.623 99.3458 150.527 99.15L152.709 99.7534C152.269 99.9772 151.875 100.247 151.708 100.714C151.683 100.788 151.425 100.925 151.29 100.951C149.011 101.429 147.584 103.287 145.548 104.231C143.449 105.206 141.449 106.476 139.419 107.636C139.146 107.79 138.851 107.915 138.577 108.08L138.478 108.145C138.449 108.166 138.463 108.161 138.456 108.169C138.45 108.182 138.446 108.199 138.451 108.224C138.457 108.264 138.49 108.32 138.558 108.394C138.655 108.5 138.703 108.486 138.574 108.447C138.532 108.436 138.494 108.424 138.454 108.419C138.325 108.406 138.282 108.449 138.278 108.503C138.273 108.532 138.281 108.566 138.292 108.593L138.311 108.639L138.438 108.859C138.851 109.584 139.304 110.287 139.67 111.029C140.553 112.821 141.746 114.455 142.362 116.414C142.621 117.24 143.101 118.303 144.043 118.959C144.475 119.263 144.745 120.223 145.151 120.838C145.486 121.344 145.973 121.743 146.268 122.258C146.521 122.695 146.591 123.24 146.757 123.731C146.806 123.877 146.895 124.043 146.997 124.162C147.163 124.357 147.333 124.577 147.476 124.771L147.565 124.789C147.607 124.799 147.615 124.818 147.626 124.872C147.648 124.873 147.678 124.894 147.725 124.902C147.749 124.908 147.778 124.913 147.809 124.911L147.837 124.911C147.837 124.911 147.938 124.867 147.982 124.844L148.31 124.69C149.176 124.279 150.036 123.85 150.849 123.333C153.377 121.736 156.044 120.307 158.706 118.907C160.056 118.192 161.492 117.544 162.845 117.68L162.487 118.931C162.489 118.803 162.508 118.69 162.532 118.575C162.677 117.931 163.094 117.705 163.682 118.181C163.707 118.203 163.732 118.225 163.764 118.25L163.971 118.428L163.569 118.918C163.241 119.322 162.838 119.743 162.38 120.053C161.605 120.598 160.824 121.14 160.069 121.667C158.484 122.749 157.059 124.065 155.205 124.829C154.631 125.068 154.127 125.639 153.467 125.52C153.373 125.503 153.137 125.6 153.046 125.683C152.263 126.433 151.372 127.039 150.438 127.577L149.733 127.972L148.571 128.604C147.775 129.03 146.979 129.456 146.184 129.881C145.753 129.074 145.33 128.296 144.891 127.534L144.536 126.925L144.353 126.62L144.209 126.385L143.74 125.683C143.417 125.22 143.096 124.762 142.773 124.3C142.134 123.377 141.521 122.44 141.067 121.387C139.981 120.549 139.346 119.212 138.872 118.029C138.204 116.355 137.397 114.752 136.533 113.181C136.101 112.395 135.655 111.615 135.208 110.835L132.959 106.889L135.116 105.669L136.952 104.648C140.997 102.467 144.963 100.147 148.987 97.9265C149.653 97.5561 150.083 96.9867 150.956 96.7265L153.293 96.0303L153.665 97.4694C153.665 97.4694 153.677 97.5124 153.682 97.5371C153.729 97.72 153.797 97.9003 153.884 98.0888L154.682 99.8443L153.182 100.534C152.502 100.845 151.807 101.359 151.119 101.743C150.316 102.193 149.537 102.766 148.713 103.07C147.007 103.707 145.406 104.546 143.835 105.437L141.488 106.8L140.313 107.479L139.722 107.809C139.546 107.91 139.262 108.062 139.262 108.062L138.669 108.362L138.987 108.985L140.014 110.837L141.088 112.713L141.639 113.643L141.708 113.76L141.741 113.816L141.748 113.834L141.801 113.898L141.896 114.025C141.979 114.136 142.066 114.23 142.141 114.296C142.249 114.201 142.347 114.11 142.424 114.032L142.535 113.92L142.585 113.869C142.585 113.869 142.579 113.866 142.631 113.835L142.765 113.751C143.484 113.297 144.217 112.864 144.984 112.486C145.826 112.069 146.546 111.334 147.608 111.313C147.909 111.307 148.482 110.544 148.999 110.232C150.288 109.461 151.61 108.746 152.925 108.012L155.305 106.69L156.987 105.755L157.903 107.412L158.214 107.98L159.099 109.575L157.499 110.472C156.656 110.943 155.822 111.42 154.993 111.912C153.898 112.56 152.907 113.358 151.826 114.028C150.692 114.728 149.519 115.385 148.333 115.994C147.581 116.382 146.818 116.742 146.05 117.104L144.908 117.649L144.764 117.721C144.712 117.741 144.736 117.731 144.717 117.739L144.662 117.75C144.629 117.762 144.588 117.768 144.551 117.782C144.481 117.809 144.419 117.844 144.375 117.882C144.453 117.995 144.544 118.087 144.595 118.173L144.763 118.478C144.84 118.629 144.915 118.774 144.992 118.924C145.14 119.222 145.276 119.518 145.389 119.824C145.814 120.925 146.324 121.982 146.869 123.02L147.525 124.222L147.8 124.687C148.005 124.565 148.197 124.453 148.405 124.351L150.365 123.288L152.393 122.166C153.742 121.408 155.08 120.639 156.399 119.835C157.897 118.925 159.504 118.512 160.991 117.669C161.687 117.277 163.257 117.827 163.183 118.353C163.17 118.454 163.097 118.593 162.999 118.685C161.739 119.847 160.707 121.133 159.007 122.037C156.504 123.376 154.049 124.806 151.572 126.198L151.557 126.188Z" fill="black"/>
<path d="M172.941 90.6077C172.063 90.1227 171.312 89.8849 170.267 89.8302C169.222 89.7754 168.316 89.9422 167.225 90.2924C166.133 90.6425 165.036 91.1535 163.961 91.7569C163.127 92.2238 162.212 92.834 161.43 93.4555C160.649 94.077 159.904 94.801 159.35 95.6096C158.796 96.4182 158.45 97.167 158.297 98.0845C158.142 99.0084 158.385 99.9415 158.823 100.714C159.26 101.487 159.867 102.157 160.771 102.463C161.667 102.766 162.431 102.808 163.467 102.707C164.498 102.608 165.536 102.327 166.623 101.978C167.71 101.63 168.916 101.188 170.058 100.829C171.202 100.474 172.57 100.032 173.689 99.7088C174.807 99.3853 175.824 99.1437 176.876 99.1107C177.934 99.0759 178.651 99.1783 179.552 99.5966C180.452 100.015 181.14 100.86 181.607 101.716C182.078 102.571 182.35 103.562 182.213 104.585C182.076 105.608 181.732 106.467 181.146 107.399C180.557 108.333 179.772 109.173 178.888 109.929C178.005 110.686 176.926 111.428 175.924 111.987C174.596 112.726 173.191 113.372 171.827 113.77C170.462 114.168 169.327 114.344 168.036 114.242C166.745 114.14 165.824 113.804 164.776 113.142C163.728 112.479 162.91 111.341 162.29 110.278C162.516 110.143 162.749 110.01 162.981 109.888C163.574 110.87 164.358 111.938 165.332 112.55C166.302 113.168 167.145 113.471 168.341 113.568C169.536 113.659 170.569 113.496 171.828 113.118C173.091 112.739 174.393 112.132 175.629 111.445C176.538 110.938 177.537 110.253 178.351 109.566C179.166 108.879 179.892 108.109 180.441 107.26C180.989 106.411 181.305 105.616 181.438 104.69C181.572 103.764 181.324 102.833 180.911 102.082C180.424 101.201 179.739 100.472 178.767 100.129C177.796 99.7914 176.965 99.7701 175.886 99.8716C174.81 99.9777 173.724 100.288 172.652 100.647C171.58 101.005 170.477 101.407 169.39 101.756C168.303 102.104 167.163 102.51 166.095 102.824C165.022 103.141 163.986 103.4 162.935 103.465C161.885 103.529 161.09 103.451 160.182 103.067C159.275 102.684 158.611 101.941 158.139 101.096C157.667 100.252 157.373 99.2066 157.511 98.1995C157.649 97.1924 157.994 96.375 158.591 95.4861C159.186 94.5926 159.967 93.823 160.826 93.113C161.685 92.403 162.716 91.7163 163.659 91.1857C164.819 90.5386 166.022 89.9812 167.205 89.6167C168.388 89.2522 169.366 89.0892 170.499 89.1469C171.636 89.2029 172.464 89.4692 173.418 90.0091C174.373 90.5491 175.178 91.5074 175.795 92.4013C175.569 92.5369 175.334 92.6652 175.104 92.7917C174.553 91.9675 173.834 91.0871 172.951 90.604L172.941 90.6077Z" fill="black"/>
<path d="M167.173 91.3134C165.035 92.097 162.848 93.3494 161.226 94.9123C160.634 95.4812 159.917 95.9822 159.925 96.8956C159.931 97.1104 159.749 97.2873 159.551 97.5071C159.352 97.7224 159.14 98.0007 159.101 98.3334C159.009 99.0261 159.234 99.8604 159.702 100.6C159.929 100.962 160.198 101.25 160.47 101.441C160.542 101.487 160.609 101.53 160.682 101.565C160.751 101.601 160.821 101.627 160.93 101.669C161.127 101.741 161.321 101.793 161.517 101.823C161.894 101.883 162.328 101.873 162.829 101.816C163.29 101.764 163.765 101.654 164.253 101.511C165.225 101.24 166.331 100.778 167.409 100.407C168.482 100.037 169.599 99.7094 170.7 99.3556C171.257 99.1815 171.773 99.0018 172.346 98.8003C172.943 98.5897 173.53 98.3827 174.107 98.1794C174.629 97.9979 175.204 97.8805 175.765 97.8372C176.283 97.7946 176.861 97.7924 177.471 97.868C178.08 97.9436 178.708 98.1024 179.264 98.315C179.884 98.5351 180.553 98.9052 181.083 99.3298C181.661 99.7829 182.118 100.321 182.474 100.866C182.833 101.404 183.138 102.064 183.303 102.736C183.476 103.416 183.529 104.148 183.412 104.887C183.308 105.526 183.118 106.124 182.841 106.682C182.025 108.297 180.841 109.382 179.772 110.481C179.096 111.162 178.561 111.91 177.677 112.466C177.276 112.717 176.777 112.943 176.355 113.181C175.937 113.418 175.553 113.699 175.295 114.117C175.253 114.187 174.817 114.287 174.588 114.308C173.496 114.43 172.291 114.861 171.459 115.291C170.628 115.725 169.711 115.811 168.788 115.804C168.157 115.795 167.549 115.751 166.869 115.607C166.202 115.469 165.517 115.222 164.929 114.92C164.636 114.77 164.361 114.612 164.111 114.449C163.805 114.255 163.507 114.027 163.249 113.804C162.734 113.348 162.324 112.871 161.968 112.395C161.621 111.926 161.345 111.445 161.098 110.969L163.99 111.763L163.384 112.03L164.109 109.254C164.37 109.819 164.653 110.356 164.995 110.784C165.173 111.012 165.374 111.199 165.573 111.344C165.679 111.419 165.758 111.467 165.877 111.533C166.017 111.611 166.148 111.681 166.276 111.743C166.795 111.997 167.214 112.136 167.72 112.342C168.805 112.762 169.911 112.635 171.117 112.287C171.79 112.105 172.679 112.03 173.005 111.299C173.033 111.235 173.282 111.128 173.412 111.115C175.657 110.846 176.914 108.943 178.357 107.726C178.735 107.404 179.069 107.052 179.343 106.675C179.615 106.304 179.864 105.863 180.017 105.481C180.173 105.092 180.268 104.673 180.298 104.28C180.322 103.964 180.274 103.633 180.16 103.285C180.102 103.101 180.053 102.887 179.945 102.701C179.835 102.511 179.653 102.328 179.383 102.289C179.192 102.247 178.939 101.969 178.892 101.813C178.86 101.693 178.812 101.59 178.758 101.51C178.732 101.472 178.706 101.435 178.677 101.404C178.64 101.365 178.554 101.314 178.497 101.278C178.239 101.124 178.02 101.05 177.733 101.024C177.592 101.01 177.433 101.003 177.252 101.01C177.07 101.016 176.875 101.029 176.707 101.041C176.359 101.076 175.997 101.132 175.62 101.188C175.185 101.251 174.724 101.367 174.255 101.507L172.791 101.965C171.812 102.271 170.815 102.51 169.766 102.658C168.871 102.773 167.733 103.062 166.848 103.867C166.429 104.236 165.288 104.33 164.402 104.521C163.655 104.679 163.009 104.967 162.135 104.946C161.772 104.933 161.393 104.837 161.036 104.706C160.667 104.569 160.369 104.409 160.017 104.233C159.783 104.123 159.495 103.986 159.258 103.882C158.677 103.637 158.174 103.265 157.772 102.86C157.366 102.446 157.073 102.03 156.82 101.567C156.312 100.62 156.049 99.5041 156.16 98.3378C156.233 97.7163 156.361 97.2851 156.535 96.7937C156.71 96.3178 156.937 95.8641 157.181 95.4515C157.432 95.0306 157.667 94.6902 157.961 94.3061C158.242 93.9319 158.539 93.5835 158.837 93.2505C160.047 91.9115 161.393 90.9486 162.876 90.0967C164.329 89.2885 165.904 88.5968 167.672 88.2063C168.667 87.9785 169.841 87.9513 170.783 88.2206C171.268 88.3499 171.742 88.5577 172.115 88.8365C172.493 89.1136 172.768 89.4461 172.938 89.7986C173.235 90.4511 172.95 90.8161 172.228 90.7686C171.686 90.7407 171.161 90.7805 170.649 90.7728C169.789 90.7468 169.003 90.9414 168.221 91.2292C166.562 91.8476 165.132 93.0709 163.481 93.8822C162.951 94.1514 162.588 94.7484 161.951 94.7258C161.863 94.7228 161.662 94.8539 161.604 94.9507C161.276 95.4755 160.96 95.9638 160.702 96.424C160.419 96.9261 160.185 97.3771 160.036 97.8219C159.994 97.9334 159.961 98.0521 159.933 98.1691L159.892 98.3491C159.884 98.3948 159.873 98.4359 159.867 98.4862C159.837 98.6671 159.833 98.87 159.86 99.0822C159.913 99.5065 160.091 99.9458 160.384 100.335C161.133 101.448 162.998 100.845 165.02 100.52C165.266 100.313 165.534 100.134 165.822 99.975C166.118 99.8121 166.452 99.6612 166.787 99.5413C167.455 99.2925 168.151 99.1279 168.801 98.997C169.946 98.764 171.105 98.5147 172.236 98.2076C173.339 97.9115 174.547 97.5424 175.942 97.3659C176.662 97.2872 177.303 97.255 178.09 97.3146C178.884 97.377 179.727 97.6269 180.403 97.9467C181.248 98.3493 181.891 98.9205 182.383 99.5078C182.883 100.113 183.245 100.698 183.557 101.403C183.866 102.11 184.07 102.894 184.113 103.719C184.136 104.124 184.11 104.568 184.048 104.947C183.993 105.307 183.916 105.676 183.812 106.034C183.372 107.498 182.624 108.668 181.737 109.723C180.847 110.757 179.847 111.612 178.808 112.36C177.771 113.112 176.633 113.761 175.509 114.299C174.739 114.667 174.161 115.257 173.078 115.387C172.567 115.448 172.03 115.593 171.459 115.746C170.884 115.901 170.256 116.06 169.626 116.109C168.474 116.202 167.283 116.241 166.167 115.811C165.556 115.572 164.976 115.262 164.468 114.93C164.203 114.757 163.993 114.612 163.723 114.414C163.452 114.213 163.209 114 162.985 113.78C162.093 112.903 161.471 111.969 160.911 111.042L160.135 109.755L161.442 109.003L162.215 108.559L163.477 107.83L164.291 109.13C164.63 109.671 165.001 110.173 165.383 110.581C165.573 110.782 165.771 110.965 165.959 111.109C166.118 111.233 166.392 111.401 166.635 111.535C167.244 111.875 167.826 112.03 168.611 112.085C169.352 112.137 170.068 112.049 170.865 111.84C171.669 111.633 172.423 111.345 173.194 110.977C173.95 110.614 174.738 110.181 175.398 109.728C176.232 109.155 176.996 108.466 177.631 107.764C178.271 107.06 178.774 106.34 179.173 105.629C179.339 105.331 179.386 105.006 179.447 104.675C179.463 104.594 179.48 104.503 179.499 104.432C179.515 104.378 179.536 104.322 179.56 104.26C179.609 104.14 179.679 104.007 179.781 103.846C179.841 103.753 179.748 103.578 179.601 103.402C179.457 103.219 179.272 103.069 179.158 102.896C178.868 102.447 178.571 102.155 178.286 102C178.209 101.956 178.146 101.933 178.054 101.895C177.927 101.849 177.811 101.815 177.691 101.787C177.452 101.731 177.218 101.701 176.945 101.695C176.754 101.69 176.546 101.697 176.321 101.716C176.084 101.733 175.875 101.751 175.667 101.785C175.242 101.844 174.795 101.943 174.332 102.07C173.428 102.321 172.378 102.708 171.376 103.065C170.153 103.519 168.972 104.116 167.729 104.573C166.48 105.042 165.006 105.515 163.281 105.624C162.744 105.647 162.238 105.642 161.639 105.579C161.054 105.509 160.426 105.362 159.865 105.14C159.352 104.942 158.684 104.603 158.192 104.19C157.684 103.779 157.279 103.311 156.947 102.841C156.282 101.882 155.738 100.806 155.536 99.5604C155.486 99.2512 155.463 98.9266 155.466 98.6021C155.47 98.2775 155.515 97.9211 155.569 97.6671C155.674 97.1124 155.87 96.5543 156.138 96.0686C157.135 94.2985 158.457 93.0219 159.785 91.9337C160.461 91.3851 161.148 90.8904 161.863 90.4269C162.588 89.9597 163.326 89.5511 164.1 89.1919C164.87 88.8346 165.673 88.5066 166.519 88.2464C167.343 87.9952 168.227 87.7735 169.184 87.6927C170.139 87.6184 171.048 87.6463 172.056 87.8637C172.55 87.9737 173.036 88.145 173.477 88.339C173.696 88.4392 173.911 88.5412 174.111 88.6487C174.331 88.7645 174.575 88.9132 174.78 89.0563C175.855 89.8142 176.427 90.7573 176.926 91.6545L177.713 93.0753L176.495 93.6071C176.23 93.7262 175.962 93.8407 175.697 93.9598L174.462 94.5033L173.96 93.533C173.759 93.1449 173.531 92.7832 173.251 92.4789C173.027 92.2324 172.978 91.7642 172.953 91.3025C172.934 90.8435 172.933 90.3727 173.205 90.2829C173.308 90.2429 173.487 90.258 173.635 90.3169C174.626 90.7582 175.475 91.371 176.212 92.0961L174.427 91.6564C174.604 91.4923 174.783 91.3327 174.973 91.1741L174.512 93.2656C174.163 92.9137 173.822 92.5535 173.493 92.1943C173.299 91.9835 173.102 91.7901 172.903 91.6342C172.804 91.5617 172.708 91.4874 172.61 91.4305C172.502 91.3663 172.356 91.2854 172.233 91.222C171.723 90.9648 171.269 90.8338 170.71 90.7757C170.13 90.7203 169.549 90.7398 168.973 90.8417C168.4 90.9371 167.752 91.1257 167.151 91.3381L167.173 91.3134Z" fill="black"/>
<path d="M175.511 85.149C181.653 81.6969 187.796 78.2448 193.938 74.7928C194.041 74.9805 194.151 75.1709 194.254 75.3586C191.293 77.0232 188.332 78.6878 185.372 80.3524C189.017 86.8864 192.66 93.4159 196.305 99.9499C196.077 100.081 195.842 100.209 195.614 100.34C191.969 93.8063 188.326 87.2769 184.68 80.7428L175.833 85.7175C175.73 85.5298 175.621 85.3394 175.517 85.1517L175.511 85.149Z" fill="black"/>
<path d="M181.5 80.6918C182.765 79.9828 184.037 79.2766 185.302 78.5676C185.746 79.3541 186.187 80.1359 186.643 80.9123C186.759 81.1055 186.86 81.3151 186.964 81.5184L187.116 81.825L187.251 82.0795C187.384 82.3139 187.573 82.5265 187.909 82.6608C188.245 82.7951 188.016 83.4985 188.273 83.9179C188.975 85.0487 189.551 86.2551 190.25 87.3923C190.925 88.4966 191.725 89.5363 192.4 90.6405C193.072 91.7356 193.492 93.013 194.341 93.9595C195.075 94.7814 195.164 95.8275 195.755 96.6728C196.356 97.5411 196.944 98.4568 197.287 99.4358L194.654 98.706C194.691 98.6915 194.724 98.6788 194.761 98.6642C194.98 98.5898 195.199 98.5154 195.419 98.4456L194.75 100.771C194.573 100.242 194.372 99.732 194.05 99.285C193.766 98.8921 193.302 98.6276 193.065 98.1635C192.846 97.7296 192.778 97.1361 192.098 97.0192C192.04 97.0099 192.02 96.774 192.031 96.6424C192.082 96.019 191.751 95.4696 191.325 95.1952C190.911 94.9327 190.754 94.5858 190.549 94.2415C189.989 93.2994 189.437 92.3536 188.952 91.3714C188.59 90.6382 188.372 89.8331 188.017 89.0917C187.649 88.3183 186.989 87.6373 186.834 86.8287C186.678 86.0156 186.298 85.3582 185.921 84.6835C185.707 84.3008 185.675 83.7303 185.019 83.6728C184.957 83.6653 184.881 83.5198 184.884 83.4339C184.887 83.3745 184.886 83.3169 184.879 83.2611C184.869 83.1961 184.88 83.1706 184.842 83.0635C184.786 82.8842 184.722 82.7131 184.655 82.5483C184.521 82.2189 184.352 81.9085 184.163 81.6009C183.786 80.9792 183.305 80.3398 182.82 79.6383C183.373 79.2274 184.019 78.7911 184.772 78.4346C185.34 78.1664 185.919 77.8725 186.412 77.6068C186.712 77.4531 187.002 77.2875 187.296 77.12C187.875 76.7731 188.454 76.4263 189.033 76.0794C189.345 75.9001 189.756 75.8463 189.851 75.3483C189.882 75.1719 190.204 74.978 190.412 74.9713C191.548 74.943 192.297 74.1486 193.235 73.7259L193.286 73.7059L192.549 76.2648C192.458 76.0671 192.36 75.8776 192.255 75.6854L194.893 76.4134C194.081 76.8666 193.319 77.4013 192.34 77.5753C191.819 77.6663 191.179 77.9152 190.91 78.6394C190.784 78.9692 190.174 79.0526 189.829 79.3087C189.546 79.5191 189.363 79.8816 189.067 80.06C188.815 80.2112 188.452 80.1828 188.143 80.2497C188.054 80.2686 187.956 80.3223 187.892 80.3898C186.695 81.7078 184.837 81.8896 183.423 82.8579C182.001 83.8343 180.447 84.634 178.901 85.4099C178.048 85.842 177.111 86.1852 176.057 85.6678C175.583 85.4334 175.343 85.0288 175.555 84.5914C175.712 84.2709 175.913 83.9386 176.184 83.7272C176.612 83.3809 177.039 83.0346 177.455 82.6983C178.332 82.0185 179.054 81.0915 180.178 80.7396C180.523 80.6317 180.757 80.2072 181.234 80.4351C181.301 80.4673 181.445 80.4219 181.486 80.3635C182.469 79.0386 184.074 78.6477 185.395 77.8484C186.52 77.1674 187.362 76.0825 188.639 75.6286C189.005 74.8086 189.804 74.4714 190.526 74.2493C191.396 73.98 192.213 73.62 193.003 73.207L194.723 72.3108L195.581 73.9211L195.883 74.4924L196.734 76.0843L195.175 76.9498C193.859 77.6788 192.605 78.5103 191.275 79.2072C190.436 79.6448 189.605 80.1053 188.781 80.5685L188.135 80.9362L187.913 81.0701C187.984 81.1909 188.044 81.2999 188.108 81.4289C188.321 81.8226 188.776 82.0112 188.824 82.5808C188.867 83.1149 189.329 83.5869 189.606 84.0831C189.861 84.5399 190.228 84.9641 190.349 85.4627C190.846 87.5154 192.158 89.1616 193.102 90.9824C194.044 92.7986 194.997 94.6158 196.113 96.3273C196.714 97.2485 197.457 98.0933 197.976 99.0673L198.86 100.726L197.251 101.59C197.123 101.661 196.987 101.724 196.85 101.788C196.745 101.834 196.649 101.893 196.553 101.962L195.09 102.944L193.95 101.241C193.713 100.883 193.409 100.546 193.559 99.995C193.612 99.794 193.029 99.5439 192.845 99.25C192.39 98.5266 191.998 97.7622 191.581 97.0133C191.002 95.9724 190.456 94.9187 189.832 93.9005C189.451 93.2806 188.919 92.7564 188.519 92.1437C188.103 91.5055 187.729 90.8353 187.407 90.1497C186.994 89.2774 186.691 88.357 186.266 87.4947C185.828 86.6004 185.114 85.8023 184.856 84.8591C184.775 84.5517 184.672 84.258 184.56 83.9679L184.387 83.5423C184.371 83.5011 184.357 83.4536 184.343 83.406C184.271 83.2166 184.169 83.0444 184.07 82.8924C183.919 82.988 183.778 83.08 183.625 83.1445L183.433 83.23L182.876 83.5257L181.703 84.1672C180.927 84.6013 180.158 85.0538 179.411 85.5346C178.562 86.0819 177.546 86.1643 176.688 86.6513C176.614 86.6959 176.508 86.7002 176.392 86.6816L174.817 86.4143L174.85 86.2535C174.947 85.76 175.557 85.0092 175.939 84.9772C176.028 84.9692 176.141 84.9942 176.204 85.0437C176.326 85.1446 176.456 85.2373 176.583 85.3254L175.413 85.0015C175.928 84.2824 176.387 83.5211 177.226 83.0945C178.682 82.3485 180.088 81.5055 181.51 80.7037L181.5 80.6918Z" fill="black"/>
</svg>
