<svg width="314" height="44" viewBox="0 0 314 44" fill="none" xmlns="http://www.w3.org/2000/svg">
<path d="M0.792614 0.363635H12.1705L24.1875 29.6818H24.6989L36.7159 0.363635H48.0938V44H39.1449V15.598H38.7827L27.4901 43.7869H21.3963L10.1037 15.4915H9.74148V44H0.792614V0.363635ZM64.9208 0.363635V44H55.695V0.363635H64.9208ZM109.01 0.363635V44H101.041L82.0568 16.5355H81.7372V44H72.5114V0.363635H80.608L99.4432 27.8068H99.8267V0.363635H109.01ZM132.101 44H116.632V0.363635H132.229C136.618 0.363635 140.397 1.23722 143.564 2.98438C146.732 4.71733 149.168 7.21023 150.873 10.4631C152.591 13.7159 153.451 17.608 153.451 22.1392C153.451 26.6847 152.591 30.5909 150.873 33.858C149.168 37.125 146.718 39.6321 143.522 41.3793C140.34 43.1264 136.533 44 132.101 44ZM125.858 36.0952H131.718C134.445 36.0952 136.739 35.6122 138.6 34.6463C140.475 33.6662 141.881 32.1534 142.819 30.108C143.77 28.0483 144.246 25.392 144.246 22.1392C144.246 18.9148 143.77 16.2798 142.819 14.2344C141.881 12.1889 140.482 10.6832 138.621 9.71733C136.76 8.75142 134.466 8.26847 131.739 8.26847H125.858V36.0952Z" fill="#012B36"/>
<path d="M162.288 0.363635H166.89L182.721 38.375H183.104L198.935 0.363635H203.538V44H199.788V8.77983H199.447L184.724 44H181.102L166.379 8.77983H166.038V44H162.288V0.363635ZM215.203 44H211.027L226.901 0.363635H231.162L247.036 44H242.859L229.18 5.54119H228.882L215.203 44ZM218.207 27.2741H239.855V30.8537H218.207V27.2741ZM246.775 3.94318V0.363635H278.415V3.94318H264.587V44H260.603V3.94318H246.775ZM287.385 44V0.363635H312.698V3.94318H291.37V20.3707H311.355V23.9503H291.37V40.4205H313.124V44H287.385Z" fill="#4AA16E"/>
</svg>
