<svg width="271" height="280" viewBox="0 0 271 280" fill="none" xmlns="http://www.w3.org/2000/svg">
<path fill-rule="evenodd" clip-rule="evenodd" d="M264.688 133.686C261.982 160.596 249.533 182.932 234.513 204.183C214.676 232.251 197.866 270.405 165.968 273.364C132.455 276.473 107.51 243.248 82.3651 218.296C51.947 188.113 0.627421 161.389 8.09358 116.706C15.6895 71.2462 73.3743 68.3602 110.741 48.4758C133.053 36.6021 154.381 25.0638 179.089 25.7112C204.919 26.3881 232.674 30.5091 249.806 52.1199C266.924 73.7124 267.571 105.021 264.688 133.686Z" fill="#71C67D"/>
<path d="M91.2239 174.682C88.323 179.067 85.7758 183.803 83.8308 188.848C83.4772 189.793 82.9799 190.676 82.6429 191.652C82.2948 192.621 82.0516 193.653 82.2063 194.851C82.339 196.018 80.6261 197.426 80.1564 199.266C78.9242 204.219 77.6921 209.22 77.1616 214.352C77.029 215.599 76.924 216.847 76.8743 218.1C76.7969 219.348 76.7803 220.601 76.7638 221.855C76.7251 223.102 76.7804 224.356 76.7748 225.603V225.838V225.955V226.005L76.7969 226.171L76.8301 226.493L76.8798 227.079C76.9185 227.264 77.0014 227.499 77.1837 227.567C77.2721 227.592 77.366 227.604 77.46 227.623L77.6092 227.647C77.6865 227.654 77.6092 227.666 78.007 227.672C80.3387 227.728 82.6429 227.715 84.8696 227.369C88.7319 226.777 92.213 227.839 95.9095 227.586C99.827 227.32 103.883 227.153 107.717 227.654C110.513 228.018 113.282 228.481 116.061 228.253C117.796 228.11 119.415 227.431 121.31 227.481C123.062 227.524 125.062 228.098 126.587 226.77C126.714 226.659 127.504 226.9 127.902 227.079C129.797 227.944 132.118 227.882 133.704 227.295C135.251 226.721 136.615 226.795 138.052 226.764C141.997 226.69 145.954 226.641 149.893 226.77C152.849 226.869 155.783 227.369 158.739 227.493C161.817 227.623 165.11 227.024 167.95 227.66C170.807 228.302 173.537 228.271 176.332 228.271C177.924 228.271 179.78 228.882 181.084 227.536C181.206 227.413 181.803 227.425 182.073 227.536C186.61 229.284 191.069 226.987 195.661 227.425C200.396 227.87 205.258 227.555 210.06 227.505C211.342 227.493 212.712 227.882 213.889 226.912C214.099 226.74 214.535 226.647 215.005 226.628H215.077V226.653C215.077 226.653 215.094 226.721 215.11 226.783C215.204 227.104 215.431 227.345 215.624 227.388C215.817 227.419 215.922 227.258 215.928 227.092C215.928 227.067 215.928 226.962 215.917 226.882L215.9 226.628L215.856 226.134L215.834 225.739L215.801 225.004C215.784 224.516 215.773 224.029 215.779 223.541C215.79 219.076 214.784 214.766 214.939 210.19C214.955 209.22 214.917 208.078 214.652 206.942C214.364 205.812 213.928 204.669 213.11 203.737C212.74 203.311 212.563 202.539 212.397 201.687C212.22 200.841 212.066 199.902 211.8 199.149C211.32 197.92 210.502 196.882 210.065 195.678C209.712 194.647 209.778 193.424 209.574 192.288C209.518 191.948 209.38 191.566 209.203 191.288C207.491 188.614 206.341 185.748 205.12 182.852C203.904 179.975 202.623 177.06 200.755 174.615C197.02 169.711 193.052 165.006 188.522 161.14C186.024 158.985 183.471 156.935 182.366 153.705C181.875 152.229 182.256 151.143 183.858 151.235C185.041 151.278 186.345 151.55 187.51 152.112C189.334 153.082 191.201 154.039 192.892 155.206C194.677 156.379 196.467 157.565 198.191 158.917C199.876 160.307 201.501 161.869 202.733 163.87C203.125 164.481 203.689 165.006 204.131 165.605C204.579 166.198 204.949 166.834 204.91 167.649C204.899 167.877 205.181 168.402 205.391 168.581C207.728 170.545 209.524 173.151 210.994 175.961C212.474 178.77 213.668 181.753 214.95 184.631C216.016 187.095 217.276 189.423 218.337 191.88C219.425 194.32 220.326 196.876 220.768 199.624C222.669 202.199 223.194 205.843 223.349 208.955C223.603 214.451 224.012 219.842 224.222 225.264L224.233 225.517C224.233 225.603 224.244 225.665 224.233 225.819L224.211 226.61L224.172 228.191L224.133 229.778L224.117 230.574C224.1 230.84 224.133 231.105 224.05 231.365C223.829 232.408 223.409 233.396 222.835 234.267C222.255 235.126 221.475 235.867 220.63 236.317C220.221 236.546 219.785 236.682 219.332 236.83L218.602 236.984L217.823 237.046L214.828 237.065C213.662 237.065 212.502 237.065 211.342 237.04C201.91 236.848 192.461 237.04 183.024 236.953C181.416 236.941 180.035 237.701 178.15 237.114C176.382 236.564 174.095 236.997 172.034 236.997C170.144 236.997 168.166 237.281 166.387 236.947C159.016 235.552 151.551 236.391 144.141 236.243C136.765 236.095 129.361 235.959 122.006 236.305C117.52 236.515 113.055 237.25 108.524 236.966C106.596 236.848 104.562 237.565 102.656 236.317C102.115 235.965 100.313 236.923 99.0756 236.966C95.9924 237.071 92.8981 237.003 89.8094 237.003L83.3722 236.972H80.1564L76.3162 237.034C75.7195 237.034 75.1061 237.089 74.5204 237.052C74.2165 237.052 73.9403 237.015 73.6585 236.966C73.3711 236.935 73.1225 236.848 72.8628 236.78C71.8682 236.527 70.846 235.885 70.0393 235.014C69.2271 234.144 68.6248 233.063 68.2325 231.89L68.0999 231.439C68.0722 231.291 68.0722 231.136 68.0557 230.982L67.9838 230.056L67.8623 228.178L67.7518 226.19L67.7241 225.69V225.381L67.7407 224.776C67.7573 223.967 67.7849 223.164 67.8181 222.355C67.9341 220.743 68.0336 219.132 68.2656 217.539C68.7795 213.494 69.7464 209.566 70.625 205.633C71.5367 201.569 72.1224 197.154 73.8187 193.535C75.3935 190.182 76.7804 186.811 78.2612 183.464C79.7365 180.123 81.3057 176.819 83.1899 173.719C86.9361 167.569 91.3952 161.931 96.4178 156.935C97.86 155.527 99.4402 154.459 101.065 153.532C101.882 153.075 102.684 152.606 103.512 152.18C103.921 151.958 104.33 151.729 104.734 151.488C105.143 151.26 105.557 151.031 105.96 150.784C106.712 150.303 107.949 150.5 108.922 150.988C109.894 151.47 110.618 152.242 110.519 152.884C110.48 153.131 110.325 153.452 110.121 153.65C109.463 154.273 108.845 154.922 108.264 155.613L107.391 156.626C107.11 156.978 106.822 157.324 106.535 157.664C105.375 159.016 104.203 160.368 102.695 161.554C98.2744 165.136 94.4894 169.724 91.2018 174.682H91.2239Z" fill="black"/>
<path d="M123.918 82.9372C120.365 85.469 117.127 88.606 114.503 92.2988C114.027 92.9966 113.442 93.608 112.967 94.3305C112.519 95.0715 112.116 95.8743 112.127 96.9611C112.127 97.4983 111.657 97.9121 111.132 98.4123C110.618 98.9187 109.966 99.4621 109.662 100.203C108.784 102.173 108.016 104.198 107.32 106.255C106.634 108.317 106.12 110.448 105.761 112.609C105.142 116.833 105.297 121.125 105.723 125.299C105.899 127.374 106.087 129.48 106.43 131.549C106.761 133.617 107.347 135.618 108.215 137.39C108.629 138.144 108.922 138.916 109.209 139.675C109.519 140.428 109.723 141.219 110.005 141.966C110.276 142.726 110.519 143.498 110.856 144.226C111.016 144.591 111.187 144.961 111.364 145.319C111.552 145.677 111.767 146.011 111.989 146.344C112.922 147.771 113.972 149.129 114.967 150.513C116 151.865 117 153.236 117.967 154.607C119.359 156.62 120.868 158.621 122.874 159.868C123.487 160.269 124.183 160.486 124.846 160.764C125.52 161.023 126.211 161.258 126.858 161.714C127.471 162.097 128.079 162.622 128.747 162.968C129.427 163.283 130.14 163.462 130.93 163.104C131.062 163.042 131.56 163.518 131.797 163.82C132.355 164.555 133.118 165.018 133.886 165.339C134.659 165.636 135.472 165.704 136.14 165.617C136.809 165.494 137.395 165.518 137.953 165.605C138.516 165.691 139.063 165.784 139.621 165.889C142.71 166.408 145.849 166.519 148.97 166.414C151.308 166.346 153.695 166.451 156.037 165.926C158.496 165.389 160.784 163.845 163.088 163.369C165.431 162.888 167.409 161.628 169.299 160.208C169.835 159.794 170.481 159.454 171.034 159.01C171.564 158.534 171.973 157.935 172.006 157.052C172.017 156.892 172.387 156.552 172.614 156.472C174.537 155.836 175.774 154.218 176.819 152.52C177.846 150.778 178.631 148.907 179.836 147.339C181.057 145.696 182.084 143.843 182.913 141.873C183.726 139.897 184.416 137.86 184.969 135.791C185.14 135.247 185.339 134.692 185.472 134.124C185.599 133.555 185.61 132.963 185.284 132.339C185.052 131.894 185.284 130.752 185.565 130.221C185.974 129.511 186.3 128.751 186.477 127.955C186.671 127.164 186.803 126.349 186.836 125.522L186.897 124.28C186.903 123.867 186.892 123.453 186.897 123.039C186.897 122.625 186.897 122.212 186.908 121.798C186.897 121.384 186.903 120.977 186.914 120.563C187.008 118.686 186.737 116.821 186.521 114.968C186.245 113.115 186.024 111.263 185.985 109.293C186.008 107.62 185.494 105.384 183.825 104.081C183.427 103.791 183.178 103.18 182.957 102.488C182.731 101.796 182.471 101.043 182.145 100.462C181.874 99.987 181.477 99.5979 181.117 99.2027C180.935 99.0051 180.753 98.8075 180.587 98.6037C180.41 98.4061 180.25 98.1962 180.112 97.9677C179.88 97.5786 179.747 97.1217 179.631 96.64C179.499 96.1707 179.388 95.6767 179.222 95.2135C179.123 94.9418 178.952 94.6454 178.742 94.4663C176.774 92.7125 175.261 90.6809 173.619 88.6616C171.995 86.6547 170.227 84.6662 168.05 83.3509C163.696 80.7203 159.11 78.491 154.264 77.2066C151.584 76.4964 148.871 75.8419 146.92 73.4273C146.042 72.3096 145.992 71.1425 147.324 70.4879C147.81 70.2533 148.34 70.0063 148.893 69.8457C149.446 69.6913 150.015 69.5925 150.584 69.574C151.49 69.5431 152.402 69.5864 153.313 69.5864C154.22 69.6234 155.126 69.6852 156.015 69.7778C157.855 70.0248 159.751 70.1606 161.613 70.6053C162.077 70.7164 162.546 70.8276 163.011 70.9634C163.469 71.1178 163.922 71.2845 164.375 71.4698C165.287 71.8156 166.149 72.3405 166.983 72.9148C167.503 73.2791 168.122 73.5323 168.691 73.8473C169.26 74.156 169.741 74.5945 169.934 75.3417C169.989 75.5454 170.376 75.8913 170.614 75.953C173.2 76.7002 175.482 78.3243 177.498 80.2757C179.526 82.227 181.261 84.5242 183.013 86.7164C183.394 87.1796 183.775 87.6365 184.145 88.1058C184.527 88.5628 184.913 89.026 185.295 89.4829C186.035 90.4216 186.814 91.3355 187.51 92.3297C188.24 93.2992 188.875 94.349 189.478 95.4235C189.77 95.9669 190.025 96.5412 190.273 97.1155C190.395 97.4057 190.516 97.696 190.627 97.9924C190.726 98.295 190.826 98.5975 190.914 98.9063C191.997 99.9067 192.743 101.271 193.296 102.723C193.55 103.457 193.754 104.217 193.925 104.964C194.086 105.718 194.18 106.477 194.274 107.2C194.561 109.762 194.843 112.282 195.014 114.814C195.218 117.333 195.301 119.859 195.312 122.378C195.312 124.898 195.169 127.43 194.892 129.937C194.566 132.438 194.152 134.939 193.439 137.347C190.699 147.129 185.715 156.188 178.775 162.925C177.603 164.061 176.968 165.617 175.167 166.364C174.321 166.704 173.514 167.315 172.664 167.945C171.835 168.612 170.962 169.279 170.094 169.841C169.293 170.347 168.475 170.86 167.663 171.373C166.829 171.829 165.989 172.256 165.132 172.472C161.585 173.355 158.165 174.324 154.656 175.028C151.164 175.732 147.589 176.152 144.042 175.905C136.969 175.411 130.068 173.151 123.691 169.785C121.746 168.748 119.785 167.704 117.934 166.42C116.066 165.166 114.304 163.684 112.779 161.906C112.132 161.146 111.342 160.51 110.685 159.726C110.005 158.967 109.463 158.059 109.292 156.879C109.242 156.546 108.773 156.175 108.237 155.718C107.701 155.268 107.049 154.792 106.69 154.242C104.839 151.606 103.325 148.672 102.021 145.647C100.23 141.429 98.954 136.952 98.0533 132.407C97.4842 129.64 96.7659 126.88 96.5338 124.002C96.2852 121.001 96.4399 117.932 96.8709 114.956C97.429 111.17 98.5838 107.57 99.7828 104.05C100.087 103.13 100.391 102.204 100.7 101.278C100.987 100.339 101.346 99.425 101.684 98.5111C102.021 97.591 102.441 96.7265 102.849 95.8743C103.28 95.0344 103.783 94.244 104.303 93.5092C106.325 90.8229 108.242 88.1676 110.303 85.6296C112.359 83.0977 114.558 80.6956 117.039 78.6763C121.962 74.6624 127.51 71.6859 133.3 69.6234C134.947 69.0244 136.615 68.8577 138.257 68.8021C139.898 68.7403 141.517 68.8021 143.169 68.6724C143.942 68.5798 144.882 69.3702 145.506 70.2533C146.136 71.1487 146.462 72.1799 146.169 72.7234C146.058 72.9271 145.826 73.1495 145.594 73.2359C144.114 73.7485 142.754 74.4833 141.389 75.1564C140.71 75.5146 140.014 75.7863 139.306 76.1012C138.594 76.3914 137.853 76.6014 137.063 76.799C134.726 77.3177 132.427 78.1143 130.228 79.1579C128.029 80.2139 125.924 81.4922 123.912 82.9372H123.918Z" fill="black"/>
<path d="M103.352 70.3274C102.584 69.0244 101.86 67.6844 101.026 66.4308C100.711 65.9676 100.733 65.239 99.7994 65.2019C99.3352 65.1834 99.8104 64.1583 99.5176 63.7322C98.7164 62.5774 98.1141 61.2745 97.324 60.1135C96.556 58.9835 95.6 57.9954 94.8265 56.8715C94.064 55.7538 93.6993 54.2841 92.655 53.4381L92.5721 53.3702C92.5721 53.3702 92.55 53.3702 92.5389 53.3702C92.5224 53.3702 92.5058 53.3702 92.4947 53.3702C92.4726 53.3702 92.4616 53.364 92.4561 53.3455C92.4505 53.3146 92.4671 53.2529 92.4837 53.1726C92.5224 53.0182 92.5334 52.7588 92.445 52.7835C92.2571 52.8268 92.2516 53.0429 92.1466 52.1845C92.0914 51.777 91.9974 51.2397 91.898 50.931C91.8593 50.9125 91.8262 50.9927 91.8206 51.2027C91.7985 51.5856 91.9477 52.5859 91.9146 52.5798C91.898 52.5798 91.8317 52.4501 91.8206 52.518C91.8096 52.5798 91.8593 52.8391 92.119 53.4875C92.1632 53.5925 92.0693 53.3702 91.9864 53.2158C91.6107 52.4871 91.5444 52.8144 91.8317 53.2158C92.1135 53.6048 92.0859 53.5369 92.0914 53.574L92.1024 53.5925H92.108C92.108 53.5925 92.1245 53.5678 92.0914 53.6728L91.8262 54.5188C91.6438 55.0807 91.4449 55.6365 91.2184 56.1799C90.8758 56.995 90.2846 57.699 89.9254 58.508C89.627 59.2614 89.4171 60.1568 89.1739 61.0089C88.9308 61.8611 88.6435 62.701 88.2457 63.2073C87.4555 64.1954 87.0632 65.4613 86.6046 66.8445C86.4775 67.2336 86.2897 67.4682 86.1626 67.8758C86.0355 68.2895 85.9636 68.8947 86.0244 70.1606C86.0355 70.3953 85.925 70.6917 85.8531 70.6855C85.4553 70.6423 85.1956 71.1178 84.9636 71.9514C84.5878 71.4018 84.2287 71.1487 83.8253 70.7534C83.4275 70.3644 82.9854 69.8395 82.571 68.9317C81.9301 67.5423 81.3057 66.4308 80.6426 65.3439C79.9685 64.2633 79.2889 63.1764 78.6148 62.102C78.2446 61.4906 78.1009 60.7125 77.2334 60.5705C77.1616 60.5581 77.0677 60.4902 76.9958 60.4346C76.9406 60.4038 76.8909 60.3605 76.8466 60.305C76.7638 60.1938 76.7196 60.0456 76.7361 59.9159C76.9516 58.4709 75.9405 57.8534 75.5205 56.8407C75.0454 55.6859 74.0784 54.8831 74.0287 53.4011C74.0066 52.7712 73.78 52.061 72.7689 52.0363C72.3047 52.024 72.3213 51.2706 72.0229 50.9433C71.7743 50.6716 71.2715 50.5975 71.0781 50.2949C70.9123 50.0356 71.0339 49.5601 71.0062 49.1896C70.9952 49.0784 70.9399 48.9796 70.8571 48.9302C69.1607 47.973 69.3155 45.6697 68.1938 44.2803C67.0611 42.8847 66.2267 41.242 65.4145 39.5994C64.9669 38.6917 64.6685 37.6419 65.6797 36.061C66.1328 35.3509 66.7903 34.863 67.3926 34.9433C67.8346 35.0051 68.2877 35.1162 68.5364 35.3694C68.9397 35.777 69.3928 36.1475 69.7851 36.5489C70.6029 37.3764 71.813 37.9013 72.0837 39.1795C72.1666 39.5747 72.7468 39.6921 72.2992 40.396C72.2384 40.4949 72.2716 40.6616 72.3489 40.6925C74.095 41.3717 74.3215 43.2552 75.2111 44.6075C75.9736 45.7561 77.3937 46.3551 77.7805 47.794C78.9187 47.9051 79.2447 48.7758 79.4105 49.6095C79.7088 51.0792 80.3332 52.3081 81.0515 53.469C81.4107 54.0495 81.7864 54.6176 82.1566 55.1919C82.3389 55.4759 82.5268 55.7662 82.6981 56.0564C82.8197 56.2602 82.781 56.1923 82.8086 56.2417C82.8197 56.2664 82.8307 56.2972 82.8418 56.3281C82.9081 56.5566 83.0296 56.7789 83.1457 56.958C83.2617 57.1432 83.3722 57.2976 83.4882 57.5014C83.5103 57.4458 83.5324 57.3964 83.5545 57.347C83.5711 57.31 83.538 57.0074 83.5159 56.8283C83.4938 56.6431 83.4883 56.5751 83.5877 56.8962C83.6872 57.1927 83.7203 57.1556 83.7258 57.0506C83.7314 56.9456 83.7093 56.7789 83.7258 56.7295C83.7645 56.6122 83.654 56.3343 83.8474 56.4763C84.0574 56.5998 84.2231 56.5442 84.3502 56.4269C84.3834 56.396 84.411 56.3652 84.4386 56.3281C84.4552 56.3096 84.4607 56.2972 84.4773 56.2664L84.5547 56.0749C84.6541 55.8156 84.748 55.5562 84.8309 55.2907C85.1735 54.2285 85.4111 53.1294 85.8089 52.0919L86.1018 51.32L86.5272 50.1344C86.8367 49.2698 87.135 48.4053 87.4279 47.5346C88.0136 45.7932 88.5606 44.0333 89.0966 42.051C89.5276 40.4516 89.9309 38.4261 90.4282 36.6106C90.8205 37.1726 91.2294 37.8457 91.6438 38.6732C91.9035 39.1981 92.1687 39.4451 92.445 39.8959C92.7158 40.3405 92.9865 40.9889 93.1688 42.1436C93.2186 42.4709 93.3788 42.5389 93.5832 42.6068C93.7822 42.6747 94.0363 42.755 94.2076 43.0205C95.0696 44.3358 95.8984 45.8426 96.7328 47.2629L98.2357 49.8565C98.5506 50.4061 98.8766 50.9433 99.2303 51.462C99.6612 52.0919 100.341 52.5304 100.799 53.1417C101.28 53.7778 101.695 54.4817 102.032 55.2289C102.463 56.1737 102.722 57.2297 103.17 58.1622C103.634 59.1255 104.518 59.8356 104.706 60.9472C105.054 63.0159 106.314 64.4053 107.198 66.0726C108.077 67.7338 108.972 69.3825 110.066 70.8769C110.685 71.7291 110.58 72.995 111.11 73.8843C111.359 74.298 109.939 76.1444 109.242 76.4099C109.11 76.4593 108.95 76.484 108.867 76.447C107.8 75.9777 106.469 75.8109 105.938 74.7673C105.154 73.2297 104.22 71.7971 103.347 70.315L103.352 70.3274Z" fill="black"/>
<path d="M186.527 69.4752C187.604 68.5366 188.715 67.6473 189.743 66.6346C190.124 66.2579 190.759 66.2332 190.71 65.1958C190.682 64.6771 191.627 65.1402 191.975 64.782C192.914 63.8187 194.008 63.0591 194.959 62.1082C195.881 61.1819 196.666 60.058 197.583 59.1255C198.042 58.6624 198.583 58.3104 199.092 57.9214C199.346 57.7237 199.595 57.52 199.816 57.2915C199.926 57.1742 200.031 57.0507 200.131 56.921C200.18 56.853 200.224 56.7851 200.274 56.7172C200.318 56.6493 200.379 56.5566 200.346 56.5443C200.269 56.3343 200.335 56.3837 200.49 56.4023C200.633 56.427 200.865 56.4208 200.832 56.3282C200.772 56.1305 200.573 56.1429 201.335 55.9515C201.661 55.8712 202.07 55.7415 202.346 55.618C202.396 55.5624 202.33 55.5192 202.12 55.5254C201.788 55.5254 200.932 55.7724 200.932 55.7353C200.926 55.7168 201.037 55.6304 200.976 55.6242C200.921 55.6242 200.7 55.6921 200.158 56.0317C200.07 56.0873 200.258 55.9638 200.385 55.865C200.987 55.3895 200.7 55.3401 200.374 55.6921C200.053 56.0379 200.114 56.0009 200.086 56.0132L200.07 56.0317H200.064V56.0379L200.015 56.0256L199.921 56.0009L199.164 55.7662C198.661 55.6057 198.163 55.4204 197.672 55.2104C196.937 54.8893 196.29 54.2842 195.561 53.9445C194.356 53.4443 192.373 53.2529 191.417 52.4378C190.494 51.6288 189.367 51.283 188.135 50.8693C187.787 50.7519 187.571 50.5605 187.207 50.4555C186.836 50.3444 186.306 50.3135 185.212 50.474C185.007 50.5049 184.742 50.4061 184.742 50.3197C184.753 49.8195 184.212 49.5663 183.317 49.3563C183.687 48.9426 183.864 48.5474 184.168 48.0966C184.46 47.6581 184.88 47.1641 185.599 46.6639C186.77 45.8611 187.687 45.0892 188.582 44.2803C189.472 43.459 190.362 42.6377 191.246 41.8226C191.748 41.3718 192.428 41.1495 192.456 40.2047C192.461 40.0379 192.605 39.8218 192.793 39.6427C192.881 39.5439 193.008 39.4821 193.124 39.4945C194.412 39.6365 194.865 38.4756 195.716 37.9445C196.688 37.3393 197.307 36.2155 198.606 36.0672C199.153 36.0055 199.76 35.7029 199.694 34.5852C199.661 34.0727 200.324 34.0418 200.589 33.6836C200.805 33.3934 200.821 32.8314 201.075 32.5968C201.291 32.3992 201.716 32.498 202.037 32.4424C202.131 32.4239 202.214 32.3559 202.252 32.2571C202.943 30.3181 204.982 30.3366 206.104 28.9966C207.231 27.6504 208.596 26.613 209.966 25.6064C210.723 25.0507 211.618 24.6493 213.099 25.6558C213.767 26.1128 214.248 26.8044 214.232 27.4775C214.22 27.9715 214.16 28.4779 213.961 28.7743C213.64 29.2498 213.353 29.7747 213.038 30.2317C212.386 31.1888 212.032 32.5659 210.933 32.9549C210.59 33.0784 210.546 33.7207 209.883 33.2761C209.789 33.2143 209.651 33.2637 209.629 33.3502C209.187 35.3262 207.551 35.7029 206.446 36.7836C205.507 37.7037 205.103 39.3154 203.877 39.8403C203.877 41.1062 203.142 41.52 202.429 41.767C201.164 42.1931 200.142 42.9712 199.186 43.8419C198.705 44.2741 198.241 44.7373 197.771 45.1819L197.086 45.8179C197.047 45.855 197.003 45.8858 196.953 45.9105C196.76 45.997 196.583 46.1452 196.434 46.2811C196.279 46.4231 196.163 46.5528 195.998 46.6825C196.058 46.701 196.108 46.7257 196.158 46.7504C196.191 46.7689 196.451 46.7072 196.605 46.6701C196.766 46.6331 196.821 46.6207 196.55 46.7566C196.301 46.8862 196.335 46.9233 196.428 46.9233C196.522 46.9233 196.661 46.8862 196.705 46.8986C196.81 46.9295 197.042 46.7874 196.937 47.0159C196.843 47.2568 196.909 47.442 197.02 47.5717C197.047 47.6026 197.081 47.6334 197.114 47.6581L197.141 47.6767L197.224 47.7137L197.395 47.7878C197.628 47.8805 197.86 47.9669 198.097 48.041C199.042 48.3436 200.02 48.535 200.948 48.8994C201.595 49.1711 203.496 49.8565 204.976 50.3567C206.535 50.8816 208.104 51.3633 209.866 51.8141C211.369 52.1969 213.292 52.5119 214.966 52.9688C214.546 53.3887 214.038 53.8334 213.425 54.2903C212.983 54.6176 212.795 54.9264 212.425 55.2537C212.06 55.581 211.507 55.9329 210.491 56.2232C210.203 56.3034 210.165 56.4825 210.126 56.7048C210.087 56.9272 210.043 57.205 209.828 57.415C208.75 58.4524 207.502 59.4713 206.33 60.4964L204.065 62.4416C203.612 62.8307 203.17 63.2259 202.744 63.652C202.23 64.1707 201.904 64.9549 201.407 65.5045C200.888 66.0788 200.307 66.5852 199.689 67.0051C198.898 67.5424 197.992 67.9067 197.213 68.4625C196.406 69.0368 195.859 70.0618 194.903 70.3459C193.119 70.8708 192.008 72.359 190.621 73.4459C189.24 74.5265 187.87 75.6319 186.654 76.941C185.963 77.6821 184.836 77.6512 184.107 78.2996C183.764 78.6022 182.018 77.1572 181.72 76.41C181.664 76.2679 181.631 76.0889 181.653 75.9962C181.968 74.7859 181.996 73.3038 182.869 72.6431C184.151 71.6736 185.328 70.5435 186.549 69.4814L186.527 69.4752Z" fill="black"/>
<path d="M144.826 52.5057C144.876 50.9434 144.987 49.3872 144.948 47.8249C144.937 47.2444 145.329 46.6639 144.583 46.0279C144.213 45.7129 145.136 45.188 145.114 44.6508C145.058 43.1934 145.241 41.7361 145.202 40.2787C145.163 38.8584 144.893 37.4381 144.848 36.0178C144.804 34.6099 145.274 33.1834 144.86 31.8125L144.832 31.7014C144.832 31.7014 144.815 31.6828 144.804 31.6767C144.788 31.6705 144.777 31.6581 144.766 31.652C144.749 31.6396 144.743 31.6273 144.749 31.6087C144.76 31.5779 144.804 31.5408 144.86 31.4852C144.97 31.3802 145.114 31.1826 145.031 31.1456C144.854 31.0591 144.738 31.232 145.097 30.4601C145.263 30.0958 145.462 29.5956 145.545 29.2807C145.523 29.2374 145.456 29.2807 145.34 29.4474C145.125 29.7438 144.727 30.6577 144.699 30.633C144.683 30.6269 144.699 30.4725 144.655 30.5219C144.616 30.5651 144.522 30.8121 144.395 31.5099C144.373 31.6273 144.412 31.3802 144.429 31.2012C144.5 30.3613 144.274 30.5836 144.301 31.1024C144.329 31.6026 144.34 31.5285 144.329 31.5593V31.584V31.5964C144.324 31.6087 144.357 31.584 144.279 31.6458L143.622 32.1645C143.18 32.5041 142.732 32.8252 142.263 33.1217C141.561 33.5663 140.715 33.7515 140.003 34.1776C139.373 34.5975 138.732 35.1904 138.091 35.7276C137.45 36.2648 136.781 36.7589 136.196 36.9194C135.041 37.2158 134.063 37.9877 132.969 38.8152C132.659 39.0499 132.389 39.1178 132.074 39.371C131.753 39.6303 131.383 40.075 130.781 41.1433C130.67 41.3409 130.427 41.5138 130.372 41.4582C130.068 41.1618 129.615 41.3841 128.99 41.9152C128.968 41.2235 128.808 40.7851 128.686 40.2046C128.565 39.6303 128.477 38.914 128.609 37.9075C128.808 36.3637 128.874 35.0483 128.896 33.733C128.908 32.4177 128.919 31.09 128.93 29.7809C128.946 29.0398 129.228 28.3173 128.604 27.6381C128.548 27.5825 128.51 27.4652 128.477 27.3725C128.449 27.3108 128.427 27.2428 128.427 27.1687C128.416 27.0267 128.454 26.8785 128.543 26.7797C129.471 25.7423 128.963 24.5875 129.151 23.4883C129.361 22.2347 128.99 20.9626 129.72 19.7214C130.029 19.1965 130.212 18.4679 129.399 17.7948C129.029 17.486 129.432 16.8808 129.361 16.4177C129.3 16.0348 128.93 15.6519 128.93 15.2753C128.93 14.9541 129.278 14.6516 129.443 14.3305C129.493 14.2378 129.499 14.1205 129.455 14.0217C128.57 12.1444 129.891 10.366 129.698 8.50722C129.499 6.63613 129.67 4.75886 129.863 2.89395C129.968 1.86886 130.267 0.812889 131.913 0.183016C132.654 -0.101044 133.438 -0.070167 133.886 0.386799C134.217 0.720261 134.527 1.10313 134.599 1.47364C134.715 2.06647 134.892 2.66546 135.008 3.23976C135.245 4.44393 135.958 5.65426 135.516 6.87078C135.378 7.24747 135.792 7.7168 135.063 8.00703C134.963 8.04408 134.903 8.20463 134.952 8.27873C136.024 9.96457 135.229 11.6442 135.256 13.3239C135.278 14.7504 136.129 16.1645 135.698 17.5848C136.566 18.4123 136.378 19.3324 136.085 20.1228C135.566 21.5122 135.439 22.9202 135.422 24.3281C135.411 25.0321 135.422 25.7423 135.433 26.4462C135.433 26.7982 135.433 27.1502 135.428 27.5022V27.6813L135.417 27.7245C135.417 27.7554 135.405 27.7863 135.4 27.8171C135.334 28.0456 135.323 28.305 135.317 28.5273C135.317 28.7558 135.328 28.9534 135.312 29.1942C135.356 29.1633 135.4 29.1325 135.444 29.1139C135.477 29.0954 135.604 28.8299 135.682 28.6631C135.765 28.4964 135.787 28.4408 135.704 28.7681C135.632 29.0769 135.676 29.0645 135.737 28.9843C135.798 28.904 135.864 28.7558 135.903 28.7249C135.991 28.657 136.046 28.3544 136.135 28.5952C136.24 28.8299 136.406 28.8916 136.566 28.8793C136.604 28.8793 136.649 28.8669 136.687 28.8546C136.709 28.8484 136.72 28.8484 136.754 28.8299L136.919 28.7249C137.135 28.5829 137.345 28.4223 137.555 28.2618C138.384 27.6195 139.152 26.8785 140.014 26.2919L140.655 25.8534L141.616 25.1618C142.318 24.6554 143.008 24.1491 143.699 23.6303C145.081 22.5929 146.44 21.5122 147.899 20.2401C149.081 19.2151 150.462 17.8256 151.805 16.6709C151.833 17.381 151.816 18.1961 151.722 19.141C151.661 19.74 151.75 20.1105 151.739 20.6539C151.728 21.1911 151.617 21.8951 151.159 22.9572C151.031 23.2536 151.125 23.4142 151.252 23.6056C151.38 23.7909 151.54 24.0194 151.545 24.3467C151.567 25.9769 151.457 27.743 151.402 29.4351L151.28 32.5165C151.252 33.1649 151.241 33.8195 151.258 34.4679C151.286 35.2645 151.606 36.0611 151.667 36.8577C151.728 37.6913 151.7 38.525 151.59 39.3525C151.451 40.4022 151.114 41.4335 150.998 42.4833C150.877 43.5701 151.225 44.7187 150.805 45.7438C150.02 47.652 150.324 49.6033 150.175 51.5362C150.031 53.4567 149.904 55.3833 150.02 57.31C150.087 58.403 149.341 59.3664 149.313 60.4347C149.302 60.9349 147.191 61.5153 146.484 61.2868C146.351 61.2436 146.208 61.1572 146.158 61.0707C145.534 60.0024 144.533 59.002 144.644 57.804C144.804 56.0441 144.788 54.2718 144.843 52.4995L144.826 52.5057Z" fill="black"/>
</svg>
