<svg width="281" height="280" viewBox="0 0 281 280" fill="none" xmlns="http://www.w3.org/2000/svg">
<path fill-rule="evenodd" clip-rule="evenodd" d="M120.701 35.3573C143.438 24.7575 168.141 12.2524 191.417 21.5207C215.572 31.139 231.759 56.0043 237.889 82.0206C243.46 105.665 229.105 127.12 221.744 150.233C212.662 178.752 214.353 213.466 190.556 230.651C162.579 250.854 124.296 257.029 92.8582 243.309C60.762 229.302 36.1596 196.805 31.2439 161.125C26.883 129.473 51.779 103.83 70.0941 78.0802C83.5093 59.2197 100.065 44.9774 120.701 35.3573Z" fill="#71C67D"/>
<path d="M218.909 119.228C215.922 115.462 212.973 111.658 210.145 107.757C208.703 105.831 207.34 103.842 205.926 101.891C204.563 99.9023 203.159 97.9471 201.819 95.9436C200.821 94.447 199.878 92.8973 198.898 91.3476C197.918 89.7979 196.821 88.311 195.477 86.9496C194.157 85.5833 193.181 82.0736 191.506 79.2011C186.9 71.4526 182.859 63.3227 179.023 55.1253C175.289 47.1499 171.719 39.0876 168.821 30.7067C168.005 28.4811 167.37 26.1686 166.675 23.8755L166.609 23.6582L166.577 23.552V23.5327L166.563 23.4796L166.53 23.3348C166.507 23.2334 166.455 23.1368 166.381 23.0644C166.231 22.9099 165.998 22.9003 165.802 22.9727L165.667 23.0065L164.967 23.2141C164.5 23.3541 164.038 23.4941 163.576 23.6341C162.652 23.9238 161.733 24.2086 160.818 24.4934C158.993 25.0776 157.197 25.6907 155.447 26.3424C148.848 28.8094 142.567 29.8377 136.187 31.9571C129.425 34.2068 122.407 36.4565 115.621 38.0931C110.675 39.2855 105.761 40.3863 100.973 42.018C97.9813 43.0367 95.3026 44.3933 91.9986 45.3443C88.9373 46.2278 85.3439 46.8457 82.9593 48.6416C82.7586 48.7913 81.34 49.023 80.6026 49.1003C77.2286 49.4334 73.346 50.6258 70.7326 51.8521L70.6953 51.8714L69.6873 52.0066H69.678L70.728 51.8521C70.6253 51.9004 70.546 51.939 70.4666 51.9728C69.1833 52.5955 67.942 53.0687 66.7146 53.4887L66.2853 53.6335L66.2759 53.648C66.2759 53.648 66.262 53.6625 66.2573 53.6673C66.2433 53.677 66.234 53.6914 66.2293 53.7107C66.2293 53.7252 66.2293 53.7349 66.2293 53.7445L66.2433 53.9763L66.3039 55.1929C66.3226 55.637 66.3506 56.0812 66.3833 56.5301C66.4346 57.4233 66.5 58.3164 66.5746 59.2095C66.64 60.1026 66.724 61.0006 66.808 61.8937C67.1486 65.4759 67.5873 69.0629 68.0819 72.6354C68.8333 77.9942 69.5053 83.3577 70.672 88.6779C71.876 94.2249 73.9619 99.9023 75.0819 105.029C75.3759 106.318 75.698 107.578 76.0386 108.829C76.3746 110.079 76.79 111.291 77.1866 112.507C77.966 114.945 78.9179 117.306 79.8373 119.706C80.3553 121.072 80.892 122.568 81.4753 123.973C81.774 124.673 82.0913 125.344 82.4553 125.953C82.824 126.556 83.2486 127.092 83.7246 127.526C83.902 127.691 84.336 128.69 84.4713 129.182C84.7513 130.201 85.0546 131.21 85.428 132.18C85.806 133.151 86.2166 134.102 86.6553 135.043C87.094 135.98 87.5513 136.912 88.0319 137.824C88.5359 138.727 89.054 139.62 89.5813 140.513C90.1086 141.401 90.6406 142.29 91.1726 143.183C91.7233 144.061 92.2693 144.94 92.82 145.824C93.9166 147.586 94.9386 149.401 95.97 151.235C100.072 158.882 105.163 166.192 110.46 173.163C111.137 174.114 111.855 175.089 112.588 176.016C113.33 176.938 114.133 177.783 115.075 178.391C115.411 178.604 115.948 179.193 116.499 179.844C117.059 180.486 117.609 181.211 117.917 181.727C118.757 183.132 119.691 184.493 120.685 185.821C121.693 187.134 122.803 188.375 123.909 189.625L125.589 191.484L126.434 192.411L127.307 193.304C128.473 194.501 129.626 195.699 130.737 196.93L132.225 198.547L133.784 200.092C134.834 201.115 135.884 202.139 136.934 203.162L138.511 204.697L140.107 206.204L140.308 206.392L140.369 206.45L140.439 206.527C140.481 206.575 140.532 206.619 140.593 206.653C140.709 206.72 140.845 206.735 140.985 206.715C140.924 206.749 141.503 206.6 141.881 206.508L143.108 206.213C143.929 206.02 144.755 205.837 145.586 205.663C147.966 205.171 150.962 204.35 153.715 203.013L153.851 202.945L154.686 202.848L153.715 203.013C154.588 202.588 155.433 202.115 156.226 201.588C157.743 200.584 161.331 199.749 163.875 198.677C165.965 197.799 167.851 196.592 169.918 195.761C171.682 195.057 173.586 194.704 175.443 194.139C175.994 193.975 176.647 193.71 177.156 193.444C182.028 190.837 187.068 188.742 192.127 186.647C197.19 184.561 202.267 182.451 207.144 179.84C216.953 174.606 226.861 169.272 236.488 163.599C241.799 160.466 247.249 157.265 251.743 156.483C253.773 156.14 254.273 156.893 252.35 158.825C250.936 160.234 249.284 161.818 247.445 163.092C245.98 164.116 244.543 165.187 243.077 166.196C241.617 167.21 240.17 168.219 238.728 169.199C232.708 173.216 226.865 177.542 220.038 180.665C217.929 181.65 215.712 183.335 213.645 183.475C213.36 183.494 212.483 183.88 212.105 184.131C207.951 186.965 203.429 189.302 198.795 191.421C194.157 193.531 189.42 195.462 184.786 197.485C176.904 200.942 169.507 204.992 161.177 207.546C159.609 208.531 157.864 209.385 156.035 210.133L155.591 210.312L154.686 210.36L156.03 210.133C153.043 211.35 149.847 212.267 146.916 212.991L144.807 213.518L143.752 213.783L143.225 213.914L142.333 214.155C140.593 214.633 138.717 214.363 137.209 213.412C136.831 213.175 136.481 212.9 136.15 212.586L135.333 211.794L134.269 210.742C132.851 209.337 131.483 207.898 130.074 206.493C127.227 203.717 124.53 200.777 121.758 197.919C120.391 196.466 119.075 194.965 117.731 193.492L115.724 191.272L113.783 188.988C112.499 187.458 111.193 185.947 109.942 184.387L106.269 179.646C95.6526 165.458 86.212 150.231 78.806 133.952C78.19 132.562 77.4806 131.331 76.7946 130.013C76.4446 129.356 76.1179 128.675 75.8286 127.932C75.5299 127.193 75.2546 126.402 75.0119 125.533C74.7879 124.717 74.4893 123.867 74.1626 122.988C73.85 122.1 73.4953 121.188 73.1266 120.266C72.7486 119.344 72.3613 118.407 71.9786 117.475C71.6146 116.534 71.2599 115.597 70.9286 114.675C70.6299 113.83 70.3126 112.981 69.9906 112.131C69.678 111.276 69.3839 110.412 69.0899 109.558C68.5019 107.844 67.9466 106.145 67.5966 104.484C66.052 97.6236 64.4093 90.7924 62.972 83.884C61.53 76.9803 60.3213 69.9995 59.696 62.9462C59.5466 61.2661 59.4253 59.5764 59.332 57.8867C59.29 57.037 59.2386 56.1922 59.2153 55.3425L59.192 54.7053L59.1826 54.3866V54.2128V53.9714L59.192 52.0355C59.304 50.7079 59.892 49.4189 60.8113 48.4823C61.264 48.0092 61.8053 47.6182 62.3886 47.3382C62.9953 47.0871 63.644 46.9037 64.2646 46.6864C65.814 46.223 67.368 45.7643 68.9173 45.3009L69.314 45.185H69.7106H69.72L68.9266 45.3009C75.6326 43.2974 82.306 41.2456 88.928 39.1069C96.6933 36.6013 104.314 33.7095 112.247 31.5515C115.631 30.6295 119.014 29.0267 122.598 28.9687C123.615 28.9542 126.546 27.2887 128.697 26.608C134.041 24.9134 139.44 23.3444 144.816 21.7271L154.635 18.7967L159.539 17.3243C161.364 16.7691 163.184 16.2139 165.004 15.6587C165.858 15.398 166.684 15.3111 167.515 15.3884C168.345 15.4511 169.157 15.7215 169.899 16.1077C170.8 16.6098 171.598 17.3146 172.172 18.1884C172.783 19.0236 173.091 20.1147 173.455 21.2202L174.076 22.9727L174.683 24.6576L175.294 26.3424L175.947 28.0128C176.381 29.128 176.806 30.2432 177.212 31.3729C177.623 32.5557 178.099 33.724 178.542 34.8971C178.985 36.0751 179.429 37.2531 179.872 38.431C180.796 40.7773 181.715 43.1236 182.635 45.4602C184.991 51.3741 187.39 57.2543 190.181 62.9896C193.088 68.9325 196.845 74.6968 199.715 80.3356C202.379 85.6074 205.501 90.5945 208.796 95.4512C210.434 97.8843 212.161 100.255 213.869 102.635C215.614 104.986 217.355 107.342 219.128 109.674C226.137 118.967 233.674 127.918 241.789 136.154C244.09 138.495 246.171 140.856 248.262 143.183C250.353 145.51 252.462 147.803 254.828 149.951C254.968 150.077 255.099 150.212 255.234 150.357L255.453 150.603C255.57 150.738 255.687 150.873 255.794 151.013C256.214 151.597 256.489 152.297 256.578 152.978C256.769 154.364 256.219 155.58 255.542 156.189C254.861 156.826 254.151 156.908 253.764 156.787C253.363 156.667 253.232 156.382 253.279 156.087C253.321 155.856 253.419 155.522 253.479 155.247C253.601 154.803 253.507 154.33 253.283 154.035C253.176 153.886 253.041 153.775 252.896 153.693C252.854 153.669 252.831 153.664 252.775 153.625L252.532 153.456L252.047 153.123C250.749 152.235 249.461 151.327 248.178 150.371C245.616 148.459 243.063 146.33 240.515 143.675C233.011 135.825 225.741 127.72 218.918 119.223L218.909 119.228Z" fill="#231F20"/>
<path d="M120.717 220.016C117.348 221.334 113.951 222.594 110.619 224.003C109.998 224.264 109.331 224.419 108.691 224.679C108.467 224.771 107.828 225.051 107.315 225.346C106.783 225.655 106.223 225.997 105.639 226.311C105.079 226.625 104.179 226.466 103.334 225.93C102.485 225.404 101.761 224.559 101.085 223.796C100.879 223.574 100.688 223.323 100.501 223.067L99.456 221.561L98.686 220.426L97.16 218.138L99.6473 219.504L98.0093 219.494L97.16 218.143C96.3854 216.907 95.6013 215.676 94.7847 214.469C94.3087 213.769 93.8233 213.078 93.3287 212.393C92.8293 211.707 92.33 211.027 91.8587 210.322C90.8973 208.927 89.936 207.531 89.026 206.097C88.5827 205.383 88.1393 204.659 87.752 203.901C87.3647 203.143 86.9727 202.385 86.5853 201.627C85.8013 200.121 84.98 198.658 83.972 197.364C82.2967 195.076 81.83 192.43 80.4533 190.118C79.7487 188.872 79.0533 187.598 78.4233 186.294C77.8027 184.986 77.21 183.673 76.8367 182.297C76.2627 180.303 75.7727 178.314 74.7973 176.533C74.2187 175.408 73.3087 174.515 72.8233 173.216C72.38 172.009 72.2167 170.498 70.8867 169.841C70.7747 169.783 70.742 169.175 70.77 168.847C70.8913 167.297 70.266 165.728 69.4447 164.801C69.0433 164.347 68.768 163.884 68.5487 163.406C68.3387 162.923 68.1847 162.436 68.0027 161.938C67.5127 160.577 67.0227 159.211 66.5513 157.84C66.0707 156.473 65.6927 155.069 65.3053 153.673C65.0207 152.626 64.8107 151.554 64.6053 150.487C64.4187 149.415 64.246 148.339 64.0033 147.277C63.7467 146.176 63.35 145.075 63.0047 143.979C62.6873 142.879 62.4213 141.783 62.4027 140.711C62.384 139.63 62.2487 138.611 62.0573 137.612C61.8893 136.607 61.6653 135.623 61.4413 134.623C61.1893 133.484 61.3387 132.06 60.1533 131.345C60.0413 131.278 59.9713 130.843 60.0133 130.631C60.34 128.859 59.9247 127.266 59.3833 125.687C58.8793 124.099 58.2587 122.52 58.1373 120.826C57.9273 117.335 57.1853 113.84 56.7513 110.33C56.6253 109.394 56.8027 108.365 56 107.578C55.7153 107.303 55.5893 106.318 55.7247 105.821C56.0933 104.469 56.0607 103.127 55.9673 101.785C55.8647 100.438 55.636 99.0961 55.6453 97.754C55.664 96.2236 55.5053 94.7028 55.44 93.1724C55.398 91.6421 55.4213 90.102 55.7713 88.5572C56.0887 87.2488 56.238 85.4819 55.2953 83.9225C54.8707 83.2032 55.3187 81.7066 55.2253 80.5818C55.146 79.6597 54.754 78.7569 54.7633 77.8396C54.7773 77.0624 55.1647 76.2948 55.3793 75.5127C55.4447 75.2809 55.4587 74.9961 55.4167 74.7596C54.544 70.2167 56.294 65.8669 56.5087 61.3675C56.616 59.0936 56.882 56.8198 57.2367 54.5459L57.5353 52.8466L57.8993 51.0265C57.9973 50.5196 58.0907 50.0127 58.2307 49.5251C58.3753 49.0423 58.5667 48.5885 58.8 48.1588C59.2713 47.2947 59.934 46.5512 60.718 46.0009C61.5813 45.3829 62.608 45.0208 63.6533 44.9484C64.176 44.9195 64.7453 44.9436 65.24 44.9629C65.534 45.0015 65.828 45.0498 66.1127 45.1126C67.256 45.3636 68.3107 45.8464 69.1553 46.7395C69.916 47.5457 69.9393 48.4582 68.95 49.0616C68.2267 49.5058 67.4007 49.9306 66.5653 50.0851L65.5667 50.2782C65.3287 50.341 65.198 50.3941 65.0113 50.4568C64.6707 50.5582 64.386 50.7803 64.1993 51.0555C63.9987 51.3403 63.952 51.7265 64.0173 52.0645L64.106 52.5424L64.078 53.5949C64.0267 54.9997 63.9147 56.4094 63.4853 57.7998C63.2287 58.6736 63.5647 59.7743 62.6687 60.4068C62.5473 60.4937 62.44 60.8557 62.4773 61.0392C63.28 65.0124 62.118 68.9084 61.9967 72.8526C61.964 74.5278 62.1413 76.1837 62.314 77.8348C62.398 78.6603 62.454 79.4859 62.4727 80.3163C62.5007 81.1466 62.4727 81.977 62.3607 82.8218C62.608 83.2853 62.7807 83.7681 62.8973 84.2605C63.0233 84.7529 63.0933 85.255 63.1213 85.7571C63.1773 86.7612 63.0653 87.7751 62.93 88.7116C62.0107 95.3449 63.182 101.954 63.7653 108.529C64.3533 115.221 65.5433 121.844 66.8173 128.429C66.92 128.989 67.1627 129.482 67.354 130.008C67.5593 130.529 67.718 131.089 67.6434 131.794C67.5127 133.112 68.18 134.633 68.502 136.057C68.8287 137.361 69.3793 138.669 69.44 139.963C69.4727 140.634 69.5287 141.3 69.608 141.961C69.6967 142.618 69.818 143.27 69.9533 143.917C70.2193 145.21 70.5507 146.495 70.9147 147.764C71.2787 149.034 71.7267 150.284 72.1327 151.54C72.5573 152.79 72.9307 154.06 73.3367 155.315C74.8907 160.326 76.5613 165.347 78.778 170.078C79.4547 171.521 80.192 172.936 80.9434 174.341C81.704 175.741 82.4227 177.165 82.9687 178.676C83.2067 179.318 83.58 179.917 83.8833 180.549C84.1913 181.177 84.3967 181.853 84.2613 182.673C84.1867 183.142 85.386 183.967 85.792 184.745C86.772 186.695 87.7567 188.65 88.7413 190.601L89.7727 192.633C90.1133 193.314 90.454 193.99 90.8273 194.651C91.5553 195.983 92.2973 197.306 93.072 198.61C93.5527 199.401 94.0707 200.159 94.6447 200.884C95.214 201.613 95.788 202.337 96.2967 203.104C96.8333 203.906 97.3467 204.726 97.8413 205.562C98.3267 206.402 98.812 207.242 99.2927 208.077C100.45 210.109 101.439 212.253 102.601 214.295L99.6567 212.682L101.677 212.784L102.606 214.3L102.774 214.575C103.213 215.285 103.703 215.965 104.202 216.646C104.585 217.172 104.972 217.698 105.35 218.215C105.425 218.326 105.457 218.476 105.569 218.703C105.649 218.867 105.77 218.905 105.905 218.925C105.975 218.934 106.055 218.934 106.134 218.934L106.26 218.925L106.657 218.804C107.73 218.471 108.785 218.09 109.83 217.684C111.921 216.878 113.979 215.985 116.083 215.212C120.265 213.682 124.451 212.118 128.52 210.307C130.83 209.279 133.261 209.216 135.557 208.309C136.626 207.884 138.917 209.593 138.768 210.544C138.74 210.722 138.619 210.949 138.465 211.075C136.477 212.673 134.82 214.604 132.207 215.54C128.347 216.921 124.558 218.5 120.736 219.996L120.717 220.016Z" fill="#231F20"/>
<path d="M59.4159 67.1897C58.4639 70.5064 57.5259 73.8423 56.8866 77.2555C56.6253 78.5155 55.9719 79.7273 56.5366 81.2287C56.8119 81.9674 55.5846 82.986 55.4166 84.1736C55.2999 84.975 55.1599 85.7764 55.0246 86.5778L54.6279 88.982C54.3433 90.58 54.1146 92.1973 53.9373 93.8097C53.6013 96.9574 53.5873 100.129 53.3866 103.287C53.2653 104.846 53.0553 106.425 52.8919 107.994C52.8079 108.776 52.7379 109.558 52.7099 110.335C52.6959 111.112 52.7146 111.885 52.7986 112.647C52.9526 113.965 52.7706 115.197 52.6073 116.423C52.4393 117.644 52.2433 118.856 52.2899 120.111C52.3273 121.439 52.4066 122.795 52.3879 124.137C52.3879 125.48 52.2713 126.817 52.0986 128.115C51.8373 130.013 51.4779 131.896 51.6833 133.783C51.8233 134.961 52.3599 136.047 52.3553 137.332C52.3459 138.519 51.9539 139.895 53.0086 140.885C53.0973 140.967 52.9386 141.508 52.8173 141.788C52.2246 143.101 52.3413 144.679 52.8359 145.722C53.3306 146.741 53.3446 147.668 53.4286 148.638C53.5499 149.971 53.6573 151.303 53.7553 152.635C53.8766 153.968 53.9793 155.3 54.0493 156.633C54.1053 157.632 54.0726 158.641 54.0539 159.645C54.0493 160.649 54.0399 161.658 54.1053 162.658C54.1706 163.701 54.3806 164.767 54.5346 165.815C54.6886 166.863 54.8379 167.896 54.7166 168.886C54.4973 170.875 54.7399 172.719 55.0293 174.597C55.1973 175.664 54.9313 176.991 56.0699 177.701C56.1773 177.769 56.2239 178.169 56.1773 178.367C55.3139 181.645 57.6053 184.32 57.8153 187.448C57.9133 189.065 58.2446 190.663 58.5759 192.266C58.9259 193.864 59.2946 195.462 59.6586 197.05C59.8546 197.895 59.7706 198.87 60.6619 199.484C60.9746 199.701 61.1986 200.579 61.1146 201.057C60.8906 202.346 61.0493 203.582 61.3479 204.794C61.6513 206.001 62.0573 207.189 62.2719 208.41C62.5146 209.8 62.9159 211.157 63.2519 212.528C63.6159 213.894 63.9099 215.285 63.9053 216.767C63.9053 217.394 63.9659 218.119 64.1899 218.823C64.2179 218.91 64.2459 219.002 64.2833 219.089L64.3346 219.219L64.3673 219.263C64.4139 219.316 64.4699 219.364 64.5353 219.398C64.6659 219.465 64.8386 219.465 65.0579 219.369C65.2586 219.277 65.2726 219.316 65.2913 219.422C65.3006 219.523 65.3519 219.678 65.4546 219.591C65.5293 219.538 65.6133 219.403 65.6599 219.272C65.7859 219.113 65.8606 218.963 65.9446 218.939C65.9633 218.934 65.9773 218.939 66.0006 218.939C66.0893 218.934 66.1779 218.93 66.2666 218.934C66.4439 218.934 66.6259 218.959 66.8079 218.983C67.1719 219.031 67.5453 219.108 67.9093 219.128C68.1239 219.142 68.3806 219.094 68.5766 218.997C72.3333 217.148 76.5239 217.814 80.4439 216.714C84.3779 215.608 88.4379 214.889 92.4653 214.184C94.6866 213.793 97.0106 213.6 98.8959 215.111C99.3159 215.449 99.5773 215.84 99.6286 216.241H99.6566L99.6286 216.25C99.6799 216.651 99.5166 217.056 99.1013 217.423C98.4899 217.964 97.7759 218.505 97.0059 218.775C95.7739 219.205 94.5513 219.702 93.3519 220.117C90.8553 220.981 88.4753 222.377 85.7219 222.468C84.8679 222.497 83.9906 223.183 83.1506 222.502C83.0339 222.406 82.6839 222.415 82.5299 222.502C79.2353 224.51 75.3853 224.399 71.7966 225.201C70.7793 225.428 69.7946 225.756 68.8146 226.099L67.3213 226.615C66.5046 226.847 65.6599 227.074 64.8013 227.282C64.3673 227.296 63.9286 227.311 63.4899 227.315C63.0559 227.306 62.5986 227.368 62.2159 227.199C61.3853 226.919 60.6433 226.321 60.1206 225.587C59.4766 225.235 58.9073 224.66 58.4639 223.931C58.0066 223.183 57.7453 222.246 57.4653 221.339L57.3486 220.943L57.2553 220.586C57.1993 220.344 57.1479 220.108 57.1059 219.866C57.0219 219.388 56.9659 218.91 56.9193 218.447C56.7653 216.815 56.4759 215.227 56.1679 213.638C55.8646 212.05 55.4959 210.481 55.0946 208.922C54.2686 205.808 53.4706 202.68 52.8313 199.517C52.4953 197.919 52.2153 196.307 51.8979 194.699L50.9413 189.886L50.0686 185.054L49.6393 182.635C49.4993 181.829 49.3919 181.018 49.2706 180.207C49.1119 179.101 48.3979 178.246 48.6359 176.88C48.7479 176.243 48.6639 175.543 48.5193 174.828C48.3886 174.109 48.2113 173.375 48.1179 172.666C47.9453 171.367 47.5486 170.03 47.6373 168.774C47.7166 167.471 47.7399 166.177 47.6886 164.888C47.6373 163.599 47.5206 162.32 47.3713 161.04C47.0913 158.482 46.7599 155.923 46.5779 153.355C46.4473 150.801 46.3166 148.237 46.1859 145.679C46.1299 144.399 46.0646 143.12 45.9806 141.845C45.8873 140.566 45.7986 139.292 45.7053 138.017C45.5886 136.463 45.3693 134.913 45.2013 133.354C45.0613 131.794 44.9726 130.23 45.0706 128.651C45.1453 127.309 44.6319 125.885 45.5979 124.577C45.8733 124.205 45.1686 122.94 45.1499 122.076C45.1079 119.928 45.2759 117.775 45.3459 115.626C45.5326 112.643 45.7193 109.654 45.9013 106.671C45.9479 105.758 45.8966 104.846 45.8686 103.929C45.8406 103.011 45.8126 102.094 45.8546 101.182C45.9293 99.2651 46.1813 97.3485 46.4986 95.4608C46.6946 94.2636 46.9886 93.0808 47.2639 91.9028C47.5439 90.72 47.8099 89.542 48.0619 88.3544C48.3186 87.1234 48.4213 85.8392 48.6079 84.584C48.7946 83.3288 49.0233 82.0881 49.4526 80.9535C51.1139 76.7389 51.6926 72.3119 52.9573 68.0201C54.2219 63.7572 55.6033 59.5378 57.0873 55.2701C57.5073 54.0535 58.1559 52.9914 58.8513 51.9535C59.2246 51.4272 59.5979 50.9107 59.9479 50.3845C60.1299 50.0996 60.3166 49.8148 60.5033 49.53C60.8019 49.0906 61.1613 48.6851 61.5719 48.3327C61.9033 48.0478 62.3653 47.8789 62.8319 47.8692C63.2986 47.8547 63.7559 47.9947 64.1153 48.2265C64.8526 48.6948 65.0953 49.4865 65.0439 49.9838H65.0859C65.0859 49.9838 65.0906 50.0224 65.0859 50.0417H65.0393C65.0299 50.1769 64.9973 50.2927 64.9553 50.3893C64.8853 50.5438 64.7733 50.7079 64.6846 50.7803C64.3813 51.0024 64.2226 51.3404 64.2133 51.6397C64.2086 51.7893 64.2366 51.9245 64.2833 52.0452C64.2833 52.0645 64.2973 52.0693 64.2973 52.0935L64.2833 52.2045L64.2553 52.4218L64.1993 52.8562C64.1199 53.4307 64.0126 53.9859 63.8586 54.5315C63.7139 55.0963 63.5273 55.6853 63.2473 56.255C61.6699 59.7068 60.5079 63.4483 59.4159 67.1946V67.1897Z" fill="#231F20"/>
<path d="M83.2906 83.237C82.5952 81.0791 82.2359 78.9307 82.2032 76.7969C82.1752 74.663 82.4972 72.674 83.1692 70.8346C83.8412 68.9953 84.8866 67.3587 86.3006 65.9249C87.7146 64.491 89.5206 63.4 91.7186 62.642C93.9166 61.8889 95.9932 61.6427 97.9579 61.9179C99.9226 62.1882 101.705 62.8544 103.311 63.9117C104.916 64.969 106.325 66.3642 107.534 68.0925C108.743 69.8208 109.695 71.7664 110.39 73.9244C111.085 76.0824 111.445 78.2307 111.477 80.3646C111.505 82.4984 111.183 84.4874 110.511 86.3268C109.839 88.1661 108.789 89.7979 107.371 91.2173C105.952 92.6366 104.141 93.7228 101.948 94.476C99.7499 95.2291 97.6732 95.4801 95.7179 95.2242C93.7625 94.9684 91.9799 94.3118 90.3746 93.2545C88.7692 92.1973 87.3599 90.8069 86.1512 89.0737C84.9379 87.3454 83.9859 85.3999 83.2952 83.2419L83.2906 83.237ZM84.1166 82.9522C84.8446 85.1295 85.8012 87.0413 86.9866 88.6827C88.1719 90.3241 89.5159 91.6276 91.0326 92.5932C92.5446 93.5539 94.2059 94.1429 96.0119 94.3601C97.8179 94.5725 99.7126 94.3408 101.687 93.6649C103.665 92.9842 105.313 91.9993 106.638 90.7103C107.963 89.4214 108.948 87.9199 109.606 86.2109C110.259 84.5019 110.586 82.6239 110.586 80.577C110.586 78.53 110.245 76.4058 109.569 74.2092C108.841 72.0319 107.884 70.1201 106.699 68.4787C105.513 66.8373 104.169 65.5338 102.653 64.5731C101.141 63.6124 99.4792 63.0234 97.6732 62.8062C95.8672 62.5937 93.9725 62.8255 91.9985 63.5014C90.0199 64.1821 88.3726 65.1669 87.0472 66.4559C85.7219 67.7449 84.7326 69.2463 84.0792 70.9553C83.4212 72.6644 83.0946 74.5423 83.0992 76.5893C83.0992 78.6411 83.4399 80.7604 84.1166 82.957V82.9522Z" fill="black"/>
<path d="M80.9758 74.1658C81.1858 72.4085 81.6992 70.6802 82.4132 69.0049C82.6885 68.3677 83.2812 67.9622 83.1365 66.9918C83.0758 66.4945 84.0745 66.4173 84.4385 65.9393C85.4325 64.6021 86.8232 63.5593 88.1952 62.6758C89.5345 61.7972 90.8832 60.9668 92.3952 60.4792C93.1512 60.2426 93.9632 60.1509 94.7705 60.0978C95.5825 60.0399 96.3805 60.0109 97.1878 59.8564C98.6298 59.6054 99.7218 60.4599 100.986 60.7351C102.344 61.0247 103.74 61.6523 104.678 62.6758C105.364 63.4241 105.901 64.24 106.652 64.8097C107.119 65.1669 107.777 65.3117 108.169 65.838C108.533 66.3304 108.663 67.0594 109.573 67.0497C109.648 67.0497 109.694 67.3587 109.68 67.5325C109.629 68.358 110.031 68.9953 110.577 69.3043C111.109 69.6084 111.277 70.0526 111.496 70.4871C111.795 71.0905 112.06 71.7036 112.294 72.3264C112.406 72.6257 112.532 72.9782 112.63 73.3257C112.732 73.6878 112.807 73.992 112.872 74.3251C113.078 75.3099 112.998 76.3479 113.073 77.3472C113.148 78.3804 113.577 79.5004 113.213 80.4901C112.854 81.4653 112.816 82.3777 112.686 83.3384C112.611 83.8888 112.154 84.4247 112.788 85.0571C112.849 85.115 112.789 85.3226 112.705 85.3999C112.023 86.0468 111.86 86.7854 111.706 87.6061C111.552 88.4123 111.398 89.2958 110.847 89.9427C109.713 91.2559 108.728 92.6414 107.366 93.7615C107.002 94.0559 106.493 94.1428 106.432 94.8525C106.409 95.1084 105.998 95.3836 105.728 95.3739C104.995 95.3498 104.407 95.5574 103.833 95.8084C103.259 96.0595 102.704 96.3588 102.097 96.4795C101.411 96.6195 100.734 96.8415 100.025 96.9719C99.3205 97.0974 98.5738 97.1215 97.8412 96.8464C97.2158 96.6146 96.4458 96.4553 95.6198 97.0829C95.2418 97.3774 94.5792 96.9284 94.0472 96.8802C93.6038 96.8415 93.0998 97.0443 92.6658 96.9139C92.2972 96.8029 92.0312 96.3877 91.7325 96.1125C91.6438 96.0305 91.5178 95.9725 91.3965 95.9677C90.2392 95.8953 89.2872 95.2387 88.5172 94.4808C87.7332 93.7132 87.1032 92.8394 86.3145 92.1442C84.7232 90.7345 83.6172 88.8565 82.8285 86.9447C82.3898 85.8923 82.1705 84.6902 83.2298 83.5364C83.7058 83.015 84.3358 82.8074 84.8445 83.0632C85.2178 83.2515 85.5865 83.4736 85.7825 83.7633C86.0905 84.2267 86.4545 84.6467 86.7812 85.0571C87.4672 85.9261 88.5125 86.4282 88.8532 87.4709C88.9652 87.8089 89.4738 87.8572 89.1892 88.4751C89.1518 88.562 89.2032 88.6972 89.2778 88.7165C90.0945 88.9241 90.6218 89.3248 91.1212 89.7834C91.6205 90.2372 92.1105 90.7441 92.7032 91.0338C93.2118 91.28 93.7905 91.3042 94.3365 91.3235C94.8872 91.3428 95.4005 91.3573 95.9092 91.6083C96.2685 91.2704 96.5718 91.1448 96.8658 91.1255C97.1645 91.1062 97.4585 91.2028 97.7478 91.3041C98.7792 91.6711 99.9225 91.5021 100.986 91.0966C102.06 90.6959 102.988 90.0972 103.861 89.5179C104.743 88.9434 105.527 88.1179 106.129 87.2199C106.736 86.3123 107.17 85.3178 107.496 84.2267C107.608 83.8502 107.263 83.4398 107.669 83.0584C108.052 82.6867 107.879 82.0784 107.912 81.5715C107.94 81.0984 107.786 80.5963 107.963 80.1425C108.7 78.2162 107.814 76.15 107.268 74.383C106.67 72.4906 105.793 70.6705 104.468 69.3236C103.651 68.4932 102.61 68.0587 101.864 67.3056C101.7 67.1414 101.463 67.0883 101.271 66.9676C101.075 66.8518 100.93 66.6732 100.898 66.2435C100.874 65.9924 100.258 66.3063 99.9972 66.2242C99.3392 66.0069 98.6858 65.7655 97.9905 65.64C97.5005 65.5483 97.0292 65.4855 96.5485 65.4711C96.0678 65.4566 95.5778 65.4904 95.0972 65.5966C94.4998 65.7221 93.9772 66.1518 93.4172 66.4028C92.8198 66.6635 92.2178 66.8952 91.6298 67.098C90.8832 67.3539 90.0898 67.5421 89.4365 67.9863C89.1005 68.2132 88.8438 68.5463 88.5732 68.8794C88.3072 69.2077 88.0552 69.5215 87.6912 69.7388C87.0098 70.1491 86.5572 70.8008 86.2492 71.5105C85.9412 72.2299 85.7685 73.0119 85.5818 73.7892C85.2038 75.3341 85.1292 77.0624 85.4792 78.699C85.6798 79.6163 85.2598 80.6108 85.5165 81.557C85.6285 81.9722 84.1305 83.1357 83.5005 83.1405C83.3792 83.1405 83.2392 83.097 83.1738 83.0295C82.3432 82.1894 81.2465 81.3832 81.0925 80.0652C80.8825 78.139 80.7425 76.1789 80.9805 74.1899L80.9758 74.1658Z" fill="black"/>
<path d="M89.3619 89.3972C90.2952 90.3869 91.3732 91.28 92.5492 91.8062C92.9785 91.9993 93.3425 92.5014 94.0192 92.0331C94.3365 91.7918 94.5559 92.6849 95.0179 92.7525L95.9325 92.8828C96.2312 92.9166 96.5252 92.9552 96.8239 92.9697C97.4212 93.0035 98.0325 92.9842 98.6392 92.8587C99.8199 92.6269 100.954 92.0042 102.037 91.4635C102.573 91.198 103.133 90.9952 103.647 90.72C104.16 90.4448 104.627 90.0972 104.907 89.5951C105.35 88.7696 106.386 88.5089 106.801 87.664C107.235 86.7661 107.562 85.8826 108.141 85.0571C108.565 84.4488 108.999 83.7778 108.99 83.015C108.981 82.537 108.649 82.0639 108.705 81.5715C108.761 81.1177 109.088 80.5625 108.327 80.1714C108.267 80.1377 108.393 79.9252 108.491 79.8142C108.957 79.2783 108.859 78.6218 108.467 78.2452C108.089 77.8783 108.071 77.5162 107.977 77.1396C107.73 76.1113 107.403 75.083 107.1 74.0547C106.876 73.2871 106.811 72.4374 106.503 71.6891C106.176 70.9022 105.429 70.347 105.28 69.5167C105.126 68.667 104.627 68.1022 104.109 67.5808C103.819 67.2863 103.665 66.6683 102.928 67.0642C102.858 67.1028 102.751 66.9966 102.732 66.9049C102.587 66.1373 102.027 65.8525 101.467 65.7269C100.889 65.5966 100.301 65.6207 99.8292 65.3069C98.8399 64.66 97.5332 64.5924 96.4319 64.6214C96.1332 64.6262 95.7739 64.4186 95.5405 65.0076C95.4565 65.2152 95.1532 65.2731 94.9805 65.1524C94.5092 64.829 94.0285 64.8483 93.5759 64.9738C93.1232 65.0993 92.6892 65.3262 92.2225 65.4324C91.6905 65.5531 91.2192 65.8138 90.7525 66.0504C90.2812 66.2869 89.8192 66.4994 89.2265 66.5573C88.7272 66.5959 88.1205 66.9194 88.2372 67.8125C88.2932 68.2132 87.7099 68.3532 87.5232 68.7056C87.3692 68.9905 87.4439 69.4298 87.2899 69.676C87.1545 69.8836 86.7812 69.9319 86.5339 70.0912C86.4639 70.1395 86.4079 70.2215 86.4079 70.3084C86.3892 71.1678 86.0672 71.7567 85.7032 72.4568C85.3439 73.1375 84.9659 73.8761 84.9799 74.692C85.0032 76.3093 84.9845 77.9893 85.1712 79.6838C85.2739 80.6204 85.2925 81.5908 84.2005 82.6867C83.7059 83.1839 83.0852 83.4205 82.5719 83.0922C82.1985 82.8508 81.8252 82.5419 81.6572 82.1653C81.3865 81.5667 81.0879 80.9632 80.8685 80.3452C80.4159 79.0804 79.6552 77.7286 80.0099 76.2658C80.1172 75.8217 79.7859 75.2617 80.4205 74.9382C80.5092 74.8948 80.5699 74.7161 80.5325 74.6244C80.1499 73.6299 80.2432 72.5919 80.5232 71.6216C80.8079 70.6464 81.2745 69.7388 81.6712 68.7974C82.0072 68.0008 82.2545 67.1559 82.6185 66.3449C82.9779 65.5387 83.4585 64.771 84.1772 64.2545C84.2285 63.6414 84.5412 63.1103 84.9425 62.7241C85.3439 62.3331 85.8432 62.0627 86.3192 61.8744C87.9992 61.2082 89.5205 60.5806 91.0652 60.0399C92.6005 59.4992 94.2525 59.0405 95.9839 59.0502C96.8519 59.055 97.7525 59.1274 98.6065 59.2675C99.4465 59.4075 100.291 59.6006 101.117 59.8709C102.769 60.402 104.37 61.2516 105.714 62.3234C106.167 62.6855 106.843 62.6758 107.128 63.4096C107.385 64.0855 108.122 64.5007 108.607 65.08C109.041 65.6014 109.606 66.0794 109.807 66.7166C110.222 68.0346 110.777 69.1836 111.323 70.3519C111.869 71.5154 112.406 72.6933 112.723 73.9437C113.353 76.4348 113.629 79.0031 113.703 81.6342C113.745 83.2274 113.881 84.9798 113.213 86.5537C112.938 87.1958 113.022 88.1179 112.075 88.4462C111.813 88.5331 111.995 89.3876 111.771 89.8172C111.235 90.8648 110.497 91.7869 109.723 92.627C109.195 93.2063 108.579 93.7711 107.945 94.2635C107.31 94.7656 106.652 95.2098 105.989 95.6346C105.187 96.1463 104.449 96.8222 103.591 97.2326C102.699 97.6574 101.747 97.9519 100.749 98.0919C99.4839 98.2754 98.1772 98.1595 96.8939 98.0533C95.5545 97.9519 94.1312 98.0436 92.9925 97.3533C91.9472 96.716 90.9252 96.1898 89.9219 95.6008C88.9232 95.0118 87.9805 94.3842 87.1499 93.5877C85.5072 92.0042 84.2239 90.1745 83.0339 88.3255C82.3479 87.2537 82.4319 85.9502 82.0165 84.8447C81.8112 84.2991 83.2672 83.0343 83.9065 83.0488C84.0279 83.0488 84.1679 83.0874 84.2379 83.1501C85.1012 83.9612 86.2305 84.4343 86.6692 85.4336C87.3272 86.9254 88.3025 88.2627 89.3665 89.3827L89.3619 89.3972Z" fill="black"/>
<path d="M124.25 87.973L123.428 88.2579L113.656 57.8384L114.478 57.5536L120.419 76.0438L134.866 50.5438L136.103 50.1189L126.056 67.9573L146.701 80.2583L145.591 80.6397L125.566 68.696L120.797 77.1976L124.259 87.9779L124.25 87.973Z" fill="black"/>
<path d="M121.077 72.0174C122.299 69.8546 123.517 67.687 124.735 65.5242C126.317 66.4656 127.941 67.4214 129.509 68.3242C130.41 68.8311 131.161 69.6519 132.407 69.6277C133.028 69.6132 133.504 70.8105 134.344 71.274C136.612 72.5243 138.791 73.963 141.055 75.223C142.977 76.2948 144.965 77.2265 146.902 78.2645L144.741 78.0376L145.642 77.6852L145.843 77.6128L145.348 82.677C143.234 81.4749 141.246 79.9059 139.048 79.0418C137.088 78.2742 135.772 76.7727 133.985 75.8796C132.09 74.9334 130.163 73.8954 128.525 72.5823L127.652 71.8774L126.887 71.3319L126.107 70.7912C125.071 70.0864 124.068 69.4443 122.911 68.8215L122.981 68.6767C123.326 67.9815 123.569 67.3056 123.872 66.5621C124.171 65.8235 124.521 65.0173 125.011 64.1821C125.118 63.9986 125.253 63.7717 125.351 63.622C125.421 63.5207 125.491 63.4145 125.561 63.3131C125.706 63.1055 125.846 62.8931 125.963 62.6758C126.201 62.2365 126.345 61.7585 126.229 61.1985C126.21 61.102 126.537 60.7978 126.737 60.6578C127.671 60.0061 128.268 58.8764 128.408 57.9446C128.543 57.037 128.949 56.4046 129.323 55.7094C130.349 53.7977 131.39 51.8907 132.519 50.0417C132.832 49.5348 133.168 49.0424 133.509 48.5548L137.051 53.0687C136.981 53.0445 136.897 53.0204 136.794 53.0011C136.757 53.0011 136.719 53.0156 136.682 53.0349L136.654 53.0494L136.64 53.059C136.64 53.059 136.64 53.059 136.631 53.0687L136.603 53.1121L136.365 53.479C135.464 54.9128 134.871 56.6653 133.789 57.8336C132.701 59.0068 131.978 60.3247 131.222 61.662C130.793 62.4199 129.99 63.1296 130.293 64.1531C130.321 64.2496 130.153 64.5297 130.027 64.6262C127.941 66.2773 127.862 69.0822 126.397 71.1629C125.202 73.0313 124.124 74.8851 123.037 76.8258C121.94 78.8149 120.839 80.8087 119.742 82.7977C119.621 82.4308 119.499 82.0639 119.383 81.7018C119.182 81.0839 118.995 80.3308 118.79 79.737C118.58 79.1383 118.351 78.6942 118.02 78.5493C117.787 78.4576 117.306 77.0286 117.175 76.1741C116.83 73.8664 116.354 72.1478 115.78 70.3664C115.607 69.8353 115.565 69.7195 115.472 69.4539L115.215 68.7346C115.047 68.2566 114.889 67.7739 114.763 67.2863C114.198 65.0559 113.167 62.98 113.013 60.5902C112.966 59.8806 112.817 59.0261 112.378 58.2729L115.192 59.7309C114.935 59.8902 114.693 60.0882 114.469 60.3295L116.083 56.9984C116.135 57.0515 116.186 57.0998 116.242 57.1481C116.713 57.5536 116.746 58.7316 117.077 59.5088C117.348 60.1461 117.861 60.6771 118.076 61.324C118.263 61.8744 118.169 62.5213 118.225 63.1296C118.239 63.3082 118.305 63.5158 118.398 63.6655C120.181 66.5959 120.185 70.1201 121.422 73.2582C122.663 76.4155 123.629 79.7128 124.567 82.9957C125.025 84.5985 125.375 86.2833 124.805 87.7799L122.976 86.8337C123.191 86.9013 123.377 86.9882 123.559 87.0944C124.283 87.5192 124.493 88.1661 123.881 88.8082C123.816 88.8758 123.751 88.9434 123.676 89.011L123.405 89.2572L122.701 88.5041C122.318 88.0937 121.945 87.6158 121.711 87.0847C121.259 86.1047 120.806 85.1295 120.367 84.1785C119.481 82.1894 118.221 80.3452 117.852 78.0907C117.74 77.3907 117.143 76.7293 117.544 75.9762C117.6 75.8699 117.553 75.5851 117.474 75.4693C115.659 72.9299 115.299 69.7629 114.301 66.8807C113.451 64.4283 111.967 62.2848 111.473 59.6826C111.202 59.4219 110.973 59.1323 110.782 58.8185L109.601 56.926L112.709 54.8404C112.957 54.6763 113.218 54.5315 113.484 54.4108L116.116 53.2087L117.516 56.5012C117.871 57.3315 118.053 58.2343 118.188 59.0743C118.594 61.6475 119.317 64.1193 120.125 66.5573L120.433 67.4697L120.587 67.9284L120.666 68.1553C120.685 68.2035 120.685 68.2084 120.689 68.2132L120.699 68.2325L120.834 68.5367C120.918 68.7298 120.988 68.8891 121.044 69.1546L121.109 69.4346C121.31 69.1498 121.543 68.7249 121.749 68.3484L123.419 65.3793L125.183 62.2944C125.627 61.5316 125.631 60.6434 126.425 59.9192C127.171 59.2385 127.582 58.0171 128.137 57.0322C128.651 56.1294 129.047 55.0963 129.691 54.348C130.345 53.5901 130.933 52.7887 131.483 51.9631C131.759 51.5479 132.02 51.1279 132.277 50.7031L132.818 49.7713L133.434 48.6899L135.436 47.9851L140.765 46.1119L137.989 51.2438C137.205 52.6921 136.444 54.1597 135.609 55.5694C133.546 59.055 131.483 62.5599 129.668 66.1856L129.645 66.2338V66.2483L129.626 66.2773L129.607 66.3352L129.575 66.4511C129.556 66.5283 129.542 66.6007 129.533 66.6635C129.514 66.7987 129.514 66.9049 129.519 66.9966C129.719 67.0497 129.878 67.0835 129.999 67.127C130.06 67.1463 130.111 67.1704 130.158 67.2042L130.195 67.2283L130.373 67.3442L130.788 67.6194C131.651 68.2132 132.795 68.4111 133.327 69.5746C133.476 69.9029 134.582 69.9174 135.175 70.236C136.635 71.0326 138.054 71.9257 139.487 72.7802C141.479 73.9678 143.444 75.2037 145.469 76.3238C146.347 76.8114 147.28 77.1783 148.195 77.5886L153.916 80.1425L147.649 83.1646C147.294 83.3336 146.935 83.5026 146.571 83.6474L145.441 84.106L144.069 83.3819L144.032 83.3626C142.725 82.6722 141.442 81.9046 140.21 81.0839C138.647 80.0411 137.172 78.8631 135.595 77.8348C133.961 76.7727 132.062 76.0293 130.629 74.7837C129.677 73.9582 128.674 73.234 127.638 72.5678L127.251 72.3216L127.129 72.2395L126.882 72.085C126.714 71.9836 126.546 71.8967 126.383 71.805C126.233 72.0995 126.093 72.3699 125.921 72.6306C125.893 72.674 125.893 72.674 125.799 72.8285L125.585 73.1906L125.16 73.9147L124.315 75.3679L123.48 76.8258L123.149 77.4245C123.461 78.2935 123.769 79.1576 124.077 80.0218C124.763 81.8853 124.745 83.8067 125.347 85.6557C125.627 86.5151 124.325 88.2579 123.639 88.0986C123.508 88.0696 123.345 87.9682 123.261 87.8379C122.15 86.2061 120.792 84.8302 120.181 82.7301C119.943 81.9239 119.7 81.1177 119.448 80.3115L118.361 76.9127C119.271 75.2761 120.185 73.6347 121.095 71.9933L121.077 72.0174Z" fill="black"/>
<path d="M141.222 48.3954L162.81 39.7973L163.123 40.6373L152.716 44.7843L163.543 73.8616L162.731 74.1851L151.904 45.1078L141.535 49.2403L141.222 48.4003V48.3954Z" fill="black"/>
<path d="M149.804 43.4277L153.192 42.0904C153.827 43.8139 154.457 45.5085 155.138 47.2127C155.199 47.372 155.218 47.4299 155.246 47.512L155.316 47.7582C155.362 47.9223 155.404 48.0913 155.465 48.2506C155.591 48.5692 155.787 48.8637 156.212 49.0713C156.632 49.2789 156.146 50.172 156.394 50.7417C157.061 52.2914 157.546 53.9183 158.204 55.4729C158.844 56.9839 159.665 58.4178 160.304 59.9288C160.939 61.4254 161.196 63.1296 162.101 64.4524C162.885 65.6014 162.754 66.9676 163.338 68.1311C163.958 69.367 164.546 70.6657 164.752 72.0319C164.817 72.4519 164.868 72.8768 164.943 73.292L161.868 71.8774C162.157 71.8195 162.442 71.7519 162.717 71.6602L161.415 74.6968C161.336 74.4409 161.238 74.1947 161.112 73.9582C160.822 73.4175 160.267 73.0264 160.062 72.394C159.87 71.805 159.926 71.0278 159.04 70.8057C158.965 70.7864 158.993 70.4774 159.04 70.3084C159.264 69.5022 158.951 68.7491 158.442 68.3532C157.948 67.967 157.822 67.4987 157.63 67.0352C157.108 65.7511 156.594 64.4621 156.184 63.1344C155.871 62.1399 155.778 61.0682 155.484 60.0689C155.176 59.0261 154.452 58.0702 154.443 56.9984C154.434 55.9218 154.079 55.0287 153.738 54.1115C153.542 53.5901 153.64 52.8466 152.768 52.7018C152.688 52.6873 152.623 52.4893 152.646 52.3783C152.833 51.4466 152.483 50.7369 152.049 50.0562C151.83 49.7182 151.592 49.3851 151.386 49.0375L151.312 48.9072L151.195 48.6561C151.12 48.4872 151.046 48.3134 150.976 48.1396C150.836 47.792 150.71 47.4347 150.612 47.0823C150.248 45.7788 149.809 44.5236 149.314 43.2201C150.831 42.5829 152.362 41.9408 153.878 41.3084C154.065 41.2311 154.261 41.1684 154.457 41.1008L154.751 40.9994C154.812 40.9801 154.858 40.9608 154.91 40.9366C155.11 40.8401 155.283 40.6808 155.372 40.338C155.432 40.0966 155.857 39.9083 156.114 39.9566C157.514 40.2318 158.54 39.3145 159.744 38.9766C160.575 38.74 161.345 38.3297 162.166 38.0545L160.631 41.627C160.542 41.3422 160.463 41.0525 160.412 40.7532L163.739 42.2836C163.468 42.3318 163.188 42.3608 162.894 42.3511C162.241 42.3367 161.424 42.5153 161 43.4615C160.804 43.896 160.043 43.8429 159.581 44.1084C159.203 44.3257 158.937 44.794 158.545 44.9581C158.214 45.0981 157.775 44.9581 157.388 44.9678C157.271 44.9678 157.145 45.016 157.061 45.0981C155.414 46.6382 153.113 46.3726 151.246 47.3575C149.37 48.3472 147.359 49.0472 145.357 49.7231C144.251 50.0948 143.057 50.3217 141.829 49.2934C141.274 48.8299 141.036 48.1927 141.358 47.6278C141.591 47.2175 141.88 46.7975 142.244 46.5754C142.823 46.2181 143.378 45.8126 143.938 45.465C145.105 44.7409 146.118 43.6305 147.536 43.4422C147.98 43.3843 148.32 42.8436 148.871 43.3022C148.946 43.365 149.128 43.3408 149.193 43.2684C150.574 41.6656 152.595 41.5546 154.326 40.787C155.801 40.1352 156.977 38.8269 158.601 38.5421C159.156 37.48 160.183 37.2241 161.102 37.1082C161.326 37.0793 161.55 37.0455 161.77 37.0069L165.12 36.4034L165.513 38.7255C165.564 39.0249 165.624 39.3242 165.69 39.6187L166.408 42.7277L164.113 43.2974C162.806 43.6208 161.564 44.1181 160.332 44.6491L158.489 45.4505L157.56 45.8368L157.094 46.0202L156.86 46.1071L156.744 46.1505L156.683 46.1699H156.674C156.492 46.2037 156.291 46.2712 156.104 46.3437C156.179 46.5464 156.249 46.7106 156.342 46.9471C156.739 47.9899 157.126 49.0375 157.504 50.09C157.696 50.621 158.265 50.9203 158.186 51.6638C158.111 52.359 158.62 53.0252 158.872 53.7011C159.105 54.3239 159.497 54.9129 159.539 55.5694C159.707 58.2923 161.065 60.5709 161.891 63.0427C162.717 65.5048 163.552 67.967 164.635 70.3181C165.041 71.1967 165.545 72.0271 165.974 72.8961L167.024 75.0444L164.476 76.3817C164.22 76.5169 163.954 76.6472 163.688 76.7582L161.284 77.7817L160.248 75.1748C160.132 74.8803 160.029 74.581 159.95 74.272C159.777 73.6106 159.147 73.094 159.576 72.2009C159.698 71.9498 158.97 71.5588 158.797 71.1581C158.363 70.1636 158.022 69.1305 157.644 68.1166C157.117 66.7021 156.641 65.2683 156.048 63.8876C155.689 63.0427 155.096 62.2992 154.709 61.4641C154.303 60.5902 153.967 59.6826 153.696 58.7557C153.356 57.5778 153.169 56.3515 152.81 55.1784C152.436 53.9666 151.671 52.8562 151.559 51.601C151.512 51.0893 151.424 50.5969 151.307 50.1141C151.251 49.8727 151.186 49.6362 151.111 49.3996L150.999 49.0472L150.971 48.9361C150.882 48.6272 150.738 48.3713 150.635 48.0961C150.556 48.1299 150.481 48.1541 150.406 48.1734C150.257 48.212 150.094 48.2603 149.926 48.3134L149.655 48.4051L148.894 48.6996C147.882 49.1003 146.878 49.5251 145.898 49.9982C144.783 50.5341 143.523 50.37 142.408 50.8238C142.328 50.8527 142.235 50.8479 142.128 50.8189L139.948 50.1431L140.032 49.8582C140.214 49.2258 141.292 48.2216 141.843 48.2216C141.964 48.2216 142.114 48.2651 142.188 48.3375C142.352 48.4968 142.52 48.6513 142.692 48.801L141.11 48.072C141.815 47.2127 142.473 46.3002 143.532 45.9333C144.475 45.605 145.408 45.2429 146.332 44.8664L149.823 43.4519L149.804 43.4277Z" fill="black"/>
<path d="M177.571 98.1692C176.101 98.734 174.608 99.2506 173.166 99.8878C172.629 100.124 171.957 100.033 171.612 100.878C171.439 101.298 170.646 100.762 170.151 100.984C168.807 101.592 167.393 102.012 166.045 102.611C164.733 103.195 163.497 103.962 162.185 104.547C160.888 105.126 159.399 105.305 158.261 106.169C157.271 106.917 156.067 106.714 155.064 107.26C153.995 107.834 152.871 108.375 151.676 108.52C150.803 108.626 149.921 108.674 149.175 109.109C148.708 109.379 148.377 109.929 147.826 110.108C147.317 110.277 146.631 110.18 146.454 111.078C146.44 111.156 146.165 111.107 146.015 111.054C145.301 110.789 144.653 111.074 144.312 111.571C143.985 112.058 143.579 112.165 143.173 112.338C142.058 112.812 140.938 113.275 139.785 113.632C138.922 113.903 137.984 113.951 137.111 114.202C136.206 114.468 135.385 115.158 134.442 115.119C133.499 115.081 132.725 115.394 131.927 115.703C131.474 115.877 130.821 115.747 130.713 116.626C130.704 116.708 130.531 116.765 130.429 116.737C128.786 116.273 127.965 118.026 126.565 118.286C125.123 118.561 123.797 119.266 122.43 119.821C122.066 119.971 121.599 119.904 121.45 120.565C121.399 120.797 121.021 120.966 120.787 120.903C119.513 120.56 118.599 121.419 117.516 121.695C116.279 122.008 115.211 122.805 113.811 122.699C113.218 122.655 112.481 122.786 112.117 123.703C111.949 124.123 111.258 124.031 110.847 124.273C110.511 124.471 110.278 124.915 109.928 125.064C109.629 125.19 109.228 125.031 108.878 125.016C108.775 125.016 108.663 125.055 108.584 125.127C107.123 126.566 105.028 126.194 103.357 127.073C101.677 127.956 99.8667 128.55 98.0653 129.12C97.0713 129.433 95.9933 129.602 94.8547 128.526C94.3413 128.043 94.1127 127.401 94.388 126.86C94.5933 126.464 94.8453 126.068 95.1673 125.866C95.6807 125.542 96.18 125.171 96.6793 124.852C97.72 124.195 98.616 123.153 99.8993 123.032C100.296 122.993 100.595 122.482 101.108 122.959C101.178 123.027 101.341 123.013 101.397 122.945C102.615 121.429 104.445 121.419 105.999 120.744C107.319 120.169 108.36 118.938 109.83 118.735C110.311 117.717 111.235 117.509 112.065 117.441C115.001 117.2 117.479 115.655 120.176 114.738C122.911 113.811 125.575 112.667 128.287 111.677C128.749 111.508 128.996 110.938 129.649 111.054C130.261 111.165 130.83 110.673 131.423 110.451C131.964 110.243 132.473 109.872 133.047 109.857C135.431 109.814 137.396 108.534 139.547 107.805C141.685 107.076 143.827 106.342 145.861 105.343C147.103 104.735 148.237 103.842 149.585 103.499C150.159 103.354 150.598 102.736 151.391 103.214C151.615 103.349 151.942 102.625 152.287 102.466C153.146 102.07 154.047 101.771 154.929 101.433C156.156 100.964 157.402 100.54 158.601 100.004C159.334 99.6754 159.969 99.1057 160.692 98.7485C161.448 98.3767 162.237 98.0726 163.044 97.8457C164.066 97.5512 165.144 97.4209 166.161 97.1119C167.216 96.7884 168.173 96.0594 169.269 96.0015C171.313 95.8953 173.031 94.8911 174.879 94.2587C176.717 93.6311 178.556 92.9842 180.315 92.1442C181.314 91.6662 182.462 91.8931 183.465 91.5021C183.932 91.3186 185.178 92.7911 185.197 93.4476C185.197 93.5732 185.164 93.7228 185.103 93.7904C184.31 94.7077 183.708 95.9001 182.56 96.2767C180.861 96.8319 179.214 97.5319 177.548 98.174L177.571 98.1692Z" fill="black"/>
<path d="M190.176 120.521C188.809 121.178 187.427 121.801 186.088 122.515C185.589 122.781 184.94 122.733 184.679 123.592C184.548 124.017 183.741 123.534 183.279 123.79C182.042 124.48 180.707 124.973 179.461 125.644C178.248 126.295 177.119 127.135 175.901 127.778C174.697 128.42 173.273 128.675 172.242 129.593C171.346 130.389 170.17 130.24 169.237 130.829C168.247 131.451 167.202 132.04 166.059 132.238C165.223 132.383 164.379 132.465 163.683 132.929C163.249 133.218 162.969 133.774 162.451 133.976C161.971 134.165 161.308 134.097 161.196 134.995C161.187 135.072 160.921 135.034 160.771 134.985C160.067 134.749 159.455 135.058 159.161 135.565C158.877 136.057 158.489 136.183 158.111 136.371C157.066 136.883 156.016 137.385 154.924 137.781C154.107 138.075 153.202 138.152 152.381 138.432C151.522 138.722 150.771 139.441 149.861 139.427C148.946 139.412 148.218 139.75 147.467 140.074C147.037 140.257 146.403 140.146 146.342 141.025C146.337 141.107 146.174 141.17 146.076 141.141C144.471 140.725 143.761 142.478 142.427 142.777C141.05 143.081 139.804 143.82 138.511 144.39C138.166 144.544 137.713 144.486 137.601 145.148C137.559 145.379 137.205 145.553 136.976 145.495C135.73 145.177 134.89 146.046 133.854 146.335C132.673 146.664 131.67 147.465 130.317 147.378C129.743 147.339 129.038 147.484 128.721 148.397C128.576 148.817 127.899 148.73 127.512 148.971C127.195 149.169 126.985 149.618 126.649 149.763C126.364 149.888 125.972 149.734 125.631 149.724C125.529 149.724 125.421 149.763 125.351 149.835C123.989 151.284 121.954 150.912 120.367 151.791C118.771 152.674 117.04 153.263 115.313 153.823C114.361 154.132 113.325 154.296 112.205 153.22C111.701 152.737 111.468 152.095 111.72 151.559C111.907 151.168 112.145 150.772 112.448 150.574C112.938 150.255 113.405 149.884 113.881 149.575C114.865 148.923 115.701 147.895 116.933 147.774C117.315 147.735 117.586 147.228 118.09 147.701C118.16 147.769 118.319 147.755 118.37 147.687C119.499 146.176 121.259 146.171 122.729 145.49C123.979 144.911 124.936 143.685 126.341 143.472C126.77 142.459 127.643 142.241 128.441 142.164C131.255 141.899 133.574 140.33 136.122 139.374C138.707 138.408 141.209 137.216 143.766 136.173C144.2 135.994 144.41 135.425 145.04 135.521C145.633 135.613 146.155 135.116 146.711 134.874C147.219 134.657 147.686 134.271 148.241 134.247C150.523 134.131 152.343 132.803 154.364 132.007C156.371 131.205 158.387 130.404 160.272 129.332C161.425 128.68 162.451 127.749 163.721 127.353C164.262 127.184 164.64 126.551 165.433 126.991C165.657 127.116 165.919 126.382 166.241 126.209C167.039 125.774 167.879 125.436 168.7 125.06C169.843 124.538 171.005 124.055 172.116 123.462C172.793 123.099 173.362 122.501 174.025 122.11C174.72 121.704 175.453 121.357 176.209 121.086C177.165 120.739 178.187 120.546 179.135 120.184C180.119 119.807 180.973 119.025 182.019 118.899C183.969 118.668 185.533 117.577 187.245 116.823C188.949 116.08 190.657 115.322 192.262 114.361C193.172 113.821 194.297 113.961 195.221 113.502C195.65 113.29 196.994 114.651 197.073 115.303C197.087 115.428 197.073 115.573 197.017 115.65C196.345 116.616 195.883 117.837 194.81 118.296C193.233 118.972 191.711 119.783 190.167 120.526L190.176 120.521Z" fill="black"/>
<path d="M152.787 184.576L151.111 182.881C150.57 182.302 150.029 181.722 149.459 181.167C149.035 180.752 148.857 180.086 147.971 180.095C147.527 180.095 147.695 179.14 147.303 178.763C146.263 177.711 145.385 176.504 144.359 175.437C143.346 174.408 142.263 173.453 141.293 172.386C140.336 171.319 139.673 169.952 138.553 169.093C137.569 168.354 137.387 167.114 136.584 166.298C135.725 165.434 134.941 164.458 134.47 163.324C134.129 162.494 133.845 161.644 133.238 161.026C132.86 160.64 132.277 160.456 131.964 159.954C131.679 159.491 131.595 158.791 130.718 158.849C130.643 158.849 130.615 158.574 130.634 158.409C130.704 157.632 130.275 157.062 129.724 156.855C129.183 156.652 128.991 156.276 128.735 155.913C128.035 154.919 127.344 153.91 126.742 152.848C126.285 152.051 126.037 151.124 125.617 150.308C125.179 149.464 124.353 148.793 124.194 147.846C124.031 146.9 123.573 146.195 123.135 145.457C122.883 145.037 122.883 144.361 122.029 144.433C121.949 144.438 121.861 144.279 121.87 144.172C121.991 142.434 120.171 141.971 119.672 140.614C119.154 139.219 118.239 138.027 117.474 136.762C117.273 136.424 117.255 135.941 116.601 135.917C116.373 135.907 116.149 135.56 116.167 135.314C116.275 133.971 115.309 133.214 114.865 132.176C114.361 130.988 113.437 130.056 113.316 128.632C113.265 128.029 113.017 127.314 112.089 127.106C111.664 127.01 111.645 126.3 111.351 125.928C111.113 125.624 110.651 125.465 110.46 125.137C110.297 124.857 110.385 124.427 110.343 124.075C110.329 123.968 110.273 123.862 110.194 123.799C108.598 122.578 108.635 120.41 107.548 118.88C106.451 117.34 105.616 115.626 104.804 113.912C104.356 112.966 104.034 111.914 104.888 110.591C105.271 109.997 105.849 109.659 106.4 109.847C106.806 109.987 107.221 110.176 107.464 110.465C107.851 110.929 108.281 111.363 108.654 111.817C109.433 112.754 110.563 113.478 110.866 114.743C110.959 115.139 111.496 115.351 111.118 115.94C111.067 116.022 111.104 116.186 111.179 116.23C112.803 117.195 113.087 119.035 113.965 120.473C114.711 121.699 116.037 122.525 116.457 123.964C117.497 124.268 117.843 125.151 118.034 125.972C118.715 128.869 120.596 131.056 121.907 133.566C123.261 136.1 124.787 138.538 126.238 141.01C126.485 141.435 127.064 141.556 127.078 142.227C127.092 142.859 127.657 143.318 127.983 143.854C128.287 144.341 128.744 144.757 128.865 145.321C129.127 146.49 129.659 147.489 130.261 148.44C130.867 149.386 131.577 150.27 132.151 151.235C132.729 152.191 133.294 153.166 133.924 154.089C134.549 155.015 135.203 155.918 135.907 156.778C136.761 157.835 137.886 158.67 138.553 159.877C138.838 160.394 139.519 160.635 139.291 161.543C139.225 161.798 139.977 161.905 140.215 162.189C140.817 162.899 141.353 163.657 141.913 164.396C142.702 165.414 143.416 166.501 144.289 167.447C144.816 168.026 145.53 168.437 146.076 168.997C146.65 169.581 147.163 170.228 147.63 170.908C148.237 171.753 148.722 172.704 149.347 173.539C150.001 174.404 150.957 175.036 151.424 176.006C151.853 176.924 152.451 177.682 153.095 178.386C153.417 178.739 153.753 179.082 154.084 179.424C154.42 179.767 154.765 180.091 155.092 180.443C155.736 181.138 156.389 181.833 157.057 182.504C157.393 182.842 157.729 183.171 158.074 183.494C158.433 183.803 158.797 184.102 159.171 184.392C160.015 185.049 160.333 186.178 161.117 186.888C161.476 187.216 160.823 189.056 160.281 189.394C160.179 189.456 160.039 189.5 159.95 189.476C158.816 189.205 157.523 189.22 156.665 188.351C156.039 187.704 155.363 187.11 154.723 186.478L152.796 184.585L152.787 184.576Z" fill="black"/>
<path d="M211.433 145.848C210.065 146.548 208.679 147.209 207.34 147.967C206.841 148.252 206.183 148.223 205.935 149.087C205.814 149.517 204.983 149.058 204.526 149.328C203.289 150.057 201.95 150.588 200.704 151.303C199.491 151.993 198.366 152.867 197.148 153.548C195.939 154.229 194.511 154.528 193.485 155.479C192.593 156.304 191.403 156.193 190.475 156.807C189.49 157.458 188.44 158.081 187.292 158.313C186.452 158.482 185.598 158.593 184.907 159.076C184.473 159.375 184.203 159.945 183.68 160.162C183.199 160.365 182.527 160.316 182.429 161.219C182.42 161.296 182.154 161.267 182 161.219C181.286 161.002 180.675 161.33 180.385 161.847C180.105 162.349 179.718 162.484 179.34 162.682C178.295 163.223 177.24 163.763 176.143 164.188C175.322 164.507 174.412 164.613 173.586 164.917C172.723 165.236 171.976 165.974 171.057 165.989C170.133 166.003 169.405 166.361 168.649 166.708C168.219 166.906 167.575 166.81 167.529 167.693C167.529 167.775 167.361 167.843 167.263 167.819C165.634 167.452 164.948 169.228 163.604 169.561C162.218 169.904 160.972 170.681 159.675 171.29C159.329 171.454 158.867 171.41 158.765 172.077C158.727 172.313 158.373 172.497 158.139 172.444C156.875 172.159 156.039 173.057 154.999 173.375C153.809 173.737 152.815 174.573 151.443 174.519C150.864 174.5 150.155 174.659 149.847 175.586C149.707 176.011 149.025 175.944 148.638 176.195C148.321 176.402 148.115 176.856 147.779 177.011C147.495 177.146 147.098 177.001 146.753 177.001C146.65 177.001 146.543 177.044 146.473 177.122C145.124 178.609 143.057 178.3 141.47 179.222C139.874 180.153 138.133 180.795 136.397 181.399C135.441 181.737 134.395 181.93 133.247 180.882C132.729 180.409 132.482 179.777 132.729 179.231C132.911 178.831 133.14 178.43 133.448 178.222C133.938 177.889 134.405 177.508 134.876 177.179C135.861 176.499 136.687 175.446 137.928 175.292C138.315 175.244 138.581 174.727 139.099 175.186C139.169 175.248 139.333 175.234 139.379 175.162C140.49 173.617 142.273 173.564 143.747 172.839C145.003 172.226 145.945 170.966 147.364 170.715C147.779 169.687 148.657 169.445 149.464 169.344C152.301 168.997 154.616 167.355 157.173 166.327C159.773 165.284 162.279 164.019 164.841 162.894C165.279 162.701 165.475 162.122 166.119 162.204C166.721 162.281 167.239 161.765 167.795 161.509C168.303 161.272 168.77 160.876 169.33 160.833C171.635 160.649 173.451 159.269 175.476 158.409C177.487 157.55 179.513 156.686 181.398 155.556C182.551 154.866 183.568 153.905 184.847 153.471C185.393 153.287 185.761 152.64 186.569 153.055C186.797 153.171 187.049 152.433 187.371 152.244C188.169 151.786 189.014 151.424 189.835 151.023C190.983 150.468 192.145 149.946 193.256 149.319C193.933 148.933 194.493 148.319 195.16 147.909C195.855 147.479 196.588 147.113 197.349 146.818C198.31 146.441 199.337 146.219 200.289 145.823C201.278 145.418 202.127 144.607 203.182 144.452C205.147 144.163 206.705 143.019 208.423 142.212C210.131 141.416 211.843 140.605 213.444 139.596C214.354 139.026 215.488 139.132 216.417 138.645C216.846 138.418 218.227 139.745 218.325 140.392C218.344 140.518 218.325 140.667 218.274 140.745C217.616 141.734 217.168 142.97 216.095 143.463C214.513 144.187 212.996 145.046 211.442 145.838L211.433 145.848Z" fill="black"/>
<path d="M136.724 18.734C136.929 17.8119 137.251 16.9187 137.508 15.9966C137.615 15.649 138.035 15.4511 137.597 14.8332C137.387 14.5194 138.227 14.5387 138.334 14.2297C138.67 13.3897 139.211 12.6607 139.687 11.8883C140.131 11.1206 140.527 10.2661 141.12 9.55647C141.433 9.21853 141.792 8.94818 142.193 8.68748C142.385 8.55231 142.571 8.41713 142.744 8.25299C142.921 8.10333 143.08 7.93918 143.215 7.73159C143.449 7.35986 143.813 7.24399 144.172 7.15227C144.531 7.05089 144.895 7.01709 145.203 6.80467C145.843 6.34604 146.603 5.99362 147.401 6.095C147.686 6.12396 147.975 6.19638 148.251 6.22535C148.526 6.25914 148.783 6.23018 149.044 6.14328C149.361 6.03224 149.646 5.58809 150.029 5.6074C150.388 5.63154 150.757 5.94534 151.093 5.18739C151.121 5.12463 151.279 5.27429 151.354 5.38532C151.709 5.91154 152.143 5.91637 152.516 5.63637C152.88 5.35636 153.16 5.4336 153.459 5.50119C153.869 5.58809 154.285 5.65568 154.686 5.815C155.087 5.955 155.489 6.11431 155.857 6.35087C156.427 6.66949 156.828 7.27779 157.304 7.68332C157.547 7.91505 157.855 8.07436 158.135 8.26264C158.405 8.46058 158.639 8.70196 158.727 9.04473C158.807 9.39715 158.928 9.67717 159.082 9.91855C159.231 10.1648 159.399 10.3917 159.567 10.6186C159.759 10.8889 159.651 11.391 160.445 11.2027C160.519 11.1834 160.571 11.2993 160.547 11.3813C160.445 11.7193 160.459 11.9703 160.547 12.1827C160.627 12.3952 160.771 12.5738 160.944 12.7476C161.28 13.0904 161.695 13.438 161.719 13.9304C161.775 14.9249 162.139 15.818 162.279 16.7787C162.321 17.0346 162.125 17.3194 162.685 17.5125C162.885 17.5801 162.923 17.8601 162.792 18.0001C162.064 18.7388 162.512 19.4581 162.316 20.1774C162.111 20.9692 162.302 21.8671 161.56 22.4947C161.243 22.7603 161.009 23.1368 161.565 23.7306C161.826 24.0106 161.397 24.2762 161.373 24.5658C161.359 24.812 161.583 25.1403 161.509 25.3672C161.443 25.5603 161.117 25.6376 160.916 25.7679C160.855 25.8065 160.827 25.8693 160.841 25.9417C160.995 26.6273 160.697 27.1197 160.323 27.5494C159.955 27.9838 159.516 28.3556 159.343 28.8818C158.993 29.9487 158.331 30.8274 157.64 31.6336C157.262 32.0778 156.73 32.435 155.409 31.8895C154.817 31.6433 154.289 31.2281 154.112 30.7984C153.981 30.4798 153.874 30.1612 153.93 29.9584C154.009 29.6398 154.056 29.2922 154.126 28.9832C154.285 28.3363 154.065 27.4769 154.672 27.1487C154.859 27.0424 154.663 26.6562 155.265 26.8445C155.349 26.8687 155.428 26.8252 155.409 26.7721C154.999 25.57 155.913 25.1645 156.184 24.3824C156.408 23.7162 155.927 22.8472 156.431 22.3403C155.815 21.7609 156.039 21.4423 156.338 21.1526C156.861 20.6409 157.019 20.0423 157.043 19.434C157.061 18.8209 156.935 18.2222 156.935 17.6236C156.917 16.4022 156.487 15.2532 155.993 14.278C155.913 14.0945 155.461 14.2104 155.629 13.8435C155.783 13.4814 155.414 13.4283 155.279 13.2497C155.134 13.0952 154.891 13.0421 154.873 12.7717C154.868 12.6269 154.849 12.4917 154.812 12.371C154.77 12.26 154.714 12.1586 154.653 12.0621C154.588 11.9703 154.523 11.8786 154.439 11.8062C154.355 11.7386 154.261 11.6807 154.168 11.6227C153.986 11.502 153.776 11.4296 153.571 11.3572C153.375 11.2703 153.16 11.2172 152.959 11.1206C152.171 10.7441 151.219 10.5317 150.304 10.7634C150.024 10.8117 149.758 11.0144 149.501 11.1303C149.245 11.2751 148.993 11.3862 148.708 11.3669C148.461 11.3669 148.344 11.8158 147.91 11.1979C147.779 11.0241 147.737 11.6324 147.607 11.7048C147.285 11.9076 146.921 12.009 146.599 12.2021C146.137 12.4386 145.689 12.7041 145.339 13.0807C145.227 13.1869 145.171 13.38 145.11 13.5538C145.054 13.7324 144.998 13.9014 144.919 14.0462C144.835 14.1959 144.732 14.3262 144.62 14.4469C144.517 14.5773 144.396 14.698 144.261 14.8042C143.929 15.0794 143.467 15.287 143.173 15.6394C142.861 16.0063 142.921 16.6001 142.436 16.8705C141.512 17.4015 141.489 18.4008 141.195 19.2505C140.896 20.105 140.691 21.0223 140.747 21.954C140.761 22.2147 140.611 22.4513 140.462 22.6927C140.308 22.9341 140.145 23.1803 140.149 23.4458C140.149 23.6775 138.376 24.0348 137.774 23.9382C137.657 23.9189 137.536 23.8706 137.494 23.8272C136.939 23.243 136.089 22.6251 136.201 21.9058C136.374 20.8533 136.472 19.7961 136.705 18.7484L136.724 18.734Z" fill="black"/>
<path d="M100.207 28.8818C100.128 27.7521 100.273 26.6514 100.436 25.5604C100.487 25.1403 100.907 24.8555 100.417 24.2327C100.17 23.9044 101.043 23.7982 101.141 23.4458C101.463 22.4658 102.046 21.6113 102.615 20.7471C103.18 19.8974 103.684 18.985 104.421 18.3043C105.163 17.6236 106.167 17.4015 106.815 16.6387C107.1 16.296 107.483 16.2139 107.861 16.1463C108.243 16.1029 108.617 16.0787 108.948 15.8953C109.648 15.5042 110.441 15.2001 111.235 15.3642C111.524 15.4125 111.809 15.5042 112.084 15.5477C112.359 15.5863 112.625 15.5911 112.882 15.509C113.204 15.3932 113.498 14.978 113.871 15.0021C114.221 15.0118 114.59 15.3594 114.912 14.5918C114.94 14.529 115.094 14.669 115.164 14.7801C115.514 15.3111 115.948 15.3015 116.289 14.9925C116.625 14.6932 116.891 14.7656 117.175 14.7897C117.969 14.8621 118.767 15.007 119.532 15.3208C120.106 15.5573 120.591 16.0353 121.128 16.3636C121.679 16.687 122.481 16.7208 122.822 17.3919C123.149 18.0436 123.611 18.4008 124.073 18.8209C124.334 19.0816 124.357 19.603 125.123 19.3229C125.197 19.2988 125.281 19.4147 125.277 19.5016C125.258 19.8781 125.319 20.1581 125.454 20.385C125.58 20.6168 125.762 20.8147 125.977 21.003C126.383 21.3844 126.845 21.7996 126.91 22.3547C127.031 23.4844 127.386 24.4693 127.512 25.4493C127.545 25.71 127.349 25.9948 127.913 26.188C128.114 26.2555 128.151 26.5259 128.016 26.6562C127.293 27.3756 127.769 28.0321 127.638 28.7225C127.493 29.4901 127.815 30.2819 127.19 31.0205C126.924 31.3343 126.756 31.7543 127.428 32.2081C127.731 32.4205 127.372 32.7633 127.419 33.053C127.456 33.2895 127.745 33.555 127.731 33.7868C127.713 33.9847 127.414 34.144 127.251 34.3178C127.204 34.3709 127.19 34.4433 127.223 34.5061C127.848 35.7661 126.593 36.6834 126.555 37.8179C126.513 38.9814 126.121 40.0821 125.669 41.1345C125.421 41.7139 124.992 42.2594 123.569 42.1484C122.929 42.0953 122.313 41.849 122.029 41.4725C121.819 41.1973 121.632 40.9125 121.632 40.6952C121.632 40.3525 121.571 39.9904 121.562 39.6573C121.534 38.9621 121.095 38.1752 121.59 37.6345C121.739 37.4607 121.45 37.1372 122.08 37.1227C122.169 37.1227 122.234 37.0503 122.201 36.9972C121.478 35.911 122.257 35.1675 122.337 34.2599C122.393 33.4875 121.744 32.6716 122.131 31.9522C121.422 31.4646 121.585 31.006 121.837 30.6005C122.281 29.8908 122.365 29.1329 122.341 28.3894C122.313 27.6411 122.187 26.888 122.178 26.2169C122.173 25.5314 122.066 24.9086 121.893 24.3872C121.725 23.8562 121.501 23.4748 121.235 23.0741C121.193 23.0017 121.053 23.021 120.96 23.0017C120.862 22.9872 120.797 22.9437 120.843 22.7555C120.932 22.3885 120.573 22.3982 120.395 22.263C120.227 22.1278 119.947 22.1472 119.873 21.8623C119.695 21.2733 119.252 20.974 118.781 20.805C118.3 20.6313 117.777 20.5782 117.273 20.4237C116.279 20.1147 115.159 19.9264 114.105 20.1485C113.447 20.274 112.877 20.7761 112.243 20.7037C111.963 20.6892 111.781 21.1382 111.37 20.4961C111.249 20.3175 111.127 20.9113 110.978 20.9885C110.595 21.1671 110.189 21.2637 109.811 21.4182C109.289 21.6402 108.766 21.8623 108.341 22.2244C108.089 22.4561 107.996 22.8858 107.814 23.1513C107.707 23.2817 107.604 23.4072 107.492 23.5231C107.375 23.6389 107.24 23.7355 107.133 23.8224C106.979 23.9334 106.783 24.0155 106.61 24.1362C106.517 24.1941 106.428 24.2472 106.335 24.31C106.255 24.3776 106.176 24.4548 106.106 24.5369C105.807 24.8845 105.933 25.4397 105.476 25.7148C105.056 25.99 104.869 26.3955 104.785 26.8059C104.739 27.0135 104.739 27.2259 104.72 27.4335C104.706 27.6411 104.72 27.8487 104.687 28.0563C104.608 28.8722 104.701 29.7267 105.121 30.3687C105.257 30.5329 105.201 30.7839 105.187 31.0301C105.182 31.2667 105.14 31.5612 105.294 31.7253C105.359 31.8026 105.084 32.184 104.757 32.6185C104.426 33.0481 104.034 33.5212 103.773 33.6806C103.675 33.7433 103.549 33.7819 103.483 33.7723C103.077 33.6902 102.555 33.6661 102.135 33.4923C101.71 33.333 101.304 33.0819 101.155 32.6523C100.674 31.4115 100.315 30.1467 100.231 28.8673L100.207 28.8818Z" fill="black"/>
<path d="M66.85 38.0593C67.06 37.0358 67.4006 36.051 67.718 35.0613C67.8486 34.6895 68.2733 34.4723 67.886 33.8109C67.6993 33.473 68.53 33.4923 68.684 33.1785C69.0806 32.2805 69.7386 31.5515 70.3033 30.7646C70.8446 29.9874 71.3673 29.128 72.072 28.4473C72.7813 27.7666 73.7846 27.5735 74.396 26.7818C74.9606 26.101 75.8566 26.3714 76.5006 25.99C77.1913 25.5652 77.9893 25.261 78.8013 25.3914C79.394 25.4976 79.9586 25.681 80.4906 25.5072C80.822 25.3865 81.13 24.981 81.5173 25.0052C81.8813 25.0148 82.2593 25.3769 82.6093 24.6093C82.642 24.5465 82.796 24.6914 82.8706 24.8024C83.2253 25.3527 83.6733 25.3479 84.0466 25.0679C84.4106 24.7927 84.6953 24.8748 84.994 24.9279C85.806 25.0679 86.66 25.2755 87.4486 25.71C88.046 26.0286 88.5126 26.608 89.0446 27.0569C89.3246 27.2887 89.6653 27.4673 89.9826 27.699C90.2953 27.9307 90.5753 28.2252 90.6873 28.6211C90.8926 29.4225 91.28 29.9777 91.5833 30.6536C91.7653 31.0495 91.5693 31.5708 92.386 31.6722C92.4606 31.6819 92.4933 31.8315 92.4513 31.9136C92.1013 32.5847 92.2413 33.0336 92.456 33.5068C92.6706 33.9702 92.9553 34.424 92.8386 34.8633C92.6006 35.7613 92.7733 36.6737 92.75 37.5862C92.7406 37.8276 92.5026 38.0689 93.0393 38.3345C93.226 38.431 93.2353 38.6917 93.0813 38.8028C92.2646 39.4014 92.652 40.1449 92.4186 40.8111C92.2973 41.1877 92.2786 41.5787 92.204 41.9649C92.1386 42.3511 92.0033 42.7277 91.63 43.0415C91.322 43.3118 91.098 43.7029 91.6766 44.2677C91.9426 44.5284 91.5413 44.8181 91.5366 45.1126C91.532 45.354 91.7793 45.6678 91.7233 45.8995C91.6766 46.0926 91.35 46.2036 91.1633 46.3485C91.1073 46.3919 91.084 46.4595 91.1026 46.5319C91.3033 47.203 91.0606 47.7389 90.7246 48.2168C90.4026 48.7044 89.9826 49.1437 89.866 49.7182C89.6046 50.8672 89.0213 51.8955 88.3633 52.8466C88.0133 53.3776 87.4673 53.8266 86.1046 53.4211C85.4886 53.2376 84.938 52.8611 84.728 52.4362C84.574 52.1224 84.448 51.8038 84.49 51.5914C84.56 51.2583 84.5693 50.8914 84.616 50.5631C84.728 49.8824 84.4293 49.0279 85.0126 48.5934C85.19 48.4534 84.9613 48.0816 85.5866 48.1927C85.6753 48.2071 85.75 48.1492 85.7266 48.0961C85.1993 46.894 86.1046 46.3243 86.3193 45.4409C86.506 44.6926 85.988 43.785 86.4826 43.1477C85.8573 42.5491 86.0906 42.1339 86.394 41.7766C87.4813 40.5069 87.1546 38.9186 87.3506 37.4751C87.4533 36.7317 87.472 35.9834 87.4533 35.2351C87.444 34.4675 87.3833 33.8109 87.3086 33.3378C87.2806 33.164 86.8373 33.193 87.1033 32.9516C87.346 32.7005 87.0426 32.6523 86.968 32.5316C86.8793 32.4109 86.674 32.4012 86.702 32.155C86.758 31.624 86.422 31.2715 86.03 31.0591C85.624 30.8467 85.148 30.7501 84.6906 30.5619C83.7713 30.1901 82.712 29.9439 81.69 30.1612C81.0553 30.2818 80.5093 30.7839 79.8886 30.7163C79.6133 30.7115 79.45 31.1605 79.0253 30.5232C78.8993 30.3446 78.8013 30.9529 78.652 31.0205C78.4653 31.117 78.2693 31.1943 78.0733 31.257L77.49 31.484C76.972 31.7302 76.426 31.9522 75.9966 32.3481C75.7213 32.575 75.6373 33.0385 75.4273 33.304C75.32 33.4488 75.2033 33.5792 75.0726 33.6902C74.9513 33.8157 74.816 33.9268 74.6713 34.0233C74.4846 34.1488 74.284 34.2695 74.0693 34.3806C73.864 34.5061 73.6633 34.6413 73.4906 34.8054C73.15 35.1723 73.164 35.7758 72.6646 36.0317C72.1886 36.2779 71.932 36.6737 71.7593 37.1034C71.5913 37.5331 71.512 37.9917 71.3673 38.431C71.078 39.3 70.9053 40.2366 71.05 41.1442C71.1386 41.6463 70.5553 42.158 70.6346 42.6891C70.6533 42.8098 70.238 43.0174 69.7433 43.2153C69.2486 43.4132 68.6793 43.5967 68.3713 43.5919C68.2546 43.5919 68.1286 43.5629 68.0773 43.5194C67.4333 42.9932 66.486 42.4235 66.528 41.598C66.584 40.4056 66.6213 39.2131 66.85 38.0496V38.0593Z" fill="black"/>
</svg>
