<svg width="390" height="92" viewBox="0 0 390 92" fill="none" xmlns="http://www.w3.org/2000/svg">
<g clip-path="url(#clip0_314_801)">
<path d="M-18 -21C-9.41921 -20.523 3.04989 -11.1831 8.97248 -5.25715C16.9636 2.73853 23.3195 9.31321 27.5161 20.0439C31.7277 30.8131 34.9795 44.0819 43.8744 52.0918C54.1883 61.3796 65.6862 66.9665 79.7752 66.7102C96.157 66.4122 106.242 41.26 85.4569 38.6604C79.9227 37.9682 75.2798 39.5397 75.2798 45.9071C75.2798 53.7128 89.5567 58.3175 96.0087 59.7134C101.029 60.7994 104.991 58.1111 108.995 55.4653C114.508 51.823 120.293 48.848 125.853 45.3449C134.19 40.093 151.444 35.4735 160.068 42.5337C165.711 47.1533 165.188 53.2273 165.188 59.9632C165.188 64.9278 156.755 73.5152 151.702 68.4594C146.087 62.8411 145.482 50.4171 149.204 43.9705C155.565 32.9554 164.998 24.137 176.427 18.4196C182.532 15.365 189.609 14.4859 196.032 12.1724C202.261 9.92869 205.972 6.4652 210.767 2.05203C215.194 -2.02356 220.161 -5.18964 222.942 -10.7547C224.281 -13.4357 225.346 -16.269 227 -18.751" stroke="#3A3A3A" stroke-width="3" stroke-linecap="round"/>
<path d="M574.359 226.531C554.633 208.815 534.907 191.1 515.182 173.384C491.783 152.37 477.778 126.628 457.36 103.096C434.977 77.2999 405.145 52.2889 369.772 50.6198C356.789 50.0073 342.106 50.7084 329.855 55.5362C323.252 58.138 310.071 66.3657 311.198 74.957C314.162 97.5586 336.963 90.7483 346.016 77.0704C356.618 61.0523 353.23 37.0528 350.449 19.2279C347.058 -2.51376 338.139 -20.9849 322.017 -36.139C281.754 -73.9872 218.676 -42.9679 186.732 -7.39923" stroke="#3A3A3A" stroke-width="3" stroke-linecap="round"/>
</g>
<defs>
<clipPath id="clip0_314_801">
<rect width="390" height="92" fill="white"/>
</clipPath>
</defs>
</svg>
