<svg width="347" height="311" viewBox="0 0 347 311" fill="none" xmlns="http://www.w3.org/2000/svg">
<path d="M35.3017 -3.08435C20.7043 0.451971 9.67636 21.5432 5.01566 34.084C-1.01832 50.3199 0.0949956 64.6276 13.5253 76.4431C18.1518 80.5133 32.1511 89.6364 37.8592 82.1599C42.7117 75.8043 45.2069 67.591 48.3005 60.3575C52.5604 50.3965 59.397 40.9329 68.3711 34.7679C75.3026 30.0061 83.7129 28.5711 91.9266 27.6758C100.561 26.7346 109.283 33.4774 114.711 39.7114C121.176 47.1374 125.767 57.4049 127.333 67.046C129.019 77.4197 131.801 88.0222 128.606 98.2982C125.819 107.261 122.802 114.993 113.13 117.988C103.209 121.06 91.6216 121.501 83.1749 114.595C57.3559 93.4842 76.7464 55.7647 102.266 45.4688C131.161 33.8114 160.382 53.5192 172.098 80.2382C185.185 110.081 189.976 157.49 160.752 179.844C151.982 186.553 136.714 189.873 126.518 184.479C118.396 180.182 113.812 169.209 119.07 161.038C131.61 141.551 160.592 131.399 182.047 126.858C200.04 123.049 218.041 120.937 236.357 119.748C248.448 118.962 261.672 117.556 270.224 108.022C277.135 100.316 281.111 91.9333 282.033 81.605C284.821 50.3612 250.959 25.0091 223.173 18.5545C217.755 17.2958 204.595 14.1828 202.327 21.7037C198.851 33.2334 205.28 39.2447 215.22 44.1516C235.286 54.056 258.224 57.8884 279.093 65.9473C295.352 72.2261 314.051 79.3501 321.348 96.5984C332.932 123.981 306.719 161.286 279.516 167.414C248.865 174.32 223.303 141.177 225.6 112.144C227.138 92.6997 243.346 74.446 256.774 61.6718C273.322 45.93 292.351 33.7239 311.629 21.7351C317.635 17.9995 359.465 -10.474 338.411 -20.6309C330.088 -24.646 290.844 -30.8706 294.557 -12.1483C295.612 -6.82763 299.709 -3.19708 303.383 0.46293C310.525 7.57584 317.916 14.4132 325.239 21.335C344.062 39.1255 361.431 58.1929 372.368 81.9596C377.941 94.0694 381.302 107.021 384.333 119.955C387.367 132.905 390.799 146.796 389.424 160.21C386.679 186.99 361.918 205.71 340.365 218.302C326.034 226.674 305.215 235.9 288.07 235.243C273.815 234.696 280.256 218.961 286.337 212.633C296.499 202.059 319.502 190.055 334.538 195.74C346.918 200.42 349.915 218.438 349.664 229.911C349.346 244.53 340.594 257.708 332.716 269.454C324.091 282.314 311.808 295.247 296.677 300.08C262.273 311.071 223.727 283.449 206.736 254.557C200.997 244.798 198.088 234.076 194.19 223.545C192.562 219.146 190.924 210.152 186.035 207.914C172.776 201.843 164.447 218.961 167.369 229.567C170.15 239.657 184.186 248.937 192.684 253.655C208.018 262.168 226.677 267.056 244.022 268.857C274.973 272.069 305.946 251.638 336.259 260.231C351.662 264.597 356.3 274.977 359.281 289.815C361.278 299.758 360.359 306.823 349.993 309.334" stroke="#3A3A3A" stroke-width="3" stroke-linecap="round"/>
</svg>
